<?xml version="1.0" encoding="UTF-8" standalone="no"?>
<!-- Created with Inkscape (http://www.inkscape.org/) -->

<svg
   version="1.1"
   id="svg2"
   xml:space="preserve"
   width="259.64001"
   height="330.76001"
   viewBox="0 0 259.64001 330.76001"
   sodipodi:docname="motorhead-band-seeklogo.com.eps"
   xmlns:inkscape="http://www.inkscape.org/namespaces/inkscape"
   xmlns:sodipodi="http://sodipodi.sourceforge.net/DTD/sodipodi-0.dtd"
   xmlns="http://www.w3.org/2000/svg"
   xmlns:svg="http://www.w3.org/2000/svg"><defs
     id="defs6" /><sodipodi:namedview
     id="namedview4"
     pagecolor="#ffffff"
     bordercolor="#666666"
     borderopacity="1.0"
     inkscape:pageshadow="2"
     inkscape:pageopacity="0.0"
     inkscape:pagecheckerboard="0" /><g
     id="g8"
     inkscape:groupmode="layer"
     inkscape:label="ink_ext_XXXXXX"
     transform="matrix(1.3333333,0,0,-1.3333333,0,330.76)"><g
       id="g10"
       transform="scale(0.1)"><path
         d="m 378.867,188.691 -2.851,-4.472 5.703,-6.52 7.746,-0.808 8.562,-6.129 2.039,-11 1.223,-9.793 4.895,-5.688 h 3.66 l 2.453,5.688 c 0,0 -1.223,4.07 -2.031,6.531 -0.832,2.449 -3.274,11.41 -3.274,11.41 l -5.703,9.379 -6.926,6.52 -8.164,2.851 -7.332,2.031 z m -3.574,41.289 v -9.492 l 8.254,-10.308 8.25,-8.68 7.012,7.031 4.543,12.778 -6.196,7.429 -15.261,1.653 -6.602,-0.411 z m 42.5,-13.621 3.301,-8.25 3.711,-2.89 9.492,4.531 5.781,5.781 7.844,1.641 11.551,-6.184 8.672,-2.457 11.55,5.77 2.473,5.777 -1.641,13.203 -5.371,4.528 -6.601,0.41 -10.325,1.25 -14.851,1.652 -8.66,-6.199 -15.266,-12.793 -1.66,-5.77 z m 37.258,161.243 3.582,-15.864 2.043,-17.91 -1.535,-19.449 -7.657,-16.91 c 0,0 -2.043,-8.18 -4.597,-10.219 -2.551,-2.051 -9.184,-9.73 -9.184,-9.73 l -13.777,-2.051 -9.707,-5.117 -10.196,1.019 -18.378,0.508 -13.79,3.59 -16.843,6.64 -1.008,-6.64 6.113,-12.289 6.133,-9.211 18.367,-4.11 14.301,-2.55 7.137,-2.559 7.656,4.609 8.684,4.61 18.367,5.633 12.761,1.527 13.274,4.101 1.023,21.489 5.102,23.551 8.672,18.949 7.156,15.859 5.605,10.742 -8.164,5.141 c 0,0 -5.605,-1.039 -8.679,-1.039 -3.059,0 -10.207,3.066 -12.754,4.098 -2.551,1.039 -9.707,3.582 -9.707,3.582 z m 0.535,-202.211 4.148,-4.571 4.961,-5.82 1.66,-5.801 -2.898,-5.82 -4.973,-5.399 c 0,0 -3.718,-2.91 -5.789,-3.332 -2.082,-0.41 -9.953,-2.91 -9.953,-2.91 l -9.109,-3.308 -2.481,-5.828 1.661,-5.391 2.48,-4.992 -5.801,-2.078 0.418,-7.481 4.145,-5.801 4.558,-9.5504 6.621,-1.25 5.379,5.3904 5.805,5.41 h 11.187 l 13.254,1.641 6.621,3.75 5.391,6.23 -2.48,4.161 -12.024,1.25 -12.429,-3.34 h -10.762 l -1.66,2.09 1.242,3.738 6.219,2.922 15.734,6.64 9.117,7.457 5.805,7.891 0.41,12.051 0.406,8.301 2.903,3.339 8.711,-2.91 0.402,-10.39 v -10.801 l 5.379,0.41 2.082,7.91 2.066,7.891 6.211,-5.82 1.66,-6.231 -5.379,-11.641 -6.218,-15.347 -3.735,-13.723 -0.816,-15.3788 4.551,0.4219 3.308,3.3279 1.66,18.692 9.121,16.211 8.692,12.027 v 12.883 l -8.289,4.988 -2.063,7.891 c 0,0 -5.39,6.64 -4.558,8.73 0.828,2.07 3.308,9.539 3.308,9.539 0,0 4.973,7.078 8.711,7.488 3.723,0.403 9.102,1.231 9.102,1.231 l 4.98,6.66 -9.953,4.981 h -9.109 l -7.86,-2.891 -6.632,-12.047 -4.969,-8.75 -13.266,-2.48 -21.531,-4.981 -14.094,-4.152 -1.238,-3.328 z m -42.324,19.078 -3.719,-4.938 2.48,-6.179 h 5.77 l 2.891,5.769 -7.422,5.348 z M 1295.8,158.66 c -1.45,-16.16 -1.39,-32.25 -0.64,-48.34 0.85,-18.4997 5.33,-34.5583 13.33,-49.5583 7.53,-14.1211 13.44,-22.2617 24.56,-24.1601 13.58,-2.2618 23.67,8.7695 31.99,19.8984 20.53,27.5 21.51,66.719 16.43,100.48 -2.28,15.231 -4.36,28.86 -9.22,42.54 -4.01,11.3 -9.23,21.242 -18.94,14.91 -2.83,-1.852 -5.59,-3.91 -8.35,-5.969 -5.4,-4.031 -10.92,-5.031 -14.9,-2.801 -5.13,2.871 -5.62,8.238 -8.98,12.59 -13.07,16.988 -24.48,-50.73 -25.28,-59.59 z M 138.496,1893.79 C 124.883,1839.23 110.664,1784.74 95.2656,1730.67 74.5781,1658.02 58.1758,1589.27 49.1094,1519.05 l -4.7461,-44.72 c -7.3242,-89.44 6.5351,-163.52 40.0312,-241.82 11.3477,-26.56 19.1525,-35.69 46.7265,-35.69 17.934,-29.48 69.453,-97.97 104.406,-103.57 49.512,-7.82 17.461,-24.71 46.536,-48.7 l 12.351,-14.16 -22.07,7.09 c 4.629,-20.36 37.683,-31.97 72.429,-39.171 88.887,-18.411 186.536,-11.809 275.188,14.061 38.019,11.1 79.004,18.02 85.781,56.98 2.141,0.94 1.848,-5.66 2.071,-7.44 3.371,-26.32 5.71,-60.87 11.464,-89.512 7.071,-35.187 23.313,-68 39.649,-100.128 9.66,-19.032 16.035,-26.758 30.293,-24.93 12.883,1.609 11.933,16.051 6.23,33.172 -9.265,27.769 -22.793,54.687 -34.383,82.238 -14.945,35.531 -24.171,73.48 -33.683,110.81 -1.133,4.4 -1.778,4.19 2.187,6.41 13.828,5.23 9.102,12.47 0.743,16.51 -15.247,7.35 -27.059,5.47 -13.672,15.42 6.504,4.79 5.605,13.88 -3.836,12.34 -37.141,-26.08 -73.274,-48.65 -111.438,-50.62 -25.476,-1.31 -23,9.86 -15.156,22.88 12.019,19.97 2.734,20.23 -11.121,18.11 -24.094,-3.67 -47.442,-9.53 -71.543,-12.73 -43.938,-5.85 -84.082,-3.23 -117.461,7.46 -35.832,11.46 -66.621,25.16 -96.977,46.75 37.739,-10.63 73.403,-21.79 111.704,-23.37 63.191,-2.6 207.007,7.14 265.386,55.43 18.672,15.44 8.821,23.9 -5.066,21.28 -15.293,-2.88 -33.594,-12.71 -51.848,-21.32 -19.265,-9.09 -40.144,-15.73 -60.945,-21.99 -40.274,-12.08 -75.985,-12.9 -110.371,-12.23 -49.317,0.95 -86.375,11.11 -123.02,29.08 -33.347,16.39 -58.379,35.79 -83.054,58.43 -30.801,28.26 -49.961,60.72 -64.247,95.86 -18.429,45.32 -29.386,87.14 -34.582,131.37 -8.574,72.98 2.2,137.06 19.422,203.55 8.782,33.89 16.977,67.52 24.641,101.4 4.297,19.05 8.613,38.08 13.059,57.06 7.988,34.19 13.601,68.02 18.621,102.36 7.402,50.75 6.933,103.56 0.371,155.45 l 0.078,0.19 c -1.516,11.89 -3.43,23.56 -5.547,35.32 -5.867,32.6 -11.543,63.37 -26.172,93.02 0.234,-40.31 9.219,-83.85 5.371,-124.69 -6.347,-67.36 -7.597,28.76 -13.801,-12.24 l -6.211,-40.99 -24.402,-145.27 z m 232.656,8.3 20.215,52.55 c 14.688,31.58 18.594,44.16 47.988,53.56 l 17.688,37.9 37.898,30.3 42.942,30.33 c 35.015,-0.72 39.812,10.21 60.652,33.34 l 45.457,52.56 c 47.91,20.75 90.586,33.38 141.477,45.46 -47.539,27.15 -69.16,12.45 -122.61,0.16 l -73.308,-29.54 c -100.547,-60.2 -249.571,-219.07 -256.309,-364.72 7.793,23.37 22.317,39.15 37.91,58.1 z m 602.766,345.66 c -5.891,-0.03 -8.098,-7.58 -7.797,-15.98 l 0.551,-15.64 c 0.308,-10.31 0.664,-20.65 1.023,-30.97 0.743,-21.13 1.516,-42.28 2.16,-63.42 0.348,-11.72 -0.089,-23.35 -3.554,-32.86 -1.899,-5.25 -5.442,-7.43 -14.406,-1.7 -9.153,5.87 -19.297,11.52 -26.153,19.22 -13.562,15.2 -14.187,36.75 -2.488,67.72 10.23,27.12 18.387,54.37 27.32,82.04 2.414,7.47 9.074,33.64 20.512,30.48 5.762,-1.59 11.707,-32.05 10.312,-39.09 -0.8,-4.01 -1.386,0.24 -7.48,0.2 z m 8.316,-65.38 c 1.883,-10.04 2.516,-20.82 2.692,-31.74 0.215,-13.86 0.078,-27.63 0.351,-41.4 0.246,-12.42 -2.504,-16.49 6.555,-17.33 8.688,-0.76 16.028,5.36 21.928,12.34 9.4,11.12 10.85,23.33 9.95,35.98 -0.76,10.53 -2.53,19.77 -5.16,29.11 -4.52,16.21 -9.24,20.72 -9.3,11.92 -0.05,-7.37 2.02,-14.6 3.55,-21.94 2.05,-9.84 1.47,-19.72 0.73,-29.67 -1.4,-18.73 -6.37,-18.85 -9.68,-3.56 -1.07,5.04 -2.13,10.09 -3.2,15.13 -1.63,7.8 -1.923,11.81 -5.334,16.23 -5.164,6.7 -4.128,9.74 -2.586,16.75 1.2,5.47 -1.242,10.47 -3.781,15.47 -7.648,15.11 -8.488,2.25 -6.715,-7.29 z m -27.078,-198.81 c -1.57,0.9 -9.218,-8.84 -19.59,-26.81 -10.363,-17.95 -4.461,-38.97 -2.89,-39.87 1.562,-0.9 1.465,15.37 11.836,33.34 10.359,17.96 12.199,32.45 10.644,33.34 z m 35.153,-32.58 c 3.164,0.56 7.996,-12.1 10.791,-28.22 2.78,-16.14 2.48,-29.69 -0.69,-30.22 -2.465,-0.43 -5.953,7.19 -8.695,18.26 -0.762,3.08 0.73,15.3 0.117,18.83 -2.773,16.14 -4.687,20.82 -1.523,21.35 z m 17.681,38.66 c -12.771,16.04 -28.881,71.2 -49.67,34.28 -6.465,-11.47 -13.242,-22.82 -19.961,-34.15 -6.125,-10.35 -11.125,-20.5 -15.832,-31.05 -3.855,-8.67 -5.664,-14.19 -6.257,-20.76 -1.336,-15.08 3.21,-25.3 10.734,-33.86 9.461,-10.76 15.562,-16.21 26.121,-17.47 9.688,-1.15 11.895,2.42 13.613,8.68 6.817,24.8 6.067,53.1 7.332,79.49 0.293,5.99 1.223,11.54 2.407,17.13 2.031,9.57 4.961,10.06 9.281,7.32 12.566,-7.99 19.002,-24.95 24.752,-41.09 3.01,-8.48 5.47,-14.65 6.81,-21.76 1.44,-7.68 1.82,-17.95 4.75,-20.72 7.09,-6.76 8.52,7.78 8.79,17.22 0.51,19 -13.98,40.46 -22.87,56.74 z m 421.7,118.35 c 33.19,-45.4 48.54,-68.06 60.64,-122.53 27.79,-35.22 49.28,-41.57 90.94,-59.37 l -13.89,59.37 c -41.23,56.22 -89.59,102.95 -141.68,146.22 -53.12,44.11 -87.73,67.03 -152.64,87.47 -26.23,-2.01 -17.31,-8.41 -3.51,-13.96 27.92,-11.22 52.57,-22.46 76.77,-35.73 32.06,-17.62 56.36,-37.25 83.37,-61.47 z m -938.428,-259.8 c 1.726,-5.9 6.472,-10.53 11.765,-14.44 11.614,-8.64 24.328,-16.21 36.602,-24 4.512,-2.84 7.59,-6.66 10.559,-10.75 5.906,-8.14 8.992,-11.34 16.238,-12.23 3.633,-0.47 5.625,-0.88 7.859,-1.9 5.656,-2.6 11.211,-6.44 16.645,-10.3 9.91,-7.07 10.972,-7.88 10.136,-16.02 -0.429,-4.25 -1.211,-8.38 -2.121,-12.48 -1.757,-7.98 -2.297,-11.25 -0.949,-16.09 2.617,-9.28 3.137,-19.46 8.496,-22.18 7.922,-4.01 12.082,-3.25 13.918,2.07 0.879,2.58 1.36,5.55 1.758,8.52 1.133,8.7 6.133,8.3 11.582,5.62 8.43,-4.1 10.398,-5.21 9.324,-10.17 -1.812,-8.26 -5.554,-7.86 -13.035,-10.74 -8.074,-4.83 -12.383,-7.89 -12.598,-12.43 -0.136,-2.73 1.204,-6.01 4.082,-10.54 -4.343,-4.33 -7.832,-8.32 -11.125,-12.72 -3.718,-4.94 -7,-8.29 -10.828,-11.38 -4.328,-3.48 -8.972,-6.44 -13.742,-9.21 -12.613,-7.26 -25.601,-11.73 -39.09,-15.98 -12.871,-4.04 -23.996,-12.22 -35.047,-19.35 -17.648,-11.32 -10.05,-20.8 -0.734,-33.41 -3.914,-6.84 -7.168,-11.38 -11.809,-16.23 -5.027,-5.21 -7.07,-9.41 -7.246,-13.35 -0.691,-16.32 13.762,-26.92 28.43,-33.23 18.137,-7.8 33.359,-15.34 50.332,-21.71 15.098,-5.65 27.012,-10.64 40.293,-18.02 19.727,-10.9 33.145,-24.25 44.523,-42.26 2.95,-4.69 4.293,-9.19 5.477,-14.15 1.113,-4.75 1.035,-7.75 -1.387,-8.39 -3.828,-1.03 -6.132,2.15 -7.773,5.95 -6.57,15.14 -17.031,21.98 -29.531,28.37 -18.055,9.21 -18.848,-2.32 -15.032,-13.5 4.661,-13.68 15.52,-22.23 27.629,-28.16 5.469,-2.68 10.274,-4.07 15.391,-4.99 11.887,-2.11 13.976,-4.13 10.906,-13 -4.344,-12.82 -1.472,-26.19 3.637,-38.33 3.328,-7.92 6.199,-15.59 9.695,-23.1 7.949,-17.15 18.235,-12.63 21.231,2.37 4.636,-11.27 7.285,-18.63 8.457,-27.44 1.472,-11.25 -0.43,-23.37 -0.867,-34.97 -0.625,-16.47 2.695,-34.56 4.941,-50.76 5.223,-37.8 19.043,-76.91 37.488,-111.62 7.012,-13.18 14.524,-26.11 21.66,-39.22 6.446,-11.89 13.977,-29.12 25.891,-35.7 9.805,-5.41 9.336,0.65 6.609,7.96 -6.738,18.08 -9.304,35.09 -10.781,53.26 -1.387,17.16 -3.926,34.05 -5.117,51.18 -0.227,3.18 -0.359,5.57 -0.789,7.89 -0.434,2.31 -1.164,4.53 -2.57,7.37 -3.223,20.99 -5.34,40.76 -5.735,61.04 -0.215,11.69 0.305,22.46 1.867,33.55 1.368,9.64 0.871,17.86 -0.91,26.23 -3.269,15.38 -6.148,13.6 -7.976,7.34 -2.168,-7.39 -2.532,-15.92 -3.133,-24.02 -0.363,-5.04 -1.008,-8.79 -3.117,-9.15 -9.246,-1.63 -8.379,46.61 -5.496,143.94 -0.383,11.51 -0.903,17.25 -4.067,24.33 -5.574,12.43 -10.066,14.94 -15.469,11.73 -3.789,-2.25 -7.086,-5.7 -10.066,-9.55 -8.645,-11.19 -12.871,-24.68 -16.926,-38.16 -5.066,-16.91 -6.519,-16.82 -8.23,-9.77 -2.09,8.72 -3.196,16.75 -3.809,25 -0.613,8.41 -1.426,14.93 -3.074,21.92 -2.824,12 -11.32,20.92 -20.5,28.9 -7.734,6.73 -11.504,10.37 -16.477,19.34 -7.324,15.3 -14.234,21.48 -24.668,26.25 -13.023,5.96 -20.078,7.76 -30.613,17.76 -7.226,7.76 -2.324,8.41 3.367,7.38 9.922,-1.77 18.586,-5.9 27.27,-8.92 6.25,-2.17 12.847,-2.74 18.328,-6.35 5.137,-3.36 9.922,-7.5 14.297,-12.68 10.793,-9.38 18.555,-9.28 13.972,2.93 -1.707,4.58 -4.109,9.73 -8.164,13.44 -14.656,13.45 3.293,8.25 20.176,9.5 12.707,0.92 20.863,6.77 28.852,14.69 1.472,1.46 2.949,3 4.441,4.6 l 4.563,7.99 c 10.8,4.42 19.175,10.68 29.05,15.54 9.747,4.8 14.961,7.26 18.301,11.49 2.813,3.56 4.317,8.36 6.074,16.82 2.461,11.79 6.915,19.94 12.942,26.68 15.801,17.72 37.808,26.84 59.89,34.16 7.696,2.55 17.5,5.22 15.926,12.9 -0.465,2.33 -4.16,4.18 -7.761,6.53 -2.149,1.43 -4.258,3.04 -5.618,5.07 0,8.04 -0.308,13.78 -3.113,19.68 -6.191,13.09 -10.742,18.94 -4.387,23.46 6.703,4.78 13,6.27 19.328,9.59 14.727,7.74 14.708,22.91 10.633,36.59 -3.66,12.36 -11.758,21.21 -21.453,28.52 -13.738,10.37 -28.828,19.48 -43.867,28.38 -17.957,10.62 -36.094,21.02 -52.988,33.24 -13.172,9.56 -1.59,9.04 6.933,6.9 l 20.496,-12.69 c 24.973,-2.68 19.27,13.22 9.602,27.81 -15.234,23 -33.066,37.83 -55.481,51.1 -8.843,5.23 -16.472,10.83 -25.718,14.37 -8.41,3.17 -11.535,3.79 -13.782,9.12 -2.746,6.44 -7.558,9.29 -13.289,11.82 -16.632,7.35 -33.722,12.48 -51.156,16.61 -13.355,3.14 -25.152,4.44 -38.14,5.03 -11.25,0.48 -15.657,-0.68 -10,-6.01 8.406,-7.93 17.363,-11.4 27.402,-14.53 11.016,-3.38 20.906,-5.97 30.437,-10.86 6.114,-3.1 12.325,-8.49 15.047,-5.69 6.821,7.04 3.742,16.88 9.778,5.15 1.457,-2.84 2.136,-6.09 2.609,-9.35 1.836,-12.74 5.906,-21.33 13.172,-29.11 5.422,-5.8 22.07,-17.69 12.101,-13.58 -10.187,4.19 -18.449,11.07 -19.054,3.31 -0.508,-6.64 6.496,-12.7 13.468,-17.59 9.579,-6.72 15.008,-8.32 25.204,-3.2 3.398,-5.97 5.507,-10.96 9.504,-15.3 2.8,-3.03 4.128,-4.57 4.871,-6.75 2.902,-8.47 -0.536,-13.24 1.504,-20.48 1.992,-7.13 8.281,-11.87 15.48,-15.33 17.723,-8.51 31.199,-12.98 44.844,-22.55 21.238,-14.88 31.961,-26.1 43.941,-45.59 6.301,-10.26 4.856,-18.5 0.891,-26.87 -5.965,-12.68 -7.598,-11.86 -18.672,-10.04 -14.348,2.33 -27.285,2.31 -40.567,4.27 -12.121,1.78 -19.003,12.36 -28.488,7.84 -7.027,-3.38 -11.902,-4.98 -17.301,-5.73 -11.054,-1.54 -13.793,-2.5 -15.605,4.74 -1.711,6.74 -9.555,11.92 -16.691,16.22 -8.301,5 -16.985,9.41 -26.231,9.41 -3.762,0 -6.641,-1 -9.434,-2.46 -3.886,-2.03 -6.218,-4 -8.378,-6.57 -2.176,-2.58 -3.172,-4.47 -3.536,-6.42 -0.832,-4.57 0.157,-6.46 -0.183,-8.18 -2.278,-11.23 -7.641,0.38 -7.863,7.67 -0.11,4.11 -0.235,8.24 -0.332,12.34 -0.274,12.73 0.324,13.89 -9.715,22.04 -12.004,5.76 -20.871,9.74 -29.16,15.84 -3.579,2.64 -7.036,5.68 -10.61,9.43 -7,7.4 -1.258,4.57 6.035,4.17 7.942,-1.24 15.278,-2.24 22.942,-2.65 13.925,-0.73 6.593,6.42 0.09,11.02 -10.5,7.45 -20.657,8.52 -31.743,8.26 -6.16,-0.14 -9.937,-0.44 -13.797,-1.79 -12.441,-4.37 -11.496,-3.18 -24.238,3.45 -16.457,7.08 -31.387,16.3 -46.972,24.67 -4.129,2.22 -25.43,17.07 -21.258,2.71 z m 327.886,-440.22 c 1.25,-4.2 2.707,-6.4 4.68,-8.07 2.715,-2.27 5.527,-4.09 8.438,-5.98 4.113,-2.7 6.355,-4.54 7.402,-6.45 3.105,-5.64 1.105,-10.19 -2.488,-13.87 -4.844,-4.98 -10.637,-9.3 -16.196,-13.93 -3.101,-2.59 -5.156,-5.35 -6.492,-8.32 -3.32,-7.26 -3.801,-17.11 -3.496,-26.85 0.234,-7.74 0.82,-15.36 1.57,-22.99 1.055,-10.87 2.793,-20.72 5.129,-30.7 2.078,-8.93 1.516,-13.34 6.258,-15.4 3.488,-1.51 7.863,-2.24 12.402,-2.64 9.661,-0.84 13.899,-1.23 19.766,1.65 7.395,3.59 7.258,8.98 6.098,15.47 -3.774,21.01 -2.336,46.02 -1.985,68.2 0.11,7.76 -0.058,14.79 -0.761,21.94 -0.989,10.22 -4.461,18.93 -9.004,27.54 -1.809,3.42 -3.66,6.22 -5.801,8.93 -4.531,5.79 -4.473,9.74 -4.285,15.94 0.222,8.2 -1.731,12.23 -5.567,14.44 -6.164,3.54 -9.472,3.67 -12.304,1.35 -6.672,-5.43 -5.625,-12.69 -3.364,-20.26 z m 84.629,-150.96 c 2.895,4.47 4.922,8.82 6.36,13.17 4.289,13.04 3.242,26.01 4.074,41.95 l 0.586,54.5 c 0.098,9.31 -2.442,18.68 -5.578,28.01 -3.887,11.54 -5.625,20.1 -11.438,28.06 -8.992,12.3 -13.718,3.49 -11.004,-8.06 0.977,-4.13 2.766,-8.34 4.641,-12.5 3.445,-7.68 2.715,-11.84 -0.41,-14.59 -6.836,-6.03 -12.824,-6.48 -15.695,-10.24 -4.766,-6.24 -0.911,-13.19 2.878,-18.95 1.614,-2.46 2.778,-5.09 3.579,-7.84 4.199,-14.1 2.421,-29.71 2.156,-44.96 -0.078,-4.24 0.265,-8.49 0.222,-12.72 -0.105,-12.03 -5.664,-20.94 -6.875,-25.43 -0.925,-3.53 3.04,-7.65 9.082,-14.53 8.223,-9.38 8.508,-3.81 17.422,4.13 z m 34.895,162.83 c -5.899,-7.18 -6.074,-15.54 -4.356,-23.7 2.012,-9.69 2.375,-11.79 7.688,-13.89 8.543,-3.35 6.988,-8.11 2.586,-12.08 -12.899,-11.62 -15.274,-18.85 -11.66,-29.86 3.379,-10.19 7.07,-16.66 7.343,-24.86 0.286,-9.09 -2.214,-18.93 -6.953,-27.11 -18.808,-32.46 -19.726,-31.3 9.043,-29.13 8.821,0.65 12.024,0.46 16.492,3.88 12.715,9.76 3.606,91.55 3.364,110.11 -1.34,8.31 -7.239,66.5 -23.547,46.64 z m 51.293,-12.24 c -5.117,-9.45 -11.41,-20.63 -1.992,-24.97 10.507,-4.82 12.797,-6.26 9.113,-12.32 -7.082,-11.74 -9.57,-19.18 -8.027,-28.35 2.742,-16.25 5.281,-29.32 7.089,-44.39 1.192,-10 1.239,-18.67 -7.011,-22.17 -6.371,-2.71 -10.719,-3.83 -13.668,-7.49 -5.672,-6.99 -4.348,-10.78 -0.098,-12.71 6.902,-3.1 12.926,-0.14 18.168,3.94 6.701,5.2 10.031,6.79 15.151,3.93 11.71,-6.52 15.9,-2.25 17.46,5.1 5.03,23.82 1.66,51.34 0.36,77.07 -0.6,11.91 -0.56,15.91 -6.57,26.16 -6.51,8.32 -6.95,15.75 -6.84,24.67 0.11,10.11 -3.69,21.27 -12.33,22.8 -7.348,1.26 -8.02,-5.67 -10.805,-11.27 z m 60.805,9.12 c 3.22,-7.44 9.73,-10.02 8.61,-15.33 -0.61,-2.91 -6.07,-7.9 -10.8,-12.31 -8.95,-8.3 -9.12,-21.29 -7.7,-33.25 0.57,-4.8 0.94,-9.51 1.8,-14.11 1.48,-8.01 3.93,-10.47 9.22,-9.94 5.52,0.54 10.35,5.15 14.65,10.04 9.42,10.7 8.94,26.88 8.62,41.42 -0.22,10.37 -3.12,20.53 -6.14,30.52 -2.25,7.52 -4.38,13.33 -9.34,17.91 -10.41,9.62 -12.34,-7.11 -8.92,-14.95 z m 58.03,-17.29 c 3.53,-4.56 7.6,-5.88 11.73,-9.82 5.16,-4.95 0.98,-9.48 -4.1,-13.26 -10.66,-7.96 -16.7,-11.44 -19.58,-17.55 -7.21,-15.28 -1,-33.78 4.74,-47.67 3.9,-9.44 4.39,-16.1 1.47,-22.83 -3.04,-6.98 -8.95,-10.12 -14.76,-14.05 -14.73,-9.95 -3.96,-13.46 6.13,-14.55 9.55,-0.97 19.69,0.86 29.53,2.56 15.88,2.76 20.85,20.78 21.41,40.17 0.52,18.45 -1.69,36.4 -0.85,55.34 0.61,14.04 -0.94,23.34 -7.11,33.05 -4.09,6.43 -5.39,8.06 -5.49,12.95 -0.16,8.76 -1.63,14.44 -4.83,19.96 -4.69,8.07 -5.65,10.83 -11.55,7.58 -7.29,-4.03 -12.21,-24.78 -6.74,-31.88 z m 74.46,-39.6 c 5.29,4.29 12.08,4.71 15.13,0.91 3.06,-3.78 1.24,-10.33 -4.04,-14.62 -5.3,-4.27 -12.08,-4.68 -15.15,-0.88 -3.05,3.78 -1.25,10.31 4.06,14.59 z m -292.635,164.16 c 3.32,-12.78 13.059,-21.17 25.867,-25.29 8.324,-2.7 16.203,-3.37 24.817,-3.91 10.285,-0.64 12.871,-0.07 17.375,-7.58 3.632,-6.04 3.843,-9.53 6.394,-9.72 7.559,-0.61 19.281,-1.55 31.879,1.21 6.933,1.51 14.433,0.97 21.493,1.17 7.68,0.19 14.94,4.88 22.43,3.85 14.71,-2.07 17.15,3.98 28.02,13.35 8.1,8.14 10.21,13.33 16.49,9.84 6.79,-3.78 6.27,-9.77 3.9,-15.55 -5.56,-13.51 -21.24,-18.57 -35.83,-21.9 -7.96,-1.8 -13.81,-4.12 -19.88,-7.78 -8.85,-5.35 -21.28,-4.12 -32.49,-2.78 -6.477,0.78 -12.129,3.91 -16.66,2.99 -6.657,-1.34 -6.383,-6.12 -10.668,-8.15 -7.934,-3.76 -14.602,2.41 -18.899,8.79 -6.113,9.16 -11.804,12.12 -18.281,8.69 -5.496,-2.93 -10.144,-8.4 -13.555,-14.22 -6.843,-11.71 -10.761,-9.16 -14.179,-2.26 -4.012,8.13 -9.493,10.37 -15.801,9.78 -8.145,-0.76 -10.945,-3.8 -14.094,-8.86 -4.723,-7.65 -10.215,-12.85 -16.91,-17.53 -6.633,-4.63 -9.563,-8.39 -10.871,-13.21 -1.926,-7.18 -1.668,-10.6 0.871,-13.7 7.027,-8.62 12.098,-8.06 14.922,-3.45 9.258,15.18 3.75,20.45 9.383,28.19 9.035,12.44 17.843,13.49 25.078,5.32 3.066,-3.5 4.773,-7.19 5.722,-11.07 2.375,-9.86 0.887,-17.41 7.637,-20.55 7.344,-3.41 10.059,4.93 11.453,12.66 1.606,8.95 2.168,15.38 7.532,19.83 6.789,5.66 11.386,3.6 15.378,-0.6 3.84,-4 6.184,-8.5 8.313,-13.27 2.93,-6.55 4.109,-11.33 7.219,-16.36 3.925,-6.37 7.898,-6.73 12.117,-4.69 6.937,3.35 7.457,9.01 8.246,15.63 0.773,6.57 1.855,10.99 4.785,14.75 6.602,8.5 11.992,5.1 15.422,-1 5.5,-9.8 10.17,-19.49 16.82,-28.13 10.57,-13.75 14.41,-3.19 16.17,6.85 2.09,11.88 2.97,20.52 6,30.11 5.69,17.87 12.11,15.66 17.3,7.76 5.48,-8.34 7.42,-17.55 10.2,-26.29 0.79,-2.49 3.77,-8.06 7.45,-11.72 10.28,-10.24 16.1,2.14 18.74,13.62 5.32,23.25 21.11,37.63 28.79,19.18 4.18,-10.06 8.22,-15.34 13.64,-22.09 13.95,-17.4 23.28,-5.1 29.34,8.25 2.68,5.89 5.84,10.85 9.63,15.56 7.27,9.04 13.72,6.55 19.73,1.44 6.08,-5.17 10.44,-12.66 14.73,-19.8 3.47,-5.77 4.42,-8.91 2.11,-10.45 -4.67,-3.1 -6.29,-1.6 -7.48,-2.9 -4.59,-5.05 -1.02,-8.72 -5.48,-3.23 -5.64,7.01 -10.15,4.15 -10.04,-1.19 0.19,-8.68 6.15,-14.42 -2.9,-14.4 -7.73,0 -9.04,-1.55 -7.33,-4.58 4.02,-7.16 9.08,-8.77 8.11,-13.04 -1.24,-5.5 -8.06,-8.48 -14.59,-10.51 -4.24,-1.3 -8.11,-2.59 -11.99,-4.09 -13.86,-5.37 -13.5,-10.16 -4,-12.34 5.4,-1.23 7.79,-3.06 8.95,-6.13 3.33,-8.96 4.01,-19.47 5.52,-29.54 1.09,-7.16 5.89,-21.79 10.29,-14.44 2.6,4.37 1.85,10.82 2.87,16.77 1.57,9.08 7.39,15.72 10.26,9.57 3.3,-7.11 -0.41,-20.15 -1.87,-30.17 -1.92,-13.33 -3.35,-26.54 -4.32,-39.84 -1.01,-13.71 -2.19,-26.17 -4.79,-38.82 -2.59,-12.64 -3.56,-25.17 -5.11,-37.72 -1.52,-12.23 -4.49,-24.3 -8.02,-36.23 -5.5,-18.53 -10.77,-37.15 -16.35,-55.65 -2.27,-7.61 -4.65,-15.19 -7.02,-22.76 -2.28,-7.3 -6.43,-19.37 -2.25,-25.91 2.85,-4.47 8.72,-2.02 14.09,1.58 15.41,10.33 26.29,30.59 35.87,49.2 6.31,12.32 11.75,24.68 16.75,37.27 6.41,16.15 11.46,32.56 15.82,49.12 7.93,30.1 14.08,60.51 15.95,91.45 0.98,16.21 -0.27,32.61 -1.53,48.89 -0.4,5.29 -1.69,12.85 2.18,15.47 4.18,2.82 5.92,4.05 6.66,6.59 1.79,6.31 0.1,10.95 3.38,12.44 5.01,2.27 14.16,-2.62 21.33,-6.65 9.49,-5.31 9.86,-10.53 8.62,-18.38 -1.87,-12.05 -4.35,-24.1 -7.65,-35.9 -1.27,-4.57 -6.55,-14.65 -2.61,-16.8 13.34,-7.35 17.3,24.19 17.51,36.94 0.17,10.93 1.68,19.45 0.07,28.72 -1.08,6.26 -2.55,8.78 -5.58,10.82 -5.95,4.06 -12.01,7.25 -18.61,9.43 -10.01,3.33 -13.97,8.88 -8.79,14.65 0.16,0.18 7.59,4.64 11.66,8.25 6.02,5.38 -1.58,7.51 -8.72,8.14 -5.92,0.51 -9.64,-0.88 -11.44,0.55 -3.57,2.87 -1.28,6.38 1.36,9.12 3.98,4.1 1.99,7.74 -1.67,7.74 -7.08,0 -7.87,-8.09 -13.46,-1.27 -2.52,3.09 -3.69,7.42 -4.56,11.96 -1.64,8.52 -2.49,11.63 -5.73,13.89 -8.99,6.17 -10.54,4.99 -12.98,12.05 -5.3,15.45 -10.78,30.12 -17.51,44.5 -7.64,16.3 -15.68,23.17 -28.79,34.07 -5.96,4.96 -11.03,7.25 -15.11,11.61 -3.7,3.93 -5.48,5.82 -3.55,7.91 8.1,8.87 12.83,5.35 17.4,14.52 6.08,12.23 -0.69,25.76 -8.73,36.89 -4.7,6.51 -9.3,11.31 -14.9,16.12 -9.93,8.57 -14.43,5.06 -10.79,-2.46 2.19,-4.52 4.61,-8.99 7,-13.5 5.47,-10.33 6.85,-16.11 -0.75,-17.31 -6.73,-1.01 -16.2,3.58 -24.79,7.63 -6.28,2.97 -11.98,6.95 -18.27,9.3 -8.28,3.08 -11.02,3.76 -10.65,-1.39 0.31,-4.59 0.53,-8.74 0.36,-13.04 -0.2,-5.37 -1.55,-8.02 -4.38,-9.27 -4.93,-2.17 -7.7,-0.61 -10.3,-1.91 -2.55,-1.28 -3.3,-2.97 -3.27,-4.85 0.05,-5.66 1.04,-10.95 1.69,-16.41 1.01,-8.49 0.11,-14.22 -2.96,-20.73 -3.97,-8.47 -8.07,-11.6 -11.32,-5.39 -2.59,4.97 -3.42,8.77 -5.86,12.75 -5.14,8.43 -13.03,11.07 -16.87,5.03 -3.7,-5.8 -4.82,-12.29 -5.37,-18.88 -0.58,-6.98 -0.59,-20.42 -4.61,-20.59 -3.43,-0.16 -7.19,6.4 -10.06,12.51 -3.78,8.08 -6.03,10.86 -10.53,9.92 -7.34,-1.54 -8.903,-6.62 -9.137,-12.41 -0.254,-6.19 -0.848,-9.35 -2.774,-11.29 -5.144,-5.19 -12.496,-3.6 -19.379,-0.78 -4.453,1.84 -7.832,3.52 -11.047,5.83 -6.824,4.9 -7.8,9.33 -10.769,6.74 -5.606,-4.89 -10.215,-7.84 -15.774,-6.78 -5.601,1.05 -10.75,3.73 -15.582,6.92 -6.75,4.46 -13.457,9.02 -20.05,13.71 -8.035,5.73 -11.7,9.49 -8.223,-4 z m 208.295,36.67 c 6.3,8.18 17.25,2.86 24.47,-11.84 7.23,-14.72 15.34,-21 11.86,-24.49 -3.49,-3.48 -14.44,1.83 -24.47,11.87 -10.03,10.02 -18.15,16.29 -11.86,24.46 z m -739.318,237.36 c -4.153,-12.5 -4.485,-20.95 -4.485,-34.22 1.321,-14.28 0.742,-56.59 20.664,-57.39 18.75,-0.72 11.731,26.38 6.809,45.81 -2.57,10.13 -2.824,68.88 -22.988,45.8 z m 131.082,-146.77 c -3.829,-7.63 -3.301,-2.26 -8.086,8.68 -3.25,7.42 -6.868,14.41 -11.805,21.77 -3.691,5.46 -7.395,10.91 -11.035,16.37 -10.102,15.18 -19.848,30.56 -28.086,47.06 -3.215,6.47 -6.555,12.89 -9.824,19.59 -6.567,13.44 -10.715,26.62 -14.575,43.6 -1.074,4.72 -2.39,9.35 -3.699,14.99 -3.554,15.18 6.067,15.4 13.489,5.92 13.042,-16.61 8.32,-1.88 11.128,20.47 1.02,8.09 3.411,15.72 7.602,25.76 8.836,21.24 17,37.11 37.891,52.26 5.371,3.88 11.179,5.73 19.461,2.51 6.652,-2.61 8.457,-1.11 19.265,3.9 19.504,9.07 37.492,13.49 61.867,12.23 23.938,-1.24 43.575,-7.6 66.719,-17.97 4.324,-1.93 8.289,-3.3 13.801,-3.17 3.68,0.09 7.547,0.01 10.457,-1.04 1.562,-0.56 2.375,-1.86 2.383,-5.26 0.019,-3.22 -0.996,-2.86 -4.407,-7.26 -2.41,-3.14 -0.925,-6.62 1.997,-12.98 2.554,-5.63 4.746,-12.89 -2.969,-14.45 -6.485,-1.31 -6.313,2.07 -13.711,8.15 -9.477,7.78 -20.332,12.57 -33.457,15.73 -13.938,3.34 -27.934,6.71 -42.031,9.11 -20.735,3.55 -41.055,4.36 -62.668,-2.86 -21.043,-7.04 -37.61,-19.84 -49.942,-44.97 -6.289,-12.86 -11.25,-23.99 -12.558,-39.11 -1.055,-12.25 0.254,-22.71 5.754,-37.69 3.496,-9.56 7.031,-18.57 12.664,-27.44 6.882,-10.83 13.164,-21.39 18.476,-33.5 2.942,-6.73 6.281,-14.17 10,-21.2 5.442,-10.24 13.621,-19.24 13.406,-25.95 -0.054,-1.97 -1.265,-1.99 -5.906,-3.83 -5.097,-2.03 -6.66,-5.79 2.586,-7.58 4.914,-0.93 8.305,-0.91 14.633,0.77 5.391,1.4 10.769,2.79 16.141,4.17 7.578,1.97 14.968,4.15 22.324,7.38 8.027,3.51 16.179,6.98 24.551,9.29 6.945,1.9 14.171,2.74 19.14,-0.5 2.403,-1.55 0.242,-4.54 -6.25,-10.81 -5.254,-5.07 -11.914,-7.12 -22.781,-8.54 -6.508,-0.87 -13.012,-1.65 -19.531,-2.41 -5.813,-0.7 -9.817,-2.1 -16.426,-5.81 -7.629,-4.3 -15.149,-8.79 -22.981,-12.57 -3.781,-1.83 -5.429,-1.67 -11.562,1.9 -4.055,2.36 -8.074,2.03 -11.445,-4.71 z m -82.391,99.5 c 13.199,-25.96 18.973,-26.27 6.941,2.08 -8.183,17.33 -10.761,32.49 -18.046,47.29 -3.821,7.78 -12.665,8.5 -11.778,3.44 1.961,-11.2 19.785,-47.6 22.883,-52.81 z m 49.461,-79.16 c -1.199,-3.09 -1.484,-7.65 -1.621,-12.03 -0.281,-8.92 -4.031,-14.99 -8.992,-21.06 -4.907,-5.99 -8.125,-9.2 -12.661,-10.26 -4.707,-1.13 -10.781,-1.04 -16.707,-0.92 -9.089,0.2 -11.152,0.51 -10.996,-3.46 0.137,-3.52 0.86,-6.8 1.875,-9.98 1.719,-5.49 3.457,-9.08 5.938,-12.39 5.449,-7.3 13.086,-8.22 21.211,-8 9.758,0.29 12.82,1.08 18.105,5.37 5.012,4.05 4.766,8.63 2.688,12.76 -1.406,2.8 -3.684,5.42 -5.715,7.52 -4.578,4.72 -3.856,6.43 -0.801,8.45 3.438,2.24 6.652,4.54 9.793,6.95 5.207,3.98 6.867,6.03 8.012,9.95 2.265,7.78 2.222,14.52 0.281,21.15 -1.269,4.26 -6.504,15.93 -10.41,5.95 z m -4.617,275.35 -12.805,-7.19 -2.402,-7.2 4.004,-8.8 c 0,0 8,-1.61 15.207,1.59 7.195,3.21 11.187,12.02 11.187,12.02 l 4.008,11.19 -8.801,4 -10.398,-5.61 z m 96.011,52.02 c 4.868,0 8.813,-2.86 8.813,-6.39 0,-3.55 -3.945,-6.41 -8.813,-6.41 -4.851,0 -8.796,2.86 -8.796,6.41 0,3.53 3.945,6.39 8.796,6.39 z M 519.102,1796.7 c 15.918,0.44 23.007,-18.85 18.339,-39.54 -4.668,-20.66 -8.007,-35.59 -20.293,-35.59 -12.277,0 -24.199,18.26 -24.199,38.35 0,20.08 10.235,36.33 26.153,36.78 z m 55.117,-41.73 c 7.344,0 0.508,-11.29 0.508,-24.68 0,-13.39 5.175,-23.41 -1.758,-24.24 -6.934,-0.85 -8.789,10.85 -8.789,24.24 0,13.39 2.695,24.68 10.039,24.68 z m -184.531,-141.4 c 1.55,1.56 3.605,-6.93 9.074,-12.39 5.457,-5.46 8.289,-11.85 6.734,-13.41 -1.551,-1.53 -7.254,1.63 -12.715,7.1 -5.465,5.46 -4.656,17.16 -3.093,18.7 z m 106.96,26.89 c 1.282,-1.91 -4.011,-7.7 -11.812,-12.91 -7.805,-5.2 -15.168,-7.89 -16.445,-5.98 -1.282,1.88 4.019,7.67 11.824,12.9 7.793,5.21 15.168,7.9 16.433,5.99 z m -57.964,-93.12 c -0.981,-1.05 -1.875,-2.13 -2.727,-3.22 -2.883,-3.73 -5.344,-6.02 -8.379,-8.17 -2.844,-2.03 -5.613,-3.95 -8.34,-5.98 -4.98,-3.67 -6.883,-8.93 -7.695,-14.56 -1.082,-7.49 -2.93,-14.45 -1.316,-20.21 3.086,-11.07 8.718,-10.99 13.757,-5.4 2.286,2.53 4.59,5.27 6.621,7.02 7.864,6.73 13.606,11.46 15.293,18.19 1.934,7.68 1.68,16.19 1.524,24.34 -0.117,6.22 -1.172,16.19 -8.738,7.99 z m 201.453,306.83 c 63.371,-27.44 99.433,-67.17 93.554,-80.76 -5.878,-13.6 -45.664,24.65 -109.011,52.07 -32.657,14.15 -63.625,17.54 -83.989,26.73 -7.168,3.24 -16.101,6.78 -19.351,10.27 -5.434,5.8 -2.168,11.51 -0.402,15.61 5.871,13.58 55.839,3.51 119.199,-23.92 z m 155.539,-108.86 c 3.301,1.46 7.637,-1.15 9.683,-5.79 2.043,-4.65 1.028,-9.61 -2.273,-11.05 -3.313,-1.46 -7.637,1.14 -9.695,5.8 -2.036,4.63 -1.028,9.59 2.285,11.04 z m 610.354,-170.47 c 21.63,-15.29 25.45,-35.64 22.14,-40.33 -3.31,-4.68 -12.5,3.21 -34.13,18.51 -21.63,15.29 -42.01,28.71 -38.71,33.4 3.31,4.68 29.06,3.69 50.7,-11.58 z m 39.91,-65.96 c -0.6,-10.79 -3,-17.78 -8.26,-24.08 -4.94,-5.93 -9.2,-10.43 -13.02,-15.97 -5.86,-8.47 -5.94,-12.99 0.54,-13.88 8.11,-1.11 18.33,1.65 27.74,4.61 13.05,4.13 19.14,7.97 27.81,15.28 7.14,6.04 8.53,11.72 7.15,17.38 -1.58,6.53 -6.07,13.82 -10.5,20.74 -3.34,5.22 -5.5,8.34 -8.21,10.86 -6.99,6.52 -10.34,7.13 -14.98,4.64 -9.71,-5.16 -7.79,-9.23 -8.27,-19.58 z m -109.14,175.16 c 6.7,-1.2 13.34,-2.74 20.3,-4.74 14.67,-4.23 28.57,-9.79 39.33,-21.98 12.65,-14.36 22.54,-31.75 27.23,-50.14 1.88,-7.38 3.56,-11.92 -6.21,-14 -18.32,-3.89 -37.75,1.29 -55.41,8.5 -6.82,2.77 -3.04,4.66 -8.73,15.89 -3.17,6.29 -8.97,10.34 -17.21,15.99 -3.41,2.35 -6.11,5.3 -6.18,9.37 -0.11,5.5 12.14,2.16 19.42,-2.96 11.14,-7.86 30.28,-18.94 26.48,-2.38 -1.8,7.8 -9.44,12.43 -18.83,16.03 -13.18,5.07 -26.59,10.79 -36.55,20.55 -16.42,16.09 7.07,11.51 16.36,9.87 z m -430.53,16.35 c -0.899,-4.5 -1.165,-6.61 -2.586,-8.74 -5.215,-7.79 -8.801,-10.58 -3.45,-12.85 6.868,-2.91 18.172,1.68 27.918,6.46 11.653,5.72 21.45,8.73 32.571,10.46 14.043,2.17 28.851,2.88 43.367,2.67 5.56,-0.07 9.64,-0.07 13.92,-1.13 13.41,-3.29 1.41,-5.21 -8.49,-6.1 -4.52,-0.4 -8.59,-0.59 -9.661,-0.59 -7.031,-0.29 -13.976,-0.73 -20.941,-1.32 -14.672,-1.27 -24.609,-7.51 -15.449,-15.71 7.449,-6.67 21.156,-7.8 34.562,-7.42 13.329,0.39 23.279,0.61 34.289,-0.59 26.99,-2.94 54.21,-12 80.54,-20.92 21.77,-7.38 34.71,-11.63 47.12,-22.23 19.55,-16.68 27.45,-35.68 30.36,-58.92 0.67,-5.4 0.64,-8.59 -0.3,-12.16 -2.77,-10.55 -2.84,-13.8 2.01,-15.5 13.93,-4.85 22.48,-10.49 30.72,-19.16 16.92,-17.86 32.64,-32.89 54.66,-31.76 30.56,1.55 60.96,3.01 93.43,-2.52 12.16,-2.08 21.19,-2.48 28.76,-9.28 6.54,-5.82 3.62,-13.31 -1.65,-20.16 -4.73,-6.14 -10.4,-11.91 -16.01,-17.7 -14.59,-14.98 -30.12,-29.13 -45.37,-43.5 -7.03,-6.63 -11.81,-12.62 -16.25,-19.51 -9.02,-13.93 -12.12,-29.63 -13.87,-45.59 -0.98,-9.14 -3.08,-17.87 -5.25,-26.61 -1.76,-7.13 -3.39,-14.13 -5.39,-21.11 -2.56,-8.96 -3.48,-14.44 1.83,-19.94 4.97,-5.21 10.41,-2.2 14.81,2.06 9.18,8.94 11.26,21.4 11.3,33.85 0.06,17.62 3.67,34.59 6.51,51.81 2.05,12.48 4.43,15.81 11.78,23.59 9.46,9.99 19.82,18.87 30.66,27.17 6.7,5.12 10.99,8.29 15.14,13.61 7.58,9.69 10.12,15.01 17.48,19.37 19.64,11.63 25.48,2.63 27.21,-10.6 1.54,-11.84 -0.22,-24.93 -2.02,-37.83 -2.25,-16.24 -3.26,-32.57 -4.4,-48.91 -0.93,-13.23 -4.73,-26.89 7.97,-23.96 2.65,0.6 3.95,1.11 5.05,0.68 17.52,-6.94 20.04,1.19 16.39,12.35 -2.76,8.43 -7.7,15.72 -12.04,23.61 -6.73,12.23 -2.42,18.91 3.6,28.08 3.72,5.69 4.39,11.34 4.89,17.6 0.97,12.32 10.81,23.33 17.18,33.81 l 5.23,12.39 c 5.34,6.75 10.23,12.81 15.89,18.58 8.16,8.32 12.08,7.33 14.16,1.96 3.03,-7.79 5.8,-13.06 10.5,-10.68 12.51,6.27 12.65,17.45 11.11,28.67 -1.33,9.71 -3.96,14.51 -9.28,18.47 -5.51,4.11 -6.58,8.06 -8.43,11.22 -1.2,2.06 -2.57,3.26 -4.13,4 -7.96,3.72 -8.91,1.97 -10.73,6.71 -1.38,3.62 -2.61,7.35 -3.83,11.07 -2.32,7.06 -1,14.78 -0.18,22.61 0.47,4.6 0.4,8.22 -0.16,11.91 -1.38,9.06 -4.49,16.64 -6.68,25 -2.23,8.47 -2.97,10.91 0.62,12.32 3.74,1.47 7.74,1.73 11.76,1.43 8.01,-0.55 12.33,-1.21 17.49,-0.56 9.83,1.23 17.33,6.53 23.66,13.31 8.34,8.91 13.87,15.52 15.9,25.24 2.12,10.27 1.13,15.1 -2.46,17.57 -6.06,4.17 -12.82,4.25 -18.86,1.89 -3.79,-1.48 -6.54,-3.89 -9.1,-6.63 -2.36,-2.52 -4.47,-4.31 -6.74,-5.89 -4.3,-2.97 -6.31,-4.06 -7.97,-3.43 -7.16,2.66 -5.77,12.1 -3.71,20.14 1.39,5.47 3.34,10.22 5.61,14.9 3.44,7.07 7.89,15.54 8.64,23.73 0.73,8.2 0.26,9.7 -7.09,8.06 3.56,8.55 6.11,12.92 10.72,17.61 4.88,4.97 7.56,11.58 9.4,18.69 5.46,21.11 12.23,40.8 27.06,57.03 3.82,-5.3 6.83,-9.18 10.61,-12.83 13.68,-13.12 15.9,-1.18 15.87,11.41 0,15.11 -2.85,24.74 -11.06,32.91 -11.26,11.21 -14.64,5.06 -15.37,-3.73 -0.51,-6.09 -0.41,-10.44 -2.04,-16.42 -5.68,1.7 -7.89,1.03 -10.37,-1.36 -5.35,-5.12 -7.45,-11.64 -10.34,-18.07 -9.39,-20.95 -24.05,-52.47 -39.01,-80.2 -5.91,-10.98 -12.36,-21.6 -18.55,-32.38 -5.98,-10.4 -8.44,-13.28 -6.71,-21.38 0.96,-4.49 2.2,-8.98 3.43,-13.43 1.39,-5.1 1.92,-9.46 2.02,-13.94 0.16,-6.57 -0.84,-10.37 -2.98,-13.7 -5.84,-9.07 -10.2,-10.59 -17.16,-10.33 -13.61,0.47 -23.75,15.63 -32.38,29.29 -7.5,11.88 -12.26,19.12 -3.03,19.23 4.94,0.07 10.22,-1.05 15.3,-2.21 9.18,-2.11 15.49,3.22 19.33,11.04 10.72,21.83 28.63,40.87 31.33,65.43 11.9,4.98 10.95,13.17 14.62,25.35 8.26,15.15 18.26,28.73 17.84,44.3 -0.24,9.19 -1.76,11.65 0.16,18.29 2.85,9.9 5.59,14.43 6.36,20.08 1.05,7.63 -0.93,13.1 -4.2,18.36 -2.14,3.46 -4.59,6.77 -7.13,10.02 -5.84,7.48 -7.65,12.45 -8.55,19.11 -1.8,13.17 -9.28,22.31 -18.34,30.28 -26.16,23.03 -57.19,28.22 -89.05,27.21 -24.28,-0.76 -47.56,-7.62 -70.31,-15.9 -24.72,-9.01 -47.04,-22.45 -69.48,-35.86 -10.19,-6.09 -20.43,-11.7 -30.84,-17.07 -8.03,-4.15 -13.56,-7.42 -20.87,-8.8 -13.35,-2.49 -10.21,3.64 -5.26,9.33 7.6,8.73 19.24,13.16 29.01,18.93 15.61,9.21 31.02,18.31 46.74,27.35 14.99,8.63 29.2,18.62 44.53,26.4 9.54,4.84 20,7.92 30.39,10.98 7.06,2.06 15.55,2.46 19.02,6.36 6.96,7.77 -3.89,9.24 -15.42,8.96 -7.68,-0.18 -15.04,-1.07 -22.43,-2.26 -5.78,-0.92 -10.42,-1.36 -15.36,-1.32 -4.02,0.03 -7.2,0.45 -10.4,1.28 -4.51,1.16 -8.71,1.47 -12.83,1.33 -10,-0.4 -18.83,-2.72 -27.41,-5.96 -8.79,-3.33 -16.17,-7.12 -23.26,-11.52 -6.1,-3.81 -12.01,-8 -17.82,-12.32 -8.19,-6.1 -14.94,-8.99 -18.22,-15.81 -3.06,-6.45 -2.59,-8.03 2.63,-11.76 -5.91,-4.04 -11.85,-7.97 -17.82,-11.85 -15.01,-9.75 -28.61,-21.31 -41.89,-33.26 -8.43,-7.59 -16.01,-15.26 -23.27,-23.22 -14.51,-15.89 -27.46,-32.98 -40.12,-50.34 -12.91,-17.72 -19.55,-28.01 -20.38,-44.92 -0.03,-1.13 -0.07,-2.31 -0.07,-3.49 -0.01,-16.8 12.06,-20.37 25.01,-21.8 11.92,-1.29 12.78,-0.49 13.34,6.69 2.44,32.72 14.82,46.98 35.84,64.44 20,16.59 45.43,30.32 70.6,43.72 46.47,24.73 85.26,52.79 131.91,69.96 51.46,18.92 86.79,12.12 118.01,-7.6 15.88,-10.02 23.01,-16.44 27.56,-27.41 6.35,-15.23 5.95,-31.82 5.66,-48.35 -0.16,-10.44 -0.53,-17.58 -2.55,-26.09 -2.16,-9.08 -4.45,-17.46 -5.9,-26.21 -1.69,-10.24 -0.73,-18.47 -2.78,-27.23 -1.68,-7.21 -4.36,-9.42 -8.71,-10.73 -13.9,-4.19 -20.65,-16.02 -26.84,-28.04 -3.02,-5.88 -3.58,-9.31 -3.87,-14.02 -0.69,-11.45 -5.3,-16.61 -11.91,-19.35 -15.01,-6.24 -28.47,0.9 -39.3,10.98 -8.42,7.83 -17.8,23.78 -17.44,11.03 0.12,-4.48 -0.07,-7.72 -0.89,-12.23 -4.13,3.04 -11.2,6.03 -18.19,8.77 -9.56,3.73 -15.69,5.56 -22.96,6.29 -5.98,0.59 -10.76,0.63 -15.77,1.35 -3.49,0.49 -6.84,1.41 -10.15,2.5 -4.19,1.37 -8.25,2.5 -12.41,3.47 -10.73,2.52 -7.21,6.95 -1.55,10.75 9.93,6.6 15.98,2.82 22.15,-3.26 9.16,-8.99 15.05,-0.24 19.25,9.03 7.47,16.49 -0.12,32.41 -6.23,47.75 10.61,6.99 18.52,11.39 28.17,14.68 7.4,2.52 10.37,0.74 12.87,-3.17 6.48,-10.13 9.53,-8.32 10.62,-3.02 5.54,27.03 10.26,29.85 29.07,38.46 18.68,8.53 41.6,14.58 53.28,30.78 6.45,9 0.24,12.06 -6.95,13.98 -5.32,1.41 -16.5,12.24 -22.37,12.24 -2.66,0 -4.23,-2.23 -3.65,-8.61 -13,11 -28.69,12.5 -44.65,10.51 -26.43,-3.29 -47.43,-12.26 -69.26,-23.43 -28.44,-14.5 -56.05,-35.49 -82.22,-57 -11.99,-9.87 -23.77,-18.12 -33.47,-28.58 -4.8,-5.12 -15.33,-14.75 -12.74,-17.49 3.67,-3.83 26.82,9.84 43.84,20.51 10.87,6.82 21.59,12.81 32.76,18.62 7.79,4.02 14.43,8.97 20.95,14.29 10.26,8.37 17.86,11.48 28.86,14.8 19.69,5.97 38.67,12.13 58.37,17.42 10.94,2.93 21.98,5.59 32.96,8.35 10.6,1.89 25.46,4.92 19.45,-4.77 -3.17,-5.14 -9.44,-5.3 -15.24,-7.47 -6.46,-2.41 -10.73,-4.27 -13.38,-5.23 -7.4,-2.71 -10.59,-8.12 -15.27,-10.17 -7.67,-3.33 -14.71,-4.05 -21.92,-3.7 -10.33,0.48 -18.32,0.76 -27.38,0.03 -6.4,-0.5 -11.78,-1.97 -17.12,-3.99 -9.14,-3.41 -43.26,-20.92 -22.64,-18.46 7.18,0.85 14.85,3.69 22.58,6.39 12.02,4.2 23.51,4.46 19.53,-1.09 -6.25,-8.65 -19.76,-15.24 -32.1,-21.24 -7.62,-3.69 -12.96,-6.05 -19.47,-7.68 -6.47,-1.63 -9.72,-2.37 -13.83,-4.82 -5.53,-3.27 -10.39,-10.19 -15.09,-16.55 -4.24,-5.77 -8.36,-7.87 -13.38,-9.02 -6.27,-1.42 -8.5,-1.16 -10.22,-3.19 -4.43,-5.25 -3.21,-6.59 -6.92,-6.93 -6.72,-0.6 -14.86,-2.35 -13.14,-5.64 4.05,-7.75 5.28,-9.9 1.99,-10.58 -4.31,-0.88 -8.81,-0.71 -13.26,-0.24 -6.3,0.65 -7.88,1.49 -8.47,4.42 -2.96,15.06 -6.93,8.57 -10.06,1.4 -3.2,-7.33 -14.48,-8.75 -25.81,-8.27 -13.2,0.58 -24.42,3.21 -35.53,0.11 -6.94,-1.95 -10.8,-5.4 -13.93,-9.86 -9.26,-13.2 -9.01,-23.84 -18.6,-23.15 -20.95,1.5 -26.07,15.88 -27.56,27.64 -0.41,3.24 -0.72,6.5 -1.07,9.73 -0.34,3.15 -0.62,6.34 -1.04,9.16 -1.67,11.36 -7.58,13.13 -12.91,9.8 -3.58,-2.26 -7.29,-5.81 -10.96,-9.52 -8.64,-8.68 -17.46,-14.21 -27.34,-17.45 -14.346,-4.65 -29.608,-3.82 -44.518,-1.85 -9.062,1.2 -14.16,2.69 -20.469,6.09 -11.25,6.09 -20.085,8.35 -26.152,4.05 -3.652,-2.59 -6.289,-7.55 -7.851,-15.47 z m 674.67,-508.59 c 4.82,-15.14 -12.94,1.34 -28.74,-6.31 -15.8,-7.65 -32.01,-30.31 -35.26,-10.43 -5.71,34.78 52.28,53.5 64,16.74 z m -221.74,30.58 c 3.21,-9.49 12.76,-12.88 21.63,-15.47 4.72,-1.34 9.49,-2.55 14.25,-3.71 11.13,-2.69 21.47,-6.93 31.61,-11.81 12.26,-5.9 21.57,-7.25 32.61,-6.23 9.49,0.87 19.05,5.43 16.06,12.32 -2.87,6.59 -16.22,8.31 -27.32,9.06 -13.83,0.93 -17.49,1.9 -14.25,9.82 3.12,7.67 6.34,11.38 8.16,16.44 1.78,4.96 1.66,10.23 1.08,15.47 -1,9.19 -4.35,12.3 -10.43,14.07 -8.73,2.54 -12.97,2.28 -15.87,-0.61 -6.91,-6.89 -9.04,-17.64 -9.35,-27.93 -0.23,-7.73 -0.98,-22.82 -1.53,-19.79 -0.46,2.62 -52.23,24.94 -46.65,8.37 z m -11.58,57.8 c 6.55,0.69 13.57,4.06 20.17,7.7 9.95,5.49 13.52,5.67 20.94,3.7 11.38,-3.02 20.08,-4.16 29.36,-1.45 12.42,3.65 11.1,8.26 6.01,12.19 -5.31,4.11 -9.58,5.36 -14.3,5.47 -6.45,0.14 -12,-1.07 -17.82,-2.85 -2.92,-0.88 -5.56,-1.01 -8.24,-0.81 -12.82,0.91 -23.49,-3.12 -30.7,-8.12 -10.55,-7.31 -13.7,-16.71 -5.42,-15.83 z m 67.48,106.37 c 10.23,-0.01 4.15,-16.71 0.98,-35.94 -3.18,-19.23 -4.01,-32.56 -7.72,-31.95 -3.71,0.6 -7.1,15.52 -5.71,34.17 1.4,18.64 2.24,33.74 12.45,33.72 z m 39.13,-20.8 c -0.65,-8.4 2.37,-10.08 4.85,-7.42 6.01,6.44 10.18,33.06 21.2,52.67 4.33,7.72 13.87,14.28 14.5,22.09 2.3,27.49 -37.38,-26.89 -40.55,-67.34 z m -109.76,80.85 c -2.67,-3.7 -5.81,-6.58 -10.59,-8.96 -3.36,-1.68 -6.55,-3.57 -9.66,-5.89 -6.71,-5.02 -12.23,-11.77 -9.34,-20.72 2.45,-7.53 14.95,-4.65 26.76,0.54 5,2.19 8.47,5.61 9.03,13.54 l 3.46,7.63 c 5.8,3.49 9.67,6.26 13.16,12.38 2.63,4.64 2.48,8.8 -7.28,9.55 -5.82,0.45 -10.73,-1.46 -15.54,-8.07 z m -395.552,289.46 c 6.23,-0.05 12.281,-0.36 18.648,-0.58 17.243,-0.65 39.824,5.23 47.344,0.76 4.88,-2.92 -4.71,-7.01 -13.95,-9.02 -4.089,-0.88 -7.616,-2.21 -11.757,-5.52 -3.066,-2.43 -6.058,-4.96 -8.844,-7.76 -2.461,-2.48 -3.281,-2.27 -11.343,2.35 -3.696,2.09 -7.2,4.32 -11.223,6.56 -5.898,3.26 -11.895,4.77 -19.055,8.69 -6.199,3.43 9.387,4.52 10.18,4.52 z M 795.449,1262.65 c 2.989,0 5.41,-3.94 5.41,-8.82 0,-4.87 -2.421,-8.84 -5.41,-8.84 -2.988,0 -5.41,3.97 -5.41,8.84 0,4.88 2.422,8.82 5.41,8.82 z m -5.945,-34.74 c 0.125,-2.94 0.574,-5.92 1.101,-8.91 1.465,-8.09 0.872,-13.21 -1.867,-18.49 -4.773,-9.26 -4.636,-16.39 -2.34,-23.77 1.825,-5.88 4.082,-11.67 6.278,-17.52 3.476,-9.29 5.984,-16.82 10.808,-23.68 6.75,-9.6 6.457,-0.05 4.836,6.9 -0.91,3.92 -2.109,8.52 -3.652,12.71 -3.438,9.36 -4.512,17.86 -4.336,27.29 0.215,13.07 2.031,24.79 1.875,37.05 -0.176,13.76 -13.477,26.85 -12.703,8.42 z m 174.305,-23.55 c 1.671,0 18.183,-23.64 18.183,-34.12 0,-10.49 -7.676,-18.99 -17.137,-18.99 -9.464,0 -17.14,8.5 -17.14,18.99 0,10.48 14.433,34.12 16.094,34.12 z M 887.676,1093.5 c 8.105,0 17.812,-7.18 17.812,-13.62 0,-6.42 -11.679,-12.42 -19.765,-12.42 -8.094,0 -14.657,5.22 -14.657,11.64 0,6.44 8.524,14.4 16.61,14.4 z m 74.773,16.09 c 4.297,0 7.785,-2.77 7.785,-6.17 0,-3.42 -3.488,-6.19 -7.785,-6.19 -4.297,0 -7.769,2.77 -7.769,6.19 0,3.4 3.472,6.17 7.769,6.17 z m -43.562,3.43 c 6.035,0 10.918,-3.9 10.918,-8.68 0,-4.81 -4.883,-8.69 -10.918,-8.69 -6.035,0 -10.926,3.88 -10.926,8.69 0,4.78 4.891,8.68 10.926,8.68 z m -43.782,6.93 c 6.797,0 12.29,-4.99 12.29,-11.16 0,-6.17 -5.493,-11.17 -12.29,-11.17 -6.792,0 -12.285,5 -12.285,11.17 0,6.17 5.493,11.16 12.285,11.16 z m -103.179,191.86 c -4.653,1.21 2.027,12.33 3.562,28.74 1.543,16.43 1.114,23.12 5.75,21.89 4.641,-1.22 10.2,-9.28 8.657,-25.7 -1.536,-16.42 -13.34,-26.17 -17.969,-24.93 z m 210.437,345.85 c 38.037,0 69.397,-11.77 69.397,-16.21 0,-4.42 -30.84,-8 -68.889,-8 -38.035,0 -68.879,3.58 -68.879,8 0,4.44 30.332,16.21 68.371,16.21 z m 67.907,-89.8 c 4.33,5.32 -9.38,6 -20.61,15.14 -11.21,9.16 -14.64,13.91 -18.97,8.59 -4.34,-5.32 -5.71,-15.97 5.52,-25.11 11.22,-9.13 29.72,-3.93 34.06,1.38 z m -136.813,-2.61 c -4.246,4.25 14.07,2.67 27.539,16.11 13.469,13.45 18.914,20.91 23.164,16.64 4.258,-4.24 5.371,-15.16 -8.094,-28.61 -13.476,-13.43 -38.371,-8.41 -42.609,-4.14 z m -41.758,35.47 c 4.688,0 -0.871,-7.57 -0.871,-17.47 0,-9.9 1.047,-13.76 -3.648,-13.76 -4.7,0 -10.93,3.86 -10.93,13.76 0,9.9 10.754,17.47 15.449,17.47 z m -65.293,4.87 c 4.707,0 -2.246,-11.36 -2.246,-26.21 0,-14.86 0.352,-22.74 -4.344,-22.74 -4.699,0 -8.847,7.88 -8.847,22.74 0,14.85 10.742,26.21 15.437,26.21 z M 866.863,1508 c -2.285,-5.87 -3.047,-11.07 -5.894,-18.18 -5.891,-14.68 -14.297,-28.89 -28.528,-36.29 -6.796,-3.54 -10.363,-3.19 -17.832,5.8 -3.679,4.43 -2.832,-14.28 -3.027,-16.66 -0.859,-10.64 -8.945,-18.72 -21.855,-12.37 -5.293,2.6 -5.782,8.19 -8.204,20.42 -1.386,7.04 -5.144,12.68 -14.804,8.51 -5.457,-2.36 -8.985,-6.16 -15.653,-6.29 -7.187,-0.16 -7.726,5.32 -5.043,16.25 2.356,9.62 7.122,17.55 19.329,20.38 5.703,1.32 9.484,-0.97 16.953,-8.46 4.746,4.45 9.093,7.77 12.004,13.61 1.882,3.76 3.046,5.01 9.031,2.03 6.394,-3.19 9.465,-7.59 11.203,-16.92 l 38.047,49.8 11.601,4.52 c 0.782,4.51 0.899,8.93 2.352,12.9 0.664,1.81 1.609,3.51 3,5.08 2.715,3.05 5.469,5.93 9.375,7.7 18.965,8.63 23.73,-26.58 2.215,-14.29 -4.016,2.29 -5.41,1.91 -6.465,-6.66 -0.574,-4.75 1.523,-6.92 6.934,-14.42 2.492,-10.01 3.449,-10.64 10.671,-17.83 4.465,-4.43 8.665,-9.45 6.75,-11.28 -1.765,-1.7 -8.933,0.72 -15.761,3.13 -4.09,1.45 -6.836,3.89 -9.246,10.62 -3.34,9.31 -3.536,8.16 -7.153,-1.1 z m 543.327,275.06 c 16.07,0 29.11,-16.51 29.11,-36.89 0,-20.39 -13.04,-36.9 -29.11,-36.9 -16.05,0 -12.76,20.78 -12.76,41.15 0,20.39 -3.29,32.64 12.76,32.64 z m -52,-27.53 c 3.91,0 12.42,-10.62 12.42,-23.73 0,-13.11 -3.18,-23.74 -7.1,-23.74 -3.91,0 -5.32,11.22 -5.32,24.33 0,13.1 -3.93,23.14 0,23.14 z m -84.02,-537.87 c -9.35,-4.36 -9.42,-10.17 -6.35,-15.82 11.71,-21.55 46.88,-32.52 76.23,-40.34 10.51,-2.8 20.73,-5.76 30.93,-9 13.06,-4.14 25.04,-7.75 37.79,-9.7 10.06,-1.5 17.56,-1.57 24.18,2.59 10.3,6.47 8.24,12.39 2.8,17 -5.34,4.51 -12.07,6.28 -18.71,8.61 -12.33,4.31 -25.39,7.11 -38.48,9.86 -15.33,3.22 -28.77,7.36 -42.55,12.57 -12.04,4.5 -54.43,29.58 -65.84,24.23 z M 809.656,956.039 c 5.571,-6.668 8.762,-12.879 4.895,-16.109 -3.86,-3.219 -7.891,0.66 -13.457,7.34 -5.567,6.66 -14.18,11.402 -10.313,14.64 3.867,3.238 13.321,0.809 18.875,-5.871 z m 274.324,0.031 c 0.94,-5.269 1.75,-10.539 2.52,-15.82 0.93,-6.379 -0.24,-10.27 -2.84,-13.879 -6.82,-9.461 -3.82,-14.441 2.31,-18.262 10.91,-6.8 15.94,-6.961 21.39,-1.988 5.89,5.367 6.89,9.231 7.01,14.879 0.1,5.691 0.98,10.18 2.32,15.059 2.49,8.921 5.61,16.261 7.33,24.73 1.41,7.082 1.97,11.359 1.02,14.512 -2.85,9.508 -11.32,12.859 -14.88,7.488 -2.92,-4.398 -7.97,-6.391 -11.97,-6.219 -2.95,0.121 -4.29,0.379 -5.25,0.45 -12.75,0.832 -10.34,-13.309 -8.96,-20.95 z m -49.53,24.75 c -3.28,-4.39 -4.47,-7.058 -4.56,-10.011 -0.35,-9.868 1.21,-19.969 3.28,-29.77 1,-4.801 1.56,-9.07 1.86,-13.43 0.7,-10.328 0.48,-18 6.05,-22.898 4.48,-3.961 7.82,-3.82 11.38,-2.231 7.29,3.301 10.92,8.731 12.77,15.071 4.4,15.121 2.45,33.148 0.77,49.551 -1.06,10.32 -0.45,10.867 -8.03,12.777 -8.35,2.09 -15.36,3.301 -23.52,0.941 z m -51.337,-1.718 c -1.726,-3.832 -0.945,-7.731 0.5,-11.5 1.813,-4.731 2.68,-7.602 3.032,-11.391 0.695,-7.152 -0.614,-14.539 -1.739,-21.742 -1.293,-8.399 -0.449,-14.328 1.836,-20.391 3.438,-9.137 5.559,-11.25 11.77,-13.297 5.698,-1.851 8.058,-1.07 11.798,1.047 6.22,3.5 8.31,12.742 8.61,22.801 0.37,12.562 -1.47,25.5 -3.34,38.191 -1.06,7.36 -2.29,11.551 -4.76,16.039 -3.45,6.332 -5.54,5.25 -9.31,6.082 -8.213,1.821 -14.678,2.399 -18.397,-5.839 z m -42.008,-2.774 c 1.375,-5.969 2.098,-11.656 2.528,-17.367 0.683,-9.191 0.605,-18.332 0.344,-27.461 -0.168,-6.191 -0.532,-12.238 -1.028,-18.352 -0.683,-8.437 3.633,-12.039 9.422,-13.128 16.164,-3.051 20.637,15.582 18.742,29.109 -2.136,15.172 -4.082,28.699 -8.054,42.769 -2.102,7.43 -3.313,9.532 -7.571,12.18 -4.953,3.094 -19.004,3.813 -15.925,-4.406 0.347,-0.942 0.867,-2.024 1.542,-3.344 z m -52.55,-0.18 c -0.149,-1.66 1.687,-6.367 3.496,-10.91 2.695,-6.718 2.988,-9.008 1.789,-14.066 -1.567,-6.742 -2.524,-11.742 -2.766,-16.992 -0.332,-6.891 0.617,-13.77 1.77,-20.59 0.965,-5.781 1.765,-8.469 4.051,-11.731 2.16,-3.109 4.503,-4.679 7.168,-5.738 7.98,-3.133 10.234,-1.851 13.859,2.277 4.07,4.653 5.418,10.223 6.043,16.133 1.172,11.539 1.387,23.239 1.68,34.86 0.148,6.929 -0.594,13.437 -1.524,20.16 -0.793,5.84 -2.898,8.398 -6.23,10.84 -4.524,3.32 -7.696,4.379 -11.348,4.55 -2.859,0.137 -7.188,-0.171 -10.879,-1.453 -3.691,-1.258 -6.758,-3.539 -7.109,-7.34 z m -64.492,0.872 c 0.195,-2.211 1.64,-4.75 3.632,-8.758 3.567,-7.153 5.489,-16.461 6.817,-25.961 1.562,-11.051 3.136,-19.512 5.304,-28.41 2.743,-11.27 3.575,-14.993 10.875,-18.789 4.414,-2.293 13.372,-7.211 16.836,-7.364 8.352,-0.398 9.133,10.5 8.286,20.641 -0.571,6.91 -1.868,13.5 -3.45,20.062 -1.894,7.938 -2.363,13.118 -1.953,19.821 0.723,11.508 -1.465,17.207 -6.816,21.359 -4.934,3.828 -7.93,6.078 -11.211,7.758 -4.649,2.351 -30.274,21.781 -28.32,-0.359 z m 473.447,149.54 -20.09,7.17 c -9.07,4.12 -15.59,7.77 -25.67,7.91 -12.14,0.2 -15.52,-3.44 -15.91,-11.4 -0.18,-3.85 0.33,-8.72 0.88,-14.62 0.36,-3.92 -2.23,-8.46 -5.83,-12.93 -7.1,-8.84 -10.94,-13.49 -13.36,-18.85 -3.23,-7.23 -5.36,-16.09 -7.03,-25.34 -2.45,-13.66 -5.09,-26.45 -8.1,-39.07 -4.23,-17.65 -9.59,-34.371 -15.65,-50.801 -6.49,-17.629 -13.79,-34.918 -21.93,-51.82 -7.65,-15.848 -22.36,-34.137 -21.55,-51.688 0.36,-7.891 3.09,-10.043 7.71,-11.019 18.25,-3.864 32.13,11.718 42.72,30.937 15.81,28.77 27.13,54.781 31.59,83.82 2.9,18.961 2.49,38.751 2.14,58.191 -0.4,22.6 7.25,17.57 20.54,9.18 42.99,-27.15 132.15,-48.32 191.81,-49.73 22.7,-0.52 20.69,4.691 12.27,22.58 -5.16,10.96 -9.35,22.54 -13.45,34.08 -6.53,18.38 -12.28,23.1 -24.55,23.64 -9.48,0.41 -19.26,-0.3 -28.92,-1.03 -11.43,-0.85 -20.11,-0.26 -28.13,3.92 -6.39,3.32 -12.23,7.42 -18.39,11.27 -11.77,7.35 -19.17,10.3 -20.43,18.91 -3.58,24.58 7.42,26.69 -20.67,26.69 z m -476.494,-45.03 -4.629,4.08 -8.114,-1.16 -4.043,-5.82 -0.585,-6.97 6.375,-8.12 6.945,2.32 8.68,5.21 5.793,-6.37 3.472,-6.97 8.11,-3.49 1.152,6.97 -1.731,11.62 3.477,10.45 -3.477,6.97 -10.418,-1.75 -4.054,-4.64 -6.953,-2.33 z m 31.679,-33.58 c -2.031,-5.29 1.028,-9.77 2.254,-14.82 0.449,-1.82 1.235,-3.44 2.324,-5 2.661,-3.74 3.665,-5.16 4.043,-7.62 1.235,-8.11 1.75,-12.19 4.536,-16.77 2.441,-3.97 3.933,-5.689 5.671,-6.002 1.668,-0.316 3.567,0.684 6.731,2.223 8.582,4.139 21.551,2.909 32.105,1.569 2.629,-0.31 5.469,0.02 7.805,-1.18 6.719,-3.42 10.598,-3.319 14.91,-1.741 8.442,3.071 13.11,3.751 18.547,1.661 7.703,-2.981 11.817,-4.801 15.867,-2.321 9.028,5.531 3.938,7.091 16.227,2.291 16.965,-2.9 32.525,-2.842 48.635,-1.459 12.85,1.09 20.76,3.349 28.11,10.109 4.9,4.49 6.63,6.57 5.8,7.94 -1.36,2.27 -6.46,3.52 -11.82,4.24 -9.03,1.24 -13.3,1.88 -19.93,5.02 -18.97,8.94 -19.83,36.51 -10.63,53.29 6.46,11.73 9.54,11.34 6.73,24.8 -3.94,7.34 -10.94,20.59 -15.62,13.31 -5.23,-8.15 -6.69,-15.32 -4.54,-22.69 2.64,-9.06 3.09,-16.51 2.76,-24.87 -0.46,-11.7 -2.52,-22.8 -8.03,-32.19 -4.34,-7.43 -7.43,-14.54 -9.317,-3.25 -0.468,11.25 -2.324,18.8 -11.14,17.06 -6.586,-1.28 -8.512,-7.19 -9.02,-13.41 -0.437,-5.58 1.399,-15.31 -1.601,-18.81 -2.832,-3.35 -6.692,0.24 -9.903,4.45 -4.219,5.56 -5.246,7.22 -9.328,8.9 -6.016,2.48 -9.031,3.6 -13.141,3.06 -10.214,-1.34 -14.082,-0.83 -18.75,4.05 -7.582,7.89 -17.414,10.38 -27.667,9.82 -5.938,-0.32 -11.883,-1.29 -17.833,-2.19 -6.828,-0.99 -8.957,-2.15 -11.425,0.74 -2.598,2.97 -6.028,5.1 -8.946,4.44 -1.757,-0.4 -3.32,-1.83 -4.414,-4.65 z m 606.215,81.23 c -2.57,-17.66 -2.57,-33.45 -0.88,-51.93 1.77,-19.21 2.99,-35.94 7.96,-52.91 3.45,-11.81 8.45,-22.11 14.36,-32.18 4.03,-6.89 8.34,-12.832 13.08,-18.719 18.46,-22.839 14.39,-3.211 6.98,12.149 -4.72,9.82 -7.25,17.51 -8.41,25.09 -2.22,14.5 -1.5,24.03 2.8,33.65 3.97,8.94 5.85,13.87 10.39,14.23 16.36,1.26 27.13,-4.93 17.43,8.91 -4.61,6.59 -4.53,8.1 -1.12,8.12 4.12,0.04 7.76,0.25 11.46,0.67 7.7,0.91 11.56,2.92 13.22,7.45 0.75,2.07 1.05,4.65 1.05,7.89 13.69,-4.55 18.95,2.01 20.97,11.83 0.61,3.02 1.24,6 1.93,9.07 1.43,6.38 1.23,9.17 -0.71,10.84 -4.44,3.81 -9.99,4.51 -15.6,4.16 -8.04,-0.55 -13.64,-2.9 -19.3,-6.27 -5.78,-3.43 -10.46,-6.04 -15.86,-8.34 -5.95,-2.52 -15.76,-2.05 -22.26,-1.55 -5.47,0.42 -8.82,2.2 -11.93,4.87 -4.43,3.81 -7.26,7.4 -9.66,11.49 -5.57,9.51 -13.75,16.23 -15.9,1.48 z m 135.34,9.43 c -5.02,-5.84 -5.77,-11.91 -5.14,-18.33 0.46,-5.01 1.16,-10.03 1.88,-15.06 0.98,-6.76 1.98,-11.61 1.49,-17 -0.59,-6.88 -2.4,-10.23 -2.82,-13.26 -1.18,-8.65 2.5,-10.55 7.64,-9.64 11.15,1.97 16.22,5.4 19.44,11.91 6.44,13.06 9.36,19.73 17.88,20.03 7.45,0.24 11.38,-2.13 14.89,-6 4.58,-5.07 6.05,-8.7 6.73,-13.3 2.11,-14.29 10.08,-13.39 17.38,-8.39 2.13,1.46 11.03,11.03 11.66,17.15 0.38,3.77 -5.09,6.2 -10.14,8.91 -6.31,3.37 -9.02,8.42 -11.23,14.23 -2.57,6.78 -3.44,8.6 -1.35,11.45 4.08,5.58 4.55,7.01 3.96,11.52 -1.38,10.57 -2.06,17.87 -4.76,26.98 -1.03,3.53 -2.55,6.36 -4.38,8.96 -8.54,12.19 -14.01,13.81 -19.54,8.92 -5.12,-4.54 -7.26,-9.27 -8.57,-14.67 -1.39,-5.73 -0.92,-8.57 -2.47,-9.41 -1.26,-0.7 -4.41,-0.25 -7.28,0.17 -4.34,0.63 -6.48,-1.32 -8.42,-4.18 -1.98,-2.9 -3.71,-5.26 -5.85,-7.69 -3.15,-3.53 -6.38,-2.83 -11,-3.3 z m -8.29,-105.64 c 16.11,15.68 42.61,3.73 46.33,-9.24 3.72,-12.97 -12.06,-1.82 -22.2,-15.9 -10.15,-14.08 -34.14,-26.58 -40.03,-14.799 -5.87,11.789 -0.19,24.239 15.9,39.939 z m -400.15,-598.618 -10.14,-4.602 c -2.35,-1.059 -0.53,-10.5 4.33,-12.719 1.65,-0.761 3.79,-0.922 5.72,-1.312 1.86,-0.348 3.72,-0.719 5.58,-1.098 l 9.25,-8.16 c 7.28,-6.402 17.05,-4.691 26.39,-1.242 10.52,3.863 17.3,6.25 26.43,7.57 11.66,1.699 14.38,5.352 8.98,11.941 -9.73,11.872 3.14,17.129 17.23,20.079 22.38,4.652 37.01,7.203 49.11,19.671 8.34,8.622 10.02,12.84 18.02,17.321 13.17,7.371 21.43,9.39 27.42,18.019 8.5,12.27 3.12,12.231 -5.49,11.149 -11.32,-1.43 -19.58,-7.199 -27.18,-14.25 -9.57,-8.91 -10.69,-11.09 -19.54,-10.938 -7.39,0.117 -10.95,-2.043 -15.17,-5.679 -11.11,-9.571 -22.03,-15.981 -34.2,-22.133 -10.01,-5.09 -16.95,-6.02 -26.14,-6.18 -23.16,-0.359 -40.07,-8.141 -60.6,-17.437 z m -506.025,17.597 c -1.531,-7.551 2.742,-19.14 6.477,-29.129 3.738,-10.05 5.933,-12.519 11.289,-13.332 6.57,-0.988 13.054,-1.886 19.512,-2.867 6.503,-0.961 12.996,-2.012 19.558,-3.242 5.742,-1.059 12.742,3.391 16.652,1.699 13.399,-5.726 23.504,-8.496 36.582,-10.59 8.946,-1.418 17.723,-1.09 26.668,-0.758 9.649,0.34 8.047,3.911 3.704,7.461 -10.161,8.379 -18.918,8.129 -31.516,9.469 -9.895,1.301 -19.441,0.75 -27.598,5.281 -4.863,2.688 -4.258,4.719 -2.668,8.161 4.785,10.308 7.414,11.367 4.231,16.507 -4.578,7.461 -9.395,9.813 -14.871,6.852 -8.762,-4.731 -66.059,14.141 -68.02,4.488 z M 265.84,967.32 c -12.11,6.731 -15.418,2.66 -15.43,-4.832 -0.012,-20.558 6.516,-43.109 14.063,-65.008 6.25,-18.14 12.414,-35.031 20.222,-51.851 7.871,-16.988 15.278,-21.129 29.211,-20.039 6.199,0.48 9.074,2.109 13.157,0.211 19.175,-8.871 20.671,20.308 18.203,39.16 -2.121,16.269 -8.086,32.461 -12.883,48.758 -1.719,5.91 -3.301,11.832 -4.492,17.761 0,0 -1.375,17.918 -23.438,22.071 -22.07,4.129 -38.613,13.769 -38.613,13.769 z M 1319.42,427.559 c -1.09,-12.418 1.6,-22.418 3.64,-32.95 1.77,-9.078 1.79,-18.109 2.12,-27.187 0.67,-19.192 -1.37,-39.024 3.44,-57.113 4.25,-15.989 6.66,-14.571 9.21,-7.707 5.15,13.937 4.35,25.468 2.67,38.589 -1.16,9.098 -0.81,16 0.38,23.719 1.42,9.211 0.61,13.84 -1.93,19.91 -4.43,10.68 -4.92,9.969 3.82,10.61 10.59,0.742 13.88,15.699 14.99,29.57 1.46,18.422 1.3,26.91 -9.78,28.84 -16.27,2.789 -27.17,-10.731 -28.56,-26.281 z M 383.484,931.371 c -6.168,-8.68 -6.461,-18.601 -4.929,-28.621 0.73,-4.84 1.914,-9.73 3.039,-14.488 2.547,-10.723 3.172,-22.832 3.316,-35.063 0.129,-9.551 -0.039,-19.16 0.207,-28.269 0.274,-9.989 -1.926,-20.348 -4.133,-30.461 -2.437,-11.289 -0.957,-20.469 1.211,-30.719 3.891,-18.441 15.215,-33.262 27.16,-47.23 9.903,-11.598 10.75,-22.848 6.524,-33.372 -2.481,-6.179 -5.305,-9.867 -7.539,-13.769 -4.973,-8.66 -4.168,-15.731 -1.426,-22.879 8.008,-20.859 15.879,-24.512 31.941,-23.949 10.793,0.379 20.168,-1.481 30.317,-3.692 8.34,-1.839 15.398,-6.769 22.207,-12.078 16.551,-12.953 33.277,-25.082 49.566,-37.972 11.758,-9.321 20.696,-20.528 29.27,-32.387 5.586,-7.723 6.496,-13.082 7.297,-21.094 0.164,-1.719 -0.117,-5.008 -0.129,-8.246 -0.012,-4.16 0.43,-8.133 2.707,-8.703 14.453,-3.609 24.898,-11.309 36.851,-18.199 8.071,-4.629 12.5,-3.66 18.801,-1.141 13.762,5.59 18.289,14.02 29.309,16.441 17.051,3.75 41.551,-3.449 60.445,-7.492 21.516,-4.558 42.285,-8.769 63.828,-11.207 12.153,-1.39 16.723,-5.051 24.133,-11.832 17.656,-16.211 11.633,-28.679 27.766,-36.801 14.922,-7.5 26.675,-5.668 38.687,0.743 7.317,3.859 13.625,9.179 19.906,14.507 17.899,15.122 53.368,12.141 83.821,8.672 13.468,-1.519 26.943,-2.73 40.373,-4.371 6.37,-0.769 7.66,-2.961 6.34,-5.629 -3.71,-7.582 -2.3,-10.929 1.59,-12.711 14.22,-6.488 20.91,-3.289 15.37,5.051 -6.35,9.551 -4.93,12.039 0.27,12.539 9.81,0.961 15.15,-2.609 19.67,-8.23 6.57,-8.188 10.65,-11.508 8.35,-17.61 -2.77,-7.379 -10.98,-8.031 -18.78,-8.41 -11.38,-0.527 -21.5,-0.418 -31.83,0.563 -10.67,1.047 -20.82,1.879 -31.119,2.367 -16.078,0.762 -32.125,0.699 -48.168,0.242 -12.723,-0.371 -19.375,4.09 -17.859,-9.633 l 4.929,-6.949 c -6.32,-11.398 -7.746,-17.508 -4.66,-21.051 10.989,-12.597 43.879,-9.718 67.938,-5.519 13.589,2.34 20.709,3.691 22.929,13.429 2.35,10.59 9.18,14.204 16,11.532 17.21,-6.711 33.81,-7.93 52.11,-0.121 7.15,3.07 12.36,8.3 17.36,13.871 7.59,8.449 14.07,1.172 18.89,-5.668 5.44,-7.731 11.14,-5.782 15.56,-2.903 3.44,2.262 6.11,5.071 7.29,4.352 2.46,-1.473 3.2,-3.461 4.06,-4.551 0.87,-1.14 21.62,-1.371 16.68,7.539 -5.67,10.231 -15.74,10.141 -26.16,9.449 -14.99,-0.976 -14.16,4.372 -8.86,10.352 10.53,11.879 23.7,20.309 37.69,27.199 9.29,4.582 16.75,8.231 25.72,9.731 29.66,4.961 25.2,24.16 47.67,24.179 11.43,0 32.14,-1.968 40.66,5.481 9.47,8.269 11.32,15.949 24.56,8.719 l 1.97,8.91 c 3.69,14.883 4.46,11.519 13.65,3.59 8.97,-7.731 7.88,1.351 5.56,8.48 -4.2,12.992 -5.08,16.52 0.53,23.77 19.75,25.601 -3.27,63.812 7.93,90 18.56,-15.95 21.96,-10.219 23.17,2.832 0.91,9.73 3.02,33.988 1.62,48.3 -0.5,5.258 -0.13,10.778 -2.31,14.379 -2.88,4.7 -8.29,3.942 -13.19,3.301 -5.72,-0.769 -9.43,1.059 -13.12,3.848 -9.65,7.222 -14.26,3.652 -16.31,-3.879 -3.77,-13.731 -4.06,-32.449 -3.8,-50.93 0.42,-27.988 1.15,-55.308 3.19,-83.23 -29.27,5.871 -38.12,24.129 -30.02,45.05 5.86,15.168 3.68,15.059 -7.52,26.282 11.68,4.91 16.01,13.617 17.83,23.718 1.73,9.7 2.02,19.86 2.02,29.961 0,22.629 4.87,33.739 -3.06,55.309 36.32,10.43 17.56,57.789 3.96,78.27 7.22,14.5 8.31,26.519 2.37,37.652 -10.51,19.707 -23.91,1.437 -31.81,-13.203 -6.96,-12.969 -13.2,-21.949 -21.12,-30.758 -6.74,-7.492 -12.14,-12.152 -15.85,-17.77 -7.87,-11.941 -7.15,-31.312 -6.3,-47.851 0.52,-10.328 3.78,-15.231 6.83,-20.84 10.13,-18.648 5.63,-37.488 -1.29,-55.5 -9.88,-25.68 -26.1,-45.5 -43.57,-65.469 -8.68,-9.949 -20.43,-14.082 -33.2,-15.601 -29.98,-3.539 -61.28,1.582 -91.2,4.441 -8.44,15.457 -48.89,50.289 -35.57,12.859 -20.26,-0.941 -40.143,-0.269 -60.057,2.329 -13.477,1.75 -12.59,7.05 -12.133,17.421 0.598,14.141 14.824,9.059 27.742,9.989 30.238,-1.297 60.488,-1.418 90.748,-2.117 21.34,-0.493 38.67,-6.512 58.21,-6.473 64.11,0.082 83.96,44.73 70.99,93.281 -9.01,33.719 -0.43,64.738 16.45,90.52 7.6,11.609 17.41,22.121 26.72,32.89 2.32,2.692 13.11,19.801 16.83,32.258 4.05,13.602 -6.68,15.434 -14.26,11.703 -8.96,-4.422 -17.34,-23.621 -23.8,-38.383 -7.59,-17.328 -26.74,-42.578 -36.6,-59.128 -6.13,-10.321 -4.71,-22.532 -8.01,-32.821 -10.32,-32.129 -38.9,-55.64 -64.12,-46.418 -26.75,9.789 -43.31,17.41 -66.4,17.117 -12.41,-0.16 -18.01,-1.179 -24.77,-6.41 -15.71,-12.179 -32.242,-11.718 -50.89,-11.718 2.578,28.46 3.801,54.808 1.98,83.23 19.598,6.93 40.41,8.039 61.1,8.512 13.63,0.308 26.26,1.937 39.29,4.097 17.32,2.801 29.94,1.051 41.87,-6.711 5.44,-3.539 9.59,-7.636 13.51,-12.207 11.64,-13.691 24.87,6.129 33.6,19.45 8.93,13.609 1.98,19.16 -8.36,21.289 -12.26,2.55 -17.83,1.07 -26.77,8.429 -11.53,9.5 -21.23,16.981 -27.98,9.602 -11.23,-12.289 -15.4,-20.711 -22.43,-8.77 -9.63,16.309 -19.12,16.989 -24.11,3.957 -7.31,-19.027 -20.54,-27.539 -28.35,-4.046 -9.28,18.636 -13.7,10.128 -19.9,0.187 -9.12,-14.57 -14.794,-13.25 -24.118,-6.777 -14.215,9.847 -16.449,31.207 -28.891,30.367 -8.476,-0.57 -7.687,-1.5 -14.668,0.41 -17.355,4.731 -24.132,-7.867 -26,-18.891 C 913.457,842.23 909.68,833.48 901.711,840 c -13.93,11.371 -14.633,17.559 -26.367,8.18 -15.266,-12.129 -25.801,-0.93 -34.563,10.82 -13,17.469 -52.297,-21.641 -40.769,-50.051 5.801,-14.34 14.531,-11.211 22.761,-5.14 12.696,9.402 27.918,10.23 43.106,9.32 22.93,-1.328 38.262,-0.508 51.699,-13.641 5.652,-5.519 6.848,-8.808 6.375,-13.359 -1.133,-11.129 -2.515,-10.449 4.36,-16.289 5.718,-4.879 3.152,-12.711 -0.278,-18.988 -8.953,-16.364 8.031,-26.743 -8.687,-17.262 -26.946,15.238 -57.657,16.308 -87.602,13.601 -45.293,-4.082 -68.101,-29.941 -91.617,-64.511 -5.195,16.679 -10.832,22.261 -25.688,29.718 7.715,38.872 8.235,70.274 -10.836,101.454 -6.671,10.929 -11.73,20.367 -16.828,32.296 -3.679,18.5 9.856,3.133 18.516,-8.878 11.191,-15.508 9.824,-4.93 7.195,5.019 -6.402,24.313 -19.343,44.531 -32.945,64.859 -14.387,21.5 -11.777,5.653 -9.531,-7.187 0.32,-1.859 1.785,-7.992 3.281,-14.121 5.645,-23.371 -1.301,-19.551 -10.773,-10.918 -7.832,7.109 -13.016,15.777 -17.723,24.898 -14.719,28.571 -24.594,25.418 -36.274,8.539 -17.988,-26.039 -26.382,-56.269 -27.085,-86.839 -0.579,-25.27 5.359,-48.918 10.496,-73.461 -13.348,10.793 -21.524,21.222 -26.641,35.98 -2.844,8.231 -3.816,13.34 -6.238,18.981 -2.024,4.699 -4.66,9.601 -8.43,13.089 l -11.047,10.231 c 15.039,10.07 -9.988,20.711 -17.887,22.379 L 491.531,904 c -8.164,14.91 -3.679,18.09 6.074,17.191 25.215,-2.32 55.942,15.028 18.735,15.309 -18.82,0.102 -37.492,-0.621 -56.223,-1.051 -23.762,-0.527 -47.578,-0.89 -69.812,6.481 -6.594,2.179 -24.375,10.691 -33.567,10.941 -15.957,0.449 -7.343,-10.172 2.102,-13.461 8.777,-3.031 15.008,-3.219 24.644,-8.039 z m 465.93,-227.09 c -9.187,9.93 -11.394,12.11 -19.519,11.84 -5.254,-0.172 -8.223,-0.301 -11.321,0.379 -8.418,1.859 -8.84,3.422 -10.539,-1.172 -1.433,-3.859 -2.051,-7.387 -2.305,-10.969 -0.671,-9.648 -2.058,-12.371 -6.558,-14.711 -13.84,-7.179 -13.281,-13.847 -4.817,-16.578 9.231,-2.98 13.028,-5.75 17.325,-10.808 3.652,-4.34 6.101,-9.442 8.144,-14.711 3.008,-7.781 3.875,-9.481 8.66,-11.41 8.774,-3.52 10.286,-8.719 8.84,-14.481 -3.418,-13.672 -1.14,-13.89 8.875,-16.988 11.699,-3.582 29.895,1.047 46.367,5.719 19.348,5.488 29.25,10.289 45.95,21.757 -5.989,14 -7.442,21.051 -6.844,32.262 0.816,15.738 3.531,11.731 -4.152,10.481 -11.172,-1.782 -22.547,-0.95 -33.672,-2.02 -7.469,-0.723 -14.856,-2.223 -22.332,-3.512 -13.789,-2.347 -20.293,-9.55 -24.453,-6.57 -7.922,5.652 -3.45,15.781 1.902,24.402 6.316,10.149 10.066,9.411 0.449,17.09 z M 1356.39,813.66 c -17.36,-16.051 -3.87,-48.43 15.47,-56.32 35.27,-14.352 25.83,-54.059 25.03,-83.961 -0.66,-28.469 3.42,-50 -8.7,-72.481 -8.42,-15.648 -42.62,-35.019 -25.68,-48.578 -10.77,-21.558 -17.86,-31.949 -3.31,-31.75 17.87,0.27 36.24,20.489 50.38,35.371 11.91,12.52 24.68,24.008 39.96,31.52 12.08,5.93 16.42,10.687 20.47,5.43 5.21,-6.762 -0.26,-13.891 -8.19,-20.153 -13.41,-10.609 -63.43,-29.179 -52,-42.199 2.13,-2.437 6.29,1.16 8.44,-1.277 l 6.51,-10.672 c 8.45,-21.77 12.25,-13.02 20.27,-4.121 5.78,6.41 17.55,11.562 26.74,15.121 15.17,5.871 13.69,12.68 10.16,23.609 -3.33,10.34 -1.39,12.481 4.52,16.571 13.76,9.441 23.94,26.269 32.47,43.218 12.21,24.25 24.32,37.813 41.88,54.731 7.02,6.769 10.74,11.312 14.27,17.98 2.52,4.762 2.51,8.199 4.79,8.231 6.55,0.07 7.8,-3.098 11.19,2.34 4.64,7.46 7.44,10.699 11.72,13.14 14.44,8.25 14.66,5.102 11.8,19.238 -0.89,4.5 -4.55,7.872 -9.05,10.063 -6.44,3.148 -22.9,0.648 -32.54,-3.813 -8.71,-4.019 -8.31,-11.437 -7.71,-19.507 0.7,-9.711 -4.61,-15.602 -11.24,-20.551 -9.65,-7.199 -12.08,-12.18 -15.19,-21.149 -7.36,-21.382 -12.44,-15.3 -13.03,-2.421 -0.79,17.031 9.39,32.519 18.07,47.339 7.47,12.762 8.15,20.879 12.72,28.481 5.7,9.469 14.8,17.32 22.37,26.64 9.83,12.141 10.6,17.258 19.87,22.051 9.6,4.957 17.61,10.008 21,18.438 3.82,9.472 4.42,10.043 9.16,6.82 4.41,-3.008 6.96,-4.867 10.62,-5.711 7.6,-1.797 2.29,-6.519 -4.75,-11.238 -11.94,-8.02 -15.64,-14.211 -19.91,-24.418 -9.94,-23.793 12.44,-13.231 27.5,-4.172 15.45,9.34 22.42,27.27 28.91,43.73 6.38,16.282 15.16,31.43 23.33,46.86 11.01,20.781 14.21,44.211 13.94,67.43 -0.2,17.07 0.03,33.058 0.97,49.66 1.21,21.43 -5.19,41.72 -12.55,61.51 -4.94,13.28 -9.13,19.3 -18.13,16.01 -10.65,-3.85 -11.7,-14.2 -10.38,-23.92 1.69,-12.74 8.18,-24.51 14.21,-36.02 7.71,-14.819 2,-21.99 -7.48,-29.651 -5.23,-4.211 -5.81,-6.558 -5.4,-10.82 1.35,-14.098 -2.55,-18.617 -11.09,-14.84 -8.21,3.629 -12.78,1.141 -17.75,-3.219 -6.38,-5.589 -13.55,-8.05 -21.23,-10.218 -11.92,-3.364 -14.92,-11.492 -18.03,-21.442 -3.15,-10.109 -4.06,-18.261 -3.7,-26.859 0.69,-17.012 2.31,-33.742 2.4,-50.609 0.07,-13.352 2.19,-16.872 -7.23,-19.532 -3.58,-0.992 -6.13,-2.59 -7.43,-5.172 -3.97,-7.929 -3.56,-10.617 -8.75,-9.078 -4.32,1.27 -6.82,-0.961 -8.7,-4.48 -6.39,-11.949 -6.47,-12.059 -8.97,-4.629 -5.9,17.641 -5.43,38.398 -4.3,58.309 0.64,11.128 1.38,21.949 2.67,32.89 3.16,26.899 26.11,18.871 7.55,34.789 -10.43,8.961 -43.23,12.672 -63.5,8.75 -30.66,-5.91 -29.54,9.332 -49.3,-13.777 -5.24,-6.121 -7.65,-12.301 -9.26,-19.024 -2.11,-8.75 -1.32,-13.308 -5.97,-18.07 -6.83,-6.949 -14.64,11.762 -21.91,-0.93 -14.97,-26.148 -3.67,-24.16 7.64,-17.039 20.99,13.211 10.46,3.93 0.51,-7.257 -7.32,-8.243 -13.53,-17.661 -19.47,-27.231 -6.9,-11.07 -11.46,-16.801 -18.53,-22.422 -12.06,-9.527 -14.6,-8.359 -15.5,-1.429 -0.87,6.64 -1.11,27.519 -13.65,15.89 z m 260.15,-355.988 c 4.28,0 7.75,-3.672 7.75,-8.184 0,-4.468 -3.47,-8.129 -7.75,-8.129 -4.28,0 -7.75,3.661 -7.75,8.129 0,4.512 3.47,8.184 7.75,8.184 z m -22.12,37.867 c 17.95,-33.969 5.66,-41.008 -18.01,-19.25 V 430 c 25.87,20.73 26.57,-4.262 16.98,-23.48 l 47.94,-0.52 c -15,26.148 -15.96,41.23 14.2,25.109 l 2.2,44.071 c -32.87,-18.641 -31.01,-4.731 -16.49,20.789 l -46.82,-0.43 z m 160.13,1703.341 c -11.63,-20.49 -16.38,-38.9 -19.22,-58.79 -10.04,-70.12 -4.97,-141.03 2.57,-211.49 9.83,-92.01 30.92,-181.81 49.92,-272.12 11.34,-54.13 20.32,-108.13 24.65,-162.71 2.89,-36.57 1.34,-63.92 -4.67,-95.08 -3.13,-16.21 -7.52,-30.5 -12.97,-45.03 -7.8,-20.84 -22.48,-41.64 -35.68,-62.17 -20.51,-31.84 -44.76,-64.9 -72.36,-92.04 -7.51,-7.41 -11.35,-10.13 -13.38,-15.26 -7.86,-19.87 6.78,-47.12 20.8,-66.57 11.04,-15.28 19.58,-9.01 29,-0.13 154.6,145.45 161.91,357.52 109.96,549.58 -6.76,24.94 0.41,11.57 6.21,-2.73 64.85,-159.95 35.19,-410.39 -81.33,-530.88 -9.54,-9.89 -19.55,-17.8 -30.32,-25.88 -13.64,-10.22 -12.09,-17.4 -2.35,-15.38 26.79,5.55 53.08,38.39 71.65,65.76 13.88,20.46 26.52,39.83 35.92,65.4 4.03,10.88 6.24,13.31 11.95,11.4 24.31,-8.04 30.25,19.75 35.97,42.4 13.39,53.27 18.63,103.69 19.23,155.62 0.34,30.06 -1.23,59.86 -3.49,89.65 -2.26,29.84 -5.8,54.44 -12.13,80.14 -13.12,53.25 -28.28,105.36 -45.34,157 -10.08,30.54 -20.07,60.69 -29.64,91.01 -11.59,36.7 -21.39,73.13 -30.24,110.24 -9,37.93 -15.13,74.71 -20.9,111.92 -6.61,42.62 -6.4,83.35 -3.81,126.14 z M 314.211,378.262 c -4.633,-14.434 -9.223,-28.903 -13.188,-43.481 -2.363,-8.691 -4.453,-17.32 -5.132,-22.851 -2.192,-18.02 -4.7,-35.789 -5.325,-53.942 -1.093,-32.148 -0.031,-62.539 14.368,-93.398 5.652,-12.11 13.445,-22.309 25.867,-23.031 5.625,-0.329 8.015,-0.11 -0.34,-4.289 l 5.984,-14.668 10.625,-7.993 12.649,-14.6676 c 11.277,-12.7812 21.929,-25.8906 35.191,-36.7109 4.485,-3.6602 9.27,-7.1211 14.66,-10.6289 18.77,-11.9219 27.102,-8.9102 16.114,1.0898 -2.95,2.7188 -7.317,5.1875 -11.68,7.6602 -7.234,4.0781 -13.477,10.1679 -19.188,17 -7.836,9.3476 -14.687,20.0703 -21.808,28.9294 l -8.645,9.981 -11.968,9.34 -0.665,17.328 c -6.886,38 -25.16,73.34 -13.957,112.672 1.329,4.668 8.645,25.328 8.645,25.328 -9.082,17.781 -7.988,37.718 -3.859,57.031 1.789,8.359 5.097,16.648 11.433,26.668 6.074,9.601 12.461,18.871 19.68,28.312 l 7.312,15.981 -8.64,10.687 c -4.246,6.371 -10.227,10.11 -5.965,17.493 l 10.34,17.91 -1.614,0.898 c 9.055,12.09 19.282,24.262 28.743,31.238 18.867,13.903 22.644,12.762 36.23,-3.968 l 10.227,-9.321 c -10.461,26.59 -4.075,31.512 14.246,18.801 11.902,-8.23 15.73,-13.699 24.465,-19.519 7.136,-4.731 14.441,-6.141 21.714,-9.93 12.844,-6.731 15.903,-18.02 -6.414,-8.379 -15,5.828 -30.125,11.297 -45.253,16.797 18.906,-13.551 29.589,-23.168 49.843,-27.508 10.364,-2.242 22.539,2.34 33.594,6.891 9.902,4.078 10.754,6.937 18.074,-0.84 29.016,-30.781 10.813,-87.113 4.621,-78.672 -26.797,36.641 -56.816,50.98 -100.351,52.27 l 8.254,-7.45 c 18.152,-10.429 25.476,-26.539 31.328,-40.48 2.722,-6.488 15.027,-4.68 24.89,-4.75 26.922,-0.18 44.563,-20.34 19.649,-15.211 -1.668,0.312 -3.516,0.781 -5.559,1.359 -5.84,1.621 -23.406,2.481 -34.051,-1.179 -8.757,-3.008 -9.082,-9.43 -11.503,-17.309 50.808,16.738 39.179,-60.398 -5.774,-14.859 -2.207,-13.219 -3.933,-26.512 -8.797,-38.832 -5.515,-13.95 -6.777,-17.059 2.532,-26.309 9.578,-9.551 12.546,-29.98 15.125,-42.82 -0.911,-6.809 5.761,11.629 19.472,15.039 9.746,2.461 16.348,7.64 21.184,12.851 -4.817,5.559 -8.586,6.461 -10.84,11.578 -1.359,3.051 -2.18,7.661 -2.363,15.672 -7.805,-8.91 -17.168,-16.8 -21.211,-11.23 -15.696,21.558 5.027,29.961 20.742,30.769 32.637,1.641 18.687,-64.418 28.531,-50.91 27.485,37.742 31.731,63.52 18.988,104 -8.703,-16.929 -17.753,-38.629 -29.23,-41.008 -20.637,-4.281 -3.762,23.071 6.477,37.559 6.304,8.949 5.242,10.199 10.371,0.969 l 3.308,6.609 c 18.801,22.152 23.899,42.543 22.91,69.141 -0.488,13 -1.797,21.211 -2.91,34.16 l -41.648,21.211 c -14.875,7.582 -27.59,27.441 -43.567,25.699 l -10.285,-1.129 c -14.004,-1.519 -5.496,14.41 1.235,15.039 6.355,0.551 12.246,-0.371 17.832,-2.211 14.05,-4.617 29.871,-11.34 41.121,-22.367 9.824,-9.621 19.863,-14.16 31.816,-15.742 L 620,458.609 c 4.59,-3.871 11.699,-7.871 14.895,-13.179 4.175,-6.918 -2.368,-3.91 -7.247,-1.09 -7.914,4.558 -16.718,4.14 -25.793,5.18 14.102,-12.52 20.461,-20.75 20.618,-35.629 0.183,-17.7 9.617,-28.672 21.836,-34.379 12.82,-5.981 29.414,-8.133 45.269,-9.782 27.258,-2.851 54.348,-8.98 81.223,-15.039 23.293,-5.281 31.902,0.661 40.847,13.707 7.075,10.313 7.754,14.653 13.457,15.34 5.344,0.653 11.606,0.231 17.817,-0.258 9.461,-0.742 15.848,-2.39 23.055,-5.218 9.511,-3.774 11.945,-7.774 13.679,-14.352 2.571,-9.789 5.617,-14.582 10.832,-20.691 8.86,-10.367 29.356,-13.699 48.438,-15.348 25.176,-2.141 48.062,-0.84 72.444,1.25 23.79,2.027 38.54,4.707 51.72,17.309 6.07,5.832 11.55,12.769 17.25,19.422 12.47,14.578 24.64,17.328 38.5,15.617 16.57,-2.02 31.95,-10.539 46.9,-18.5 22.49,-11.969 50.62,-1.25 75.92,10 16.3,7.269 28.22,5.941 41.69,9.551 4.31,1.171 8.27,2.949 12.19,4.878 8.92,4.372 11.68,-0.699 12.55,-7.418 2.46,-19.32 1.37,-32.851 -15.43,-29.511 l 14.86,-17.321 c 10.71,-10.707 11.61,-16.449 10.64,-26.648 -1.28,-13.359 -2.14,-24.98 -4.01,-36.711 -1.4,-8.668 -3.59,-16.828 -6.18,-24.84 -4.03,-12.449 -6.37,-25.461 -12.01,-37.16 -17.96,-37.32 -21.4,-71.078 -16.42,-110.7577 4.26,-33.961 6.31,-57.25 45.58,-69.4532 7.43,-9.1562 14.07,-7.6992 9.21,-13.8984 -6.41,-8.19923 -14.99,-7.71095 -23.43,-5.05079 -3.85,1.23047 -16.89,7.98049 -18.63,3.64059 -2.12,-5.32028 7.21,-8.21091 13.87,-9.98044 13.8,-3.67969 27.85,-2.519529 41.46,0.60157 38.21,8.75777 48.16,42.53907 59.62,74.46877 7.51,20.8789 7.28,38.3706 7.29,58.5896 0.02,25.789 -4.41,49.539 -11.72,73.02 -3,9.64 -7.08,18.961 -11.23,28.222 -4.03,8.938 -9.95,16.95 -16.43,24.579 -12.37,14.511 -17.92,16.859 -18.91,35.89 0.77,17.578 2.09,26.871 12.36,37.449 6.9,7.11 10.24,15.903 12.65,25.09 6.5,24.86 7.23,51 7.76,76.699 0.45,21.5 12.82,23.243 27.95,23.274 14.6,0.027 21.84,4.476 32.19,11.418 12,8.051 21.01,19.949 31.62,30.012 18.31,17.378 34.57,24.578 42.89,44.386 4.78,11.371 2.95,25.5 1.67,38.442 -2.18,22.039 11.52,37.449 28.36,47.679 15.06,9.141 35.83,5.102 45.65,12.621 2.84,-16.878 6.32,-38.511 6.32,-57.07 0,-36.73 3.67,-66.539 8.18,-66.539 4.53,0 8.2,29.809 8.2,66.539 0,23.238 -8.39,51.328 -15.69,68.809 l 8.22,10.929 10.73,9.09 c 11,0.992 9.08,0.762 7.43,11.551 7.87,13.332 14.11,24.082 18.43,36.633 3.6,10.488 6.44,21.168 9.68,31.797 3.75,12.293 9.91,21.551 16.77,31.883 16.52,24.886 28.94,57.82 41.42,86.976 12.98,30.371 11.44,65.473 14.39,98.281 1.96,33.271 13.67,37.981 37.57,52.991 15.62,9.81 25.24,15.89 31.68,26.69 6.45,10.81 10.46,17.61 0.91,25.97 7.56,9.76 16.62,15.76 30.54,21.44 l -7.44,11.57 18.99,23.92 c 14.63,13.88 21.04,24.99 30.53,42.93 l 12.38,9.08 4.96,-4.95 c 24.02,51.89 38.53,101.36 46.71,152.78 5.64,35.53 7.88,69.07 6.74,103.6 -0.81,24.75 -2.4,48.36 -5.17,72.24 -4.26,36.75 -17.71,73.68 -26.82,109.62 l -11.56,23.95 -1.65,17.34 -6.61,23.11 c -21.42,58.77 -42.13,117.58 -64.54,175.75 -21.36,55.42 -37.76,109.68 -50.16,165.19 -12.86,57.6 -21.19,110.1 -17.19,165.48 2.83,39.07 11.95,78.19 18.82,116.71 -28.82,-54.63 -58.24,-109.05 -72.63,-169.2 l 5.78,-9.91 c -6.89,-35.35 -12.19,-70.53 -12.48,-105.88 -0.39,-46.89 4.94,-93.15 12.76,-139.05 7.79,-45.71 17.76,-89.29 30.27,-133.16 7.84,-27.53 12.45,-54.64 16.56,-82.44 7.63,-51.4 17.63,-99.07 20.25,-148.38 3.29,-62.01 -14.92,-125.45 -43.72,-181.59 -15.53,-30.27 -34.42,-55.88 -55,-82.7 -30.91,-16.65 -5,29.61 0,38.78 -18,-5.59 -33.59,-15.58 -50.19,-25.08 -24.52,-14.03 -58.98,-28.94 -53.37,2.03 22.48,124.46 47.64,248.13 68.89,373 -17.56,1.16 -20.95,15.19 -20.82,30.51 0.22,34.98 5.5,52 28.26,14.07 l 8.25,106.45 c -45.48,32.49 -41.28,68.34 5.78,36.32 l -0.83,80.88 c -17.19,-0.77 -27.51,1.85 -30.76,14.08 -5.9,22.25 -17.31,151.09 25.81,86.62 l -2.31,95.96 c -0.75,31.57 -33.75,18.83 -48.04,5.56 l -18.98,-23.93 -17.33,-23.12 c -11.86,-14.11 -22.78,-27.84 -29.73,-26.51 -1.88,0.37 -19.03,21.32 -34.56,40.4 -59.14,72.72 -132.76,121.15 -218.84,155.04 -35.75,14.07 -71.99,25.69 -108.88,35.31 -46.34,12.09 -94.23,17.33 -141.41,25.76 -25.65,4.59 -26.17,27.42 -26.17,48.14 l -12.38,23.93 -20.629,75.93 -11.571,33.85 c -14.265,-32.28 -14.539,-64.1 -15.332,-99.3 -0.886,-35.14 13.391,-78.28 -20.23,-79.08 -80.031,-1.92 -156.567,-10.24 -232.063,-29.59 -47.644,-12.2 -87.226,-33.94 -129.14,-53.4 -44.5,-20.65 -79.637,-54.19 -113.621,-90.87 -19.641,-21.17 -38.137,-43.46 -56.661,-65.64 -10.636,-12.74 -11.71,-17.98 -21.378,-14.38 -15.809,5.84 -28.633,22.89 -40.118,38.26 -10.332,13.83 -19.328,27.68 -28.418,42.41 -16.66,5.19 -18.496,7.11 -33.847,-0.84 1.406,-28.13 1.504,-54.3 -0.586,-81.12 -1.074,-13.63 -7.403,-38.04 2.429,-47.32 10.961,-10.31 8.528,2.21 8.071,9.59 -1.477,29.92 5.191,21.28 9.336,5.64 3.804,-14.45 3.035,-28.82 3.035,-43.59 -2.442,-48.1 4.055,-91 5.105,-137.96 0.586,-26.11 1.672,-53.55 -10.996,-48.18 -19.976,8.48 -13.14,-13.91 -10.613,-40.85 l 5.773,-22.27 -2.472,-31.38 4.133,-48.68 4.949,-19.81 -4.949,-14.86 11.55,-13.2 12.383,-24.77 14.844,-52.81 -2.473,-28.89 h -6.597 l -9.075,5.78 6.59,-25.6 14.574,-75.35 c 6.747,-34.91 15.379,-69.27 22.606,-103.98 4.348,-20.9 1.379,-32.48 14.68,-41.32 12.546,-8.3 18.32,-17.33 21.89,-29.07 3.762,-12.38 10.547,-14.69 20.199,-15.41 3.973,-0.28 31.727,-2.76 30.262,1.12 -5.117,14.92 -8.555,24.25 -0.996,26.27 20.215,5.39 16.691,-16.88 12.981,-28 0,0 16.503,0.81 23.101,0.81 6.606,0 31.359,4.13 31.359,4.13 l -4.953,9.08 c -0.894,17.21 -0.183,28.61 -8.25,43.75 l -8.254,25.58 -3.296,27.24 c -10.039,30.14 -14.778,62.61 -16.68,94.49 -0.981,16.27 1.426,23.7 8.98,34.94 7.793,11.59 28.911,11.08 41.653,14.54 l -32.305,11.18 c -16.543,5.73 -37.051,6.3 -42.219,17.57 -5.984,13.09 1.992,14.06 12.082,11.83 8.36,-1.86 14.192,-9.49 18.711,-10.67 l 43.137,-12.83 c 12.891,-3.82 18.062,-13.19 26.883,-23.23 l 20.644,-18.15 23.106,-19.81 27.234,-27.22 c 0,0 12.375,-13.22 17.336,-18.99 4.949,-5.78 12.383,-24.76 12.383,-28.89 0,-4.13 -0.828,-21.46 -0.828,-21.46 4.375,-12.78 20.164,-57.89 -4.953,-40.45 -8.274,5.75 -16.856,43.41 -23.719,70.03 -3.781,14.68 -5.324,20.15 -13.496,25.79 -22.707,15.67 -36.34,20.88 -43.672,45.32 -4.016,16.06 -8.313,19.79 -17.813,20.82 -20.519,2.26 -29.796,-8.73 -36.464,-23.4 -4.075,-8.96 -4.172,-10.74 -0.012,-14.68 4.687,-4.46 7.363,-12.39 8.484,-21.69 2.539,-21.15 2.473,-40.18 4.055,-59.79 1.543,-19.08 5.559,-38.28 9.805,-57.33 4.714,-21.22 9.035,-30.24 0.683,-50.1 16.68,5.2 32.117,11.44 48.449,15.83 21.825,5.87 18.789,-0.68 10.907,-8.37 -11.953,-11.66 -28.457,-17.97 -45.618,-22.43 -25.625,-6.66 -50.964,-9.04 -76.726,-9.86 -21.688,-0.68 -43.035,0.45 -64.453,3.03 -11.121,1.35 -10.813,3.84 -16.731,13.39 -6.941,6.96 -9.734,13.04 -19.695,13.04 -23.086,1.44 -42.598,9.95 -60.723,21.32 -46.152,28.95 -75.183,67.75 -99.57,111.64 -18.894,33.98 -29.805,67.08 -35.574,102.62 -8.137,50.07 -7.785,101.73 -4.36,152.67 1.067,15.61 2.407,31.15 3.879,46.54 l -4.968,3.32 0.867,15.59 11.57,45.86 c 10.109,0 9.543,10.46 8.07,19.04 -0.492,2.87 -0.058,5.53 -0.39,7.52 l 6.824,26.79 c 8.828,34.62 17.207,68.66 23.75,103.28 8.547,45.34 10.945,90.71 9.719,136.1 -1.125,41.49 -3.449,80.73 -11.301,120.12 -12.195,61.22 -28.477,113.73 -62.793,165.37 18.23,-84.24 16.777,-164.88 -1.594,-249.01 -9.468,-43.38 -21.863,-85.91 -34.578,-128.37 -12.48,-41.68 -28.8007,-81.15 -44.9217,-121 -8.6797,-21.46 -16.9727,-42.65 -23.9336,-64.72 l 4.4804,-26.8 C 39.0234,1663.73 28.0195,1626.87 18.6914,1587.5 13.75,1566.59 9.79688,1545.52 5.95703,1524.4 1.5625,1500.18 0,1475.91 0,1451.62 c 0,-48.64 8.83984,-91.75 15.6523,-137.63 4.8946,-32.96 12.8321,-60.89 23.7813,-86.6 23.6719,-55.59 66.1134,-114.82 111.9454,-161.44 11.043,-11.26 22.305,-21.77 33.516,-31.32 18.132,-15.37 -10.832,-9.24 -16.622,-7.4 25.321,-24.65 29.5,-33.269 36.864,-71.511 12.668,46.861 -5.696,30.07 18.906,51.141 7.539,6.44 7.258,-51.739 9.504,-61.622 3.769,-16.629 -5.332,-13.25 -17.551,-13.027 l 0.535,-8.691 c 18.149,-4.071 18.489,-7.969 18.489,-24.668 -0.989,-6.59 -0.215,-11.973 -3.418,-16.102 -9.219,-11.91 -6.153,-17.16 1.836,-28.391 3.554,-21.179 9.558,-39.629 25.339,-57.218 -18.425,-18.7 -16.55,-32.27 -9.746,-50.493 6.172,-16.527 17.246,-31.429 27.688,-46.097 2.097,-2.922 14.219,-20.731 18.008,-16.731 2.265,2.41 -9.707,20.539 -12.969,25.95 0,0 -15.84,26.21 -15.84,32.57 0,6.332 -12.688,16.68 -12.688,16.68 5.668,11.351 12.141,10.039 16.348,3.871 7.777,-11.332 11.106,-28.141 18.235,-42.012 9.609,-18.77 19.167,-31.789 33.554,-46.879 0,0 12.871,-11.578 16.629,-15.891 10.461,-11.961 6.34,-13.918 0.512,-12.449 -2.278,0.59 -4.817,1.699 -6.848,2.93 -7.324,4.441 -34.062,27.801 -33.269,23.82 1.66,-8.269 10.457,-17.57 17.175,-25.18 12.825,-14.57 23.543,-17.429 40.235,-17.089 10.984,0.25 14.25,7.25 10.176,13.558 -8.731,13.571 -19.844,27.641 -23.457,42.289 -13.907,8.043 -18.25,13.051 -23.536,25.364 0,0 -15.058,24.628 -16.629,28.589 -3.585,8.969 0.008,10.77 5.36,11.09 8.683,0.489 17.805,-0.152 26.777,-0.781 14.168,-0.969 13.34,-1.289 20.93,-13.469 l 3.965,-8.75 c 5.808,-3.883 8.457,-6.801 10.008,-10.429 5.937,-13.981 4.863,-14.981 -8.426,-14.981 -11.848,-7.133 -8.774,-11.723 -1.821,-17.383 9.153,-7.449 11.79,-15.058 8.95,-25.527 7.031,-8.223 11.375,-15.582 15.847,-24.492 6.778,-13.598 19.18,-24.629 27.715,-37.469 2.625,-12.281 4.922,-13.02 15.059,-20.66 8.34,-17.192 11.418,-30.969 -0.496,-22.32 -13.555,9.8 -17.168,26.769 -31.196,38.199 -0.293,-9.77 -5.562,-14.449 -6.336,-21.449 11.172,-2.79 18.489,-13.168 22.707,-24.04 13.524,-34.832 -12.914,-18.851 -24.281,-6.929 14.004,-32.371 25.461,-25.711 52.27,-15.11 13.203,2.789 -0.539,11.18 2.508,20.68 1.328,4.168 7.187,4.168 10.339,6.867 l 5.762,11.442 c 3.332,6.59 9.152,4.968 14.731,1.621 3.804,-2.313 7.507,-5.403 10.242,-7.242 0,0 20.195,-11.61 23.761,-13.5 19.254,-10.231 7.723,-22.258 -4.074,-22.789 -21.484,-0.942 -43.828,-1.989 -65.676,-7.969 -24.929,-6.832 -43.203,-20.512 -59.324,-38.36 -3.738,-4.152 -6.511,-9.761 -8.625,-15.742 l -0.093,0.063 -10.942,-18.953 c -0.879,-1.508 -6.18,-8.321 -8.191,-10.797 -16.551,-20.364 -26.758,-24.93 -35.594,-52.5 v 0"
         style="fill:#1d1b19;fill-opacity:1;fill-rule:evenodd;stroke:none"
         id="path12" /></g></g></svg>
