<?xml version="1.0" encoding="utf-8"?>

<!DOCTYPE svg PUBLIC "-//W3C//DTD SVG 1.1//EN" "http://www.w3.org/Graphics/SVG/1.1/DTD/svg11.dtd">
<svg version="1.1" id="Layer_1" xmlns="http://www.w3.org/2000/svg" xmlns:xlink="http://www.w3.org/1999/xlink" x="0px" y="0px"
	 viewBox="0 0 1856 1700.121" enable-background="new 0 0 1856 1700.121" xml:space="preserve">
<g>
	<path d="M715.493,52.016c11.483-4.008,31.666-2.166,46.111,8.433c7.492,5.539,34.182,14.986,24.429,70.67
		c-1.279,6.656-3.08,17.55-23.259,31.673c48.125,60.486,123.141,119.78,138.205,125.417c20.679,7.289,76.034-58.163,88.956-75.029
		c-10.697,0.782-36.389-9.608-40.659-25.73c-6.478-28.449-7.392-52.282,20.991-61.02c19.483-5.881,38.482,0.125,52.975,11.188
		c11.758,9.063,23.036,37.834,11.718,52.418c-4.172,5.555-16.839,16.814-24.383,20.262c14.49,8.963,32.476,32.222,80.673,41.019
		c-0.434-0.418-0.817-0.817-1.224-1.22c1.681,0.879,3.733,1.274,5.536,0.476c6.102-2.6,29.133,9.573,76.176-58.998
		c-13.794-4.518-6.749-5.967-27.594-13.989c3.399,1.055,6.776,2.275,10.313,2.824c-23.643-28.181-20.228-49.381-8.368-61.573
		c3.162-3.312,2.315-6.214,9.519-12.623c17.706-16.856,41.142-13.124,54.989,2.16c3.388,3.81,29.26,19.479,15.508,55.676
		c-6.71,17.337-18.592,29.167-36.734,30.668c-3.055,52.339-7.005,103.677-18.182,151.139c10.878,1.808,17.698,11.266,22.384,21.202
		c11.28,25.24-3.806,36.271-12.082,46.721c9.944,19.039,14.134,66.145,14.4,75.938c18.555,0.217,38.865,44.104,21.283,61.17
		c39.027,36.825,67.322,97.768,76.111,147.939c0.717,0.038,1.485-0.008,2.195,0.272c4.104,12.422,0.8,82.911-0.307,99.569
		c16.104,0.563,13.298-0.14,25.442-1.443c0.026-0.923,1.338-20.427-1.765-38.399c-3.032-18.493-4.067-14.607-3.238-19.483
		c-0.441-0.645-0.833-1.324-1.17-2.003c9.684-23.182,137.139-31.199,173.477-28.227c152.437,13.68,246.334,86.827,245.567,104.553
		c0,0-30.496,50.016-36.546,129.653c6.26-5.646,83.424,11.109,94.42,0.856c-0.599,0.898-1.186,1.803-1.75,2.72
		c3.917-0.43,7.881-0.698,11.741-1.546v0.061c-3.783,0.967-7.689,1.293-11.503,2.072c-1.713,0.038-2.068,5.937-4.554,9.776
		c-3.402,5.454-29.539,27.288-68.184,39.496c2.781,1.729,12.239,9.609,20.642,19.771c7.691,8.483,20.774,14.805,38.694,32.517
		c1.892-0.077,3.799-0.081,5.709,0.011c-1.842,0.019-3.68,0.05-5.506,0.134c2.216,3.516,1.812,4.499-2.563,2.996
		c-1.775,3.848-22.262,7.643-36.158,3.319c-1.201-0.395-2.467-0.679-3.714-0.434c-1.437,0.22-29.049,3.417-79.138-10.735
		c-44.807-13.799-42.489-13.419-73.386-36.814c0.725,2.16,1.681,4.24,2.455,6.392c-5.811-12.499-5.043-6.94-10.939-15.865
		c-4.974-6.828-1.587-7.201,3.622-17.527c-9.456,8.357-6.691,7.683,4.938-31.155c-1.001-0.027-1.98-0.05-2.95-0.081
		c0.99-0.027,1.984-0.035,3-0.023c3.781-11.898,3.873-11.949,5.391-13.509c-34.705-13.47-178.765-44.756-210.184-47.918
		c6.189,1.684,11.725,5.065,17.622,7.505c4.313-4.155,7.895,0.017,7.969,3.092c0.204,10.126-2.369-6.456,2.099,44.607
		c0.909,0.019,2.252-0.104,2.521,1.07c-0.257,1.182-1.427,1.803-1.999,2.801c-0.338,0.821-0.53,1.692-0.718,2.567
		c-0.388-0.552-0.856-1.044-1.331-1.473c-28.388,17.704-132.498,21.267-142.28,8.284c-4.324,11.338-10.187,22.004-14.994,33.135
		c0.83,3.434,23.363,66.496,8.007,90.564c-12.746,20.195-32.857,44.181-56.056,60.311c0.028,10.645-11.121,160.937-17.534,196.014
		c85.369-20.242,180.083-35.474,266.919-21.125c4.399,0.961,7.879-1.663,10.513,1.819c-7.502,11.198-88.486,31.727-138.485,62.95
		c23.286,0.868,99.186,14.611,129.243,26.712c1.907,0.714,4.125,1.504,6.058,0.407c-8.322,7.992-94.409-15.758-134.764-18.044
		c-5.56-0.424-7.532-0.581-10.877-3.683c-4.724,2.65-6.306,4.199-8.234,4.063c2.515-17.677,116.308-66.917,145.522-72.984
		c-134.625-4.927-268.624,29.826-269.013,29.889c-0.226,0.483-0.449,0.967-0.641,1.485c25.394-8.901,47.198-4.309,116.42-12.608
		c-82.622,11.895-83.801,17.169-119.236,19.314c-0.971,1.853-1.734,3.81-2.655,5.694c31.941-10.575,59.039-6.438,137.607-16.598
		c-0.001,0-20.919,3.034-35.724,5.391c-36.334,5.988-61.222,12.78-79.007,15.343c-31.458,4.829-26.338,2.247-30.905,10.521
		c16.508-6.83,32.201-10.457,132.208-17.392c-60.087,7.274-56.651,11.526-135.055,22.503c-0.622,0.706-1.013,1.573-1.462,2.402
		c2.141,0.545,4.267,1.159,6.396,1.78c25.479-9.562,59.718-9.107,80.231-9.979c12.898-0.485,36.707-2.444,36.707-2.444
		c-50.38,4.435-68.345,12.122-109.176,14.626c4.589,1.381,9.266,2.486,13.828,3.971c24.305-10.5,76.435-8.728,94.742-10.137
		c4.477-0.161,8.924-0.829,13.41-0.833c-36.804,2.604-49.701,11.073-100.643,13.095c28.741,8.653-19.356,0.73,99.496-5.065
		c-26.077,2.857-36.585,6.135-57.939,8.057c-8.345,0.875-16.755,1.124-25.066,2.287c16.201,5.573,7.71,4.369,15.531,3.622
		c16.18-2.682,32.613-4.109,49.015-3.53c-2.509-0.054-5.034-0.104-7.516-0.418c8.794,0.395,17.588-0.376,26.37-0.779
		c-21.828,1.8-52.98,7.199-67.455,7.417c22.758,9.248,2.729,0.386,69.319-0.503c-19.149,0.879-38.019,4.612-57.111,6.139
		c10.808,5.545,7.456,0.901,11.541,5.387c1.712-0.136,43.069-6.211,43.82-6.419c0.011,0.146,0.05,0.322,0.088,0.518
		c-0.096-0.034-36.314,5.829-43.755,6.434c0.233,3.169,0.131,3.275-2.962,6.995c6.903-0.188,12.159-0.926,41.104-6.058
		c-34.903,7.617-38.721,6.073-41.276,6.442c-3.365,4.428-6.078,9.327-8.714,14.219c2.364-0.89,4.903-0.879,7.397-0.806
		c0.809-2.634,0.67-4.615,7.298-6.177c85.567-18.76,199.932-19.313,200.316-19.357c0,0-163.822,18.511-195.539,26.566
		c2.609,0.023,5.23-0.173,7.835,0.146c-22.328,3.167-18.681,6.943-30.595,6.5c-3.864,8.134-5.982,16.939-8.219,25.622
		c-17.736,73.306-2.511,118.122-0.894,119.39c-4.112,11.483-131.121,56.354-270.249,60.932
		c-198.37,1.956-330.139-51.419-335.436-58.108c-3.023-3.309,0.204-8.579,7.102-5.958c151.03,58.795,317.91,66.888,460.681,39.327
		c35.591-6.859,97.155-20.257,133.782-34.884c-25.541-32.501-10.985-128.808,15.489-169.717c-1.738,1.374-3.587,2.59-5.487,3.729
		c0.153,0.484,0.33,0.994,0.514,1.508c-3.188-0.646,0.775-1.943-11.53,4.639c-2.624,1.477-5.487,2.563-7.919,4.359
		c-16.988,5.669-13.319,16.497-132.089,36.641c-251.268,42.952-481.785-37.992-478.223-54.536c-1.109-0.284-2.221-0.56-3.319-0.829
		c-0.434,0.599-1.6,1.178-1.024,2.045c1.266,2.452,3.948,3.994,4.646,6.795c3.747,15.052,10.442,24.627,14.211,43.383
		c7.132,36.151,14.916,87.938-1.178,120.894c-2.579-2.83-0.607-13.808,0.234-32.808c0.645-83.587-17.876-113.891-20.017-120.848
		c-2.677-5.966-128.211-33.49-146.151-36.607c-59.418-11.659-63.024-7.824-72.861-8.521c5.644,0.061,11.246-0.74,16.874-1.063
		c10.314-1.593,3.595,1.057,14.806-7.332c6.284-4.469,57.923-12.378,65.421-13.444c19.349-2.599,22.815-1.526,41.173-0.61
		c-12.808-5.575-115.371-45.333-133.617-49.594c-2.479-0.576-5.268-1.247-6.814-3.453c-0.671-0.817-1.001-2.275-2.298-2.095
		c0.084-0.096,0.253-0.288,0.338-0.384c-0.825-0.249-1.646-0.487-2.471-0.698c7.282-1.224,1.738-2.062,10.317-3.307
		c34.409-17.644,30.487-15.835,109.475-9.746c56.155,5.758,121.402,15.045,170.895,42.769c-8.518-22.65-4.148-31.764-3.618-80.515
		c0.6-28.081-11.641-140.339-11.641-140.339c-53.896-28.228-74.809-76.063-41.219-132.719c9.671-17.898,7.222-3.567-8.241-44.242
		c-4.978,6.266-77.275,7.134-85.887,7.301c-34.857,0.121-42.837-1.386-55.572-8.548c-0.28,0.042-0.844,0.123-1.124,0.165
		c-0.748-0.967-1.308-2.056-2.003-3.046c0.192-0.142,0.572-0.422,0.764-0.564c0,0,1.32-17.461,1.201-49.805
		c-3.372,1.527-6.503,3.534-9.914,4.972c3.392-1.615,6.645-3.511,9.964-5.272c-0.054-3.887,0.15-7.793-0.483-11.645
		c-87.206,5.03-181.503,36.018-183.802,36.63c-0.081,0.718,5.1,26.69,22.453,67.248c4.058,11.605-82.425,80.256-196.248,59.359
		c-21.714-3.82-4.716-1.095-32.206-10.755c2.947,0.794,5.962,1.316,9.016,1.45c-0.324-4.969,3.159-2.939,25.411-12.401
		c19.107-8.509,21.998-8.946,47.3-28.55c0,0-21.331-8.295-44.526-19.234c-16.382-8.097-25.045-14.543-42.631-22.25
		c-6.976-2.823-3.471-9.281,0.817-8.698c25.621,3.048,91.392-13.286,96.745-14.461c4.122-37.375,0.072-54.125-3.752-65.69
		c-13.756-38.036-43.339-67.813-30.875-72.454c3.551-1.889,1.653-2.115,5.529-5.959c78.95-78.297,291.367-111.366,395.566-73.482
		c9.798,3.442,22.937,8.701,17.212,16.982c2.753,5.716-2.328,12.734-3.806,25.334c-0.863,7.21-1.793,35.072-0.073,49.403
		c3.008,0.748,5.92,1.819,8.882,2.743c9.911,3.274,20.691,4.912,25.373,6.319c-4.113-51.374-0.797-37.487-3.787-52.971
		c0.414,0.457,0.706,0.99,1.051,1.531c-0.05-4.466-0.046-8.928-0.061-13.394c-0.783-0.252-8.568-3.791-9.358-4.639
		c-0.871-0.867-1.047-2.179-1.865-3.077c-18.309-17.276-17.013-25.419-16.97-31.581c0.082-4.895,2.021-12.423,6.43-18.382
		c-2.379-3.078-2.637-5.613,1.124-7.762c-16.201-17.281-29.227-41.834-38.153-63.994c-24.258,3.095-46.067-41.891-17.833-55.799
		c-0.246-0.409-45.143-71.424-75.243-129.204c-3.511,1.358-7.294,1.73-11.012,2.076c-14.842,1.611-23.257-3.713-33.491-10.931
		c-37.64-24.576,1.843-102.617,48.885-72.312c31.596,19.71,31.623,53.909,9.151,73.72c37.464,18.848,41.584,18.627,62.394,19.472
		c18.262,1.515,30.223,2.842,46.134-29.117c13.701-27.378,18.215-59.496,24.655-80.181c-8.678,1.819-13.432,3.772-20.934,1.37
		c-24.277-6.798-35.167-32.693-32.482-46.068c4.847-30.03,44.614-36.171,52.019-34.938c29.51,4.134,33.149,25.704,36.956,33.702
		c1.562,3.772,3.553,7.367,4.842,11.249c-1.769-4.228-3.979-8.272-6.688-11.971c2.445,16.091-3.874,30.267-13.256,37.731
		c-0.704,0.258,25.355,14.532,50.623,22.691c25.581,7.972,60.375,9.932,68.706,7.232c-0.054-0.184-0.165-0.553-0.219-0.737
		c0.146,0.142,0.441,0.418,0.587,0.56c22.866-17.875,41.112-148.762,40.428-182.847c-21.755,3.382-30.559-3.422-46.836-17.273
		c-0.184,0.05-0.552,0.153-0.737,0.203c0.176-0.096,0.526-0.284,0.702-0.376c-3.708-3.382-11.313-12.313-16.694-21.87
		c-6.578-11.435-5.801-22.018-1.266-33.177c2.766-6.979-2.24-14.121,20.937-35.464C703.845,57.99,709.289,54.134,715.493,52.016
		 M728.995,65.579c-31.346,1.338-33.438,15.37-40.087,30.081c-0.452,0.93,2.721,28.775,9.208,40.175
		c14.543,24.937,21.766,19.061,32.033,22.154c4.324,1.27,8.959,1.562,13.387,0.721c2.436-1.709,1.714-3.36,7.271-1.408
		c31.755-11.449,35.331-88.798-5.352-91.485C739.983,65.295,734.478,65.429,728.995,65.579 M1175.157,112.085
		c-5.466,1.527-18.591,7.215-20.439,12.493c-5.592,17.283,0.827,47.349,24.885,55.181c3.614-1.818,6.018,0.014,6.749,2.333
		c1.045,6.464,54.441-15.676,20.65-63.633C1201.931,110.481,1182.348,110.418,1175.157,112.085 M984.921,134.25
		c-16.599,1.92-29.491,16.738-28.381,37.927c1.337,13.68,0.595,22.49,32.613,30.572c11.963,3.51,35.946-4.049,33.449-29.82
		C1022.288,168.837,1013.908,132.274,984.921,134.25 M752.269,167.979c-1.229,42.293-12.578,147.94-40.152,179.911
		c-1.036,1.397-2.674,2.31-3.353,3.967c-2.314,4.946-7.539,7.85-12.742,8.794c-49.119,9.289-95.11-17.267-124.013-31.535
		c-0.625,0.249-1.251,0.495-1.872,0.748c-0.568,10.698-18.444,120.868-63.346,121.27c-4.688,0.53-27.838-0.569-36.089-2.037
		c-11.22-1.341-41.895-16.733-42.285-16.92c8.428,16.99,20.381,37.559,25.277,46.299c2.285,3.774,3.313,8.584,13.997,12.895
		c57.25,23.246,85.967-2.725,111.21-66.783c9.306-24.439,4.307-26.518,10.202-35.003c-5.044-5.656-0.211-9.014,2.494-8.84
		c2.195,0.196,3.687,2.003,5.433,3.135c18.4,11.946,113.874,33.115,143.228-1.673c28.582-33.859,34.899-88.914,49.89-123.342
		c10.576,4.889,15.171,8.163,18.793,10.628c117.898,84.239,146.919,47.212,183.714,10.198c1.189-1.27,2.962-1.845,3.994-3.292
		c2.924-3.841,6.123-7.455,9.354-11.035c24.241,8.905,72.954,75.33,165.404-9.151c0.312-0.384,7.326-52,7.873-57.602
		c-7.625,14.039-32.878,45.286-52.472,55.96c4.278,0.161,8.487-0.875,12.646-1.765c-38.156,10.757-32.302,11.56-66.35,4.424
		c-24.394-5.743-52.668-27.043-72.186-44.411c-13.29-0.13-1.58-2.04-26.282,28.96c-12.372,15.25-46.418,57.207-67.65,56.244
		c-3.645-1.707-7.363-3.265-11.084-4.792c0.222-0.499,0.437-0.998,0.687-1.485c-34.337-9.66-113.534-87.225-142.05-124.523
		C753.773,167.465,753.013,167.722,752.269,167.979 M548.366,264.348c-53.679,21.106-16.743,70.135,17.549,57.115
		c1.028-0.353,0.767-1.581,0.848-2.425c1.26,5.614,29.474-9.983,17.592-40.662c-3.958-10.635-16.56-14.3-27.706-15.113
		C553.856,262.859,550.956,263.209,548.366,264.348 M1170.004,268.496c-14.385,16.846-40.193,30.197-63.484,36.031
		c0.115,0.169,28.112,56.502,28.657,58.02c3.323-1.972,21.317-13.034,26.992-16.59
		C1162.11,312.348,1164.62,316.028,1170.004,268.496 M790.011,269.34c-0.078,11.753,2.517,16.931-17.085,71.852
		c-9.361,25.397-22.716,52.913-48.129,62.697c-37.688,14.846-107.996,1.776-130.559-10.839
		c2.203,29.584-27.602,82.826-46.759,99.864c-13.067,12.02-22.141,12.274-33.756,14.91c-11.506,1.981-13.317,5.25-47.745-7.094
		c6.519,11.63,6.624,11.53,7.432,11.457c24.81,3.343,82.531-3.769,106.675-7.278c-26.235,4.248-55.243,7.883-81.789,8.905
		c24.143,0.8,58.145-1.467,61.182-1.577c1.404-0.664,2.958-0.272,4.454-0.338c-1.174-0.015-2.36-0.023-3.445,0.46
		c-5.494-0.046-10.962,0.836-16.46,0.783c-17.167,2.654-62.925,0.214-69.5,1.784c1.615,3.062,3.61,5.909,5.498,8.809
		c81.829-4.696,110.987-12.069,121.143-13.049c-80.213,13.614-91.731,11.965-120.947,13.306c1.646,2.555,3.15,5.199,4.735,7.796
		c50.577-0.601,148.45-19.908,148.833-19.947c-0.989,0.17-105.683,22.616-148.565,20.247c8.295,15.075-2.292,17.974,134.338-7.221
		c-4.334,0.6-97.193,23.07-127.171,18.938c1.732,3.132,6.578,9.751,7.451,12.6c190.87-14.257,362.028-60.985,498.116-124.328
		c-27.208-61.038-39.001-80.558-51.755-105.075C885.761,344.342,805.112,275.402,790.011,269.34 M996.401,285.147
		c0,0,23.313,40.992,59.232,119.961c4.746-2.195,9.339-4.712,14-7.079c-0.665-0.687-56.435-117.394-58.185-118.553
		c-2.479-1.815-4.869-3.752-7.351-5.552C1001.768,277.819,999.194,281.568,996.401,285.147 M1016.06,282.83
		c0.198,0.384,50.655,95.127,56.002,113.853c2.129-1.163,4.278-2.287,6.388-3.484c-11.583-28.974-44.677-99.945-47.419-101.054
		C1025.813,289.422,1020.818,286.291,1016.06,282.83 M980.954,303.265c-6.108,6.477-13.049,12.14-20.504,16.989
		c22.574,32.355,49.265,97.542,51.428,105.19c0.277-0.123,20.289-9.284,20.784-9.546c-0.201-0.394-52.873-104.127-51.444-105.075
		c5.3-1.623,53.079,103.982,53.362,104.38c6.327-3.085,12.784-5.916,19.077-9.082c-25.057-54.033-57.771-120.146-57.771-120.146
		C991.102,291.9,986.237,297.774,980.954,303.265 M1034.573,294.064c2.462,4.621,21.948,37.118,46.713,97.65
		c2.555-1.335,5.076-2.747,7.635-4.09c0,0-39.752-86.783-39.753-86.785C1044.234,298.726,1039.35,296.508,1034.573,294.064
		 M1052.583,302.179c15.276,26.999,38.243,79.096,39.166,83.876c1.159-0.683,2.352-1.316,3.507-2.018
		c-4.165-8.036-30.513-77.928-30.656-78.313C1060.521,304.811,1056.481,303.687,1052.583,302.179 M1095.785,306.553
		c0.437,0.806,0.925,1.596,1.439,2.367c-0.084-0.859-0.142-1.715-0.173-2.567C1096.622,306.415,1096.177,306.476,1095.785,306.553
		 M1068.394,306.442c15.304,24.986,23.847,54.549,33.53,74.108c0.445-0.261,0.894-0.518,1.37-0.771
		c-0.025-0.04-27.6-68.261-28.841-72.362C1072.484,306.964,1070.366,306.971,1068.394,306.442 M1088.353,307.481
		c2.233,3.3,3.814,6.994,5.92,10.359c-0.925-3.553-1.892-7.098-2.651-10.689C1090.517,307.209,1089.431,307.316,1088.353,307.481
		 M1078.236,307.574c21.472,42.474,23.293,47.381,23.293,47.381c-3.428-9.043-14.706-36.808-17.277-47.377
		C1082.245,307.581,1080.239,307.577,1078.236,307.574 M946.434,326.876c10.27,19.867,20.661,35.038,51.831,105.067
		c3.963-2.018,8.057-3.779,12.04-5.767c-5.826-10.632-21.952-52.943-50.462-105.569
		C955.619,323.174,951.161,325.407,946.434,326.876 M1161.939,353.807c-18.078,15.75-19.21,12.398-54.268,35.103
		c4.774-3.592,11.912-8.387,12.293-9.573c0,0-39.877,24.931-59.908,32.851c-9.962,3.761-6.288,3.225-8.552,5.249
		c-14.659,7.089-13.784,6.064-49.633,22.986c0.441,1.243,1.032,2.436,1.354,3.729c-0.595-1.189-0.975-2.486-1.746-3.572
		c-63.239,30.702-132.769,53.133-203.047,73.509c-136.808,37.869-143.281,34.961-288.159,51.636
		c-10.192,0.792-10.596-1.139-13.302,0.192c-2.42,1.52-8.691,3.392-9.715,10.628c-2.919,15.176,8.853,29.017,22.265,28.853
		c1.316,0,2.682-0.434,3.952,0.119c8.632,3.672,82.422-3.937,97.716-6.749c6.479-1.188,98.763-2.037,249.016-49.817
		C983,512.506,1102.567,454.229,1154.45,419.163c26.429-18.173,51.579-27.424,17.396-66.868c-0.764-1.868-2.122-3.772-4.293-4.006
		C1165.765,350.212,1163.892,352.057,1161.939,353.807 M396.77,350.661c-6.608,1.906-18.235,4.862-25.496,17.818
		c-6.749,11.624-6.94,29.902-4.217,36.269c2.34,6.573,23.22,16.327,33.108,17.63c37.472,1.193,53.682-52.273,6.864-70.271
		C403.753,350.968,400.254,350.039,396.77,350.661 M1125.014,368.164c0.353-0.188,0.718-0.368,1.097-0.541
		c-1.908-2.241-4.743-9.174-7.62-14.446C1120.586,358.204,1122.988,363.104,1125.014,368.164 M1116.189,371.099
		c-0.303,0.518-0.395,1.558,0.296,1.815C1117.164,372.615,1116.6,371.36,1116.189,371.099 M1109.674,375.619
		c-0.357,0.322,0.057,1.101,0.533,0.813C1110.668,376.122,1110.116,375.297,1109.674,375.619 M1173.365,410.127
		C1173.557,410.331,1173.557,410.331,1173.365,410.127 M1151.434,431.924c-7.75,13.938-7.14,46.629,14.188,64.512
		c12.771,8.141,11.012,7.648,14.062,7.635c2.421-2.939,2.743-6.879,3.856-10.386c10.576-34.7-17.267-66.434-26.42-65.218
		C1154.895,428.874,1152.562,429.845,1151.434,431.924 M1109.007,456.242c-14.068,7.66-23.9,11.188-27.46,20.393
		c11.019-12.51,39.546-16.24,48.002-0.955c0.833,1.397,0.641,3.161,1.592,4.52c-0.56-0.568-1.331-0.783-1.984-1.159
		c-0.714-0.606-1.305-1.328-1.945-1.987c-3.414,1.283-4.238,3.661-11.476,4.6c0.898,0.852,1.75,1.765,2.429,2.82
		c3.511-1.37,7.129-2.759,10.969-2.621c-0.281,2.168-7.852,2.858-10.44,3.181c1.761,3.518,3.534,7.321,3.077,11.368
		c-6.068,47.653-136.088,17.133-155.67,26.42c-47.506,19.105-39.342,12.454-44.008,17.845c-2.654,3.526-9.27,8.97-14.388,22.411
		c-0.786,1.989-3.656,8.674-2.233,11.142c5.697,10.078,4.933,11.212,8.038,18.106c21.211,12.859,43.515,12.781,66.365,3.131
		c-30.188,15.66-30.01,2.89-44.844,19.61c3.687,1.696,7.846,1.799,11.829,2.156c1.577-1.884,3.549-3.411,4.957-5.448
		c1.68-2.475,3.725-4.692,6.135-6.477c-9.554,11.559,1.46-0.208-10.766,11.898c43.107,0.183,56.881-20.403,53.124-39.531
		c-10.152,6.104-26.116,8.597-32.701,8.491c-29.479,0.779-36.849-22.666-12.738-30.99c-5.211-1.557-19.247-4.439-19.936-6.273
		c30.053-22.778,76.936-6.514,143.546,1.028c-12.211-0.878-61.018-7.479-63.48-7.309c-0.142-0.069-0.426-0.207-0.568-0.276
		c-0.384,0.027-38.068-3.711-43.494-0.173c38.12,15.724,2.548,6.516,50.469,16.989c4.19,0.92,26.551,5.459,41.38,5.18
		c23.816,0.185,57.567-22.466,61.316-26.957c14.441-15.596,24.246-54.302,11.303-68.383c-1.307-1.6-10.294-11.382-13.007-12.324
		c-3.2-1.477-6.699-1.918-10.171-2.129C1111.079,454.953,1110.07,455.666,1109.007,456.242 M1141.132,464.602
		C1141.332,464.802,1141.332,464.802,1141.132,464.602 M1086.009,468.922c1.017-0.388,1.98-0.963,2.72-1.78
		C1087.762,467.599,1086.485,467.856,1086.009,468.922 M1092.186,472.099c-7.269,2.961-12.619,6.912-14.753,15.393
		c11.028-7.628,23.099-9.283,23.489-9.396c7.861-4.061,12.883-7.69,15.865-7.509c-0.276,0.323-9.393,5.871-13.778,7.562
		c5.23-0.22,3.418,1.145,7.493-0.79c3.833-2.114,8.065-3.798,12.504-3.818C1113.179,467.145,1103.092,467.595,1092.186,472.099
		 M1122.213,474.923c-3.683,1.278-7.094,3.277-10.877,4.263c1.159,0.541,2.248,1.308,3.491,1.661c3.622-1.822,7.09-4.408,11.273-4.7
		c-0.518-0.495-1.047-0.967-1.573-1.42C1123.744,474.731,1122.942,474.624,1122.213,474.923 M1191.298,504.152
		c-2.361,0.289-0.05-2.643-6.503,4.501c-131.856,119.649-479.13,216.173-624.731,181.201c-1.596-0.284-3.173-0.925-4.792-0.859
		c-14.614,18.529-4.651,31.53,14.146,45.539c1.193-1.308,3.346-2.314,4.915-1.028c1.42,1.143,3.71,1.358,4.228,3.373
		c53.204,10.232,357.178-21.5,510.168-112.345c-0.238-0.054-0.71-0.157-0.948-0.207c3.841,0.985,97.022-55.661,117.471-70.678
		c0.748-1.83,0.426-4.036,1.339-5.855c1.235-2.229,4.044-2.862,5.383-4.999c2.879-4.319,7.066-17.795-8.56-35.943
		c-2.325-2.432-5.149-4.309-7.639-6.553C1195.162,502.291,1193.447,504.022,1191.298,504.152 M472.904,512.432
		c0.449,0.76,0.902,1.523,1.366,2.287c2.049-0.614,4.197-0.683,6.285-1.105C478.061,512.938,475.428,512.977,472.904,512.432
		 M1132.956,538.875c0.618,0.161,1.124-0.882,0.694-1.331C1133.248,537.716,1132.841,538.415,1132.956,538.875 M963.009,543.64
		c0.384,0.211,15.712,7.747,16.095,7.927c4.405,0.084,8.775,0.733,13.114,1.469c-8.711-3.827-20.819-10.497-22.679-10.785
		C967.337,542.574,965.188,543.203,963.009,543.64 M907.088,544.024C907.264,544.254,907.264,544.254,907.088,544.024
		 M957.142,544.906c0,0,13.904,7.178,13.905,7.179c2.183-0.038,4.336-0.495,6.53-0.529
		C957.625,541.813,962.74,544.152,957.142,544.906 M949.922,546.902c5.379,1.316,10.432,3.66,15.413,6.035
		c1.554,0.223,3.158-0.414,4.712-0.66c-0.482-0.288-11.274-5.793-14.296-6.937C953.743,545.563,951.84,546.326,949.922,546.902
		 M946.326,547.884c4.29,2.141,8.694,4.071,12.895,6.407c1.408-0.33,2.839-0.572,4.232-0.986
		C956.193,551.529,948.832,547.135,946.326,547.884 M939.182,549.967c10.714,1.742,12.844,5.727,18.912,4.527
		c-4.531-1.899-9.009-3.94-13.456-6.028C942.835,549.031,940.997,549.468,939.182,549.967 M1192.1,568.614
		c2.912,2.816-3.476,54.622,56.754,60.545c2.471,0.1,4.949,0.084,7.417,0.376c-9.842-19.372-15.815-27.3-21.947-36.039
		c3.319,4.197,6.461,8.545,9.926,12.627c-9.201-16.825-24.29-34.689-37.677-49.828
		C1201.815,560.472,1197.038,564.643,1192.1,568.614 M867.519,563.196c-2.558,0.191-19.734,3.485-27.161,13.498
		c-3.154,4.101-4.632,15.087-4.727,20.55c0.557,6.713,10.498,25.318,14.499,31.205c7.362,9.806,8.034,9.257,14.131,12.301
		c4.396,1.97,12.326,5.354,15.508,4.784c46.841-7.39,22.997-69.727,8.057-77.753C876.234,561.99,871.068,563.067,867.519,563.196
		 M1077.545,569.746c-0.357,0.084-1.228,0.192-0.967,0.737c0.556,0.28,1.147-0.249,1.673-0.445
		C1078.803,569.569,1077.752,569.566,1077.545,569.746 M1176.715,580.516c0.235,4.914-1.872,4.845,0.28,16.31
		c5.914,28.289,24.953,47.106,61.573,47.216c0.123-0.349,0.284-0.671,0.438-1.001c-0.407,1.625,11.851,0.128,12.374,0.042
		c3.686-0.377,4.184-1.166,11.702,0.652c-1.765-3.422-3.085-7.094-5.034-10.405c-20.624,16.123-74.436-13.532-73.624-58.5
		C1181.802,576.66,1179.362,578.728,1176.715,580.516 M797.252,576.844l-0.506-0.537c0.084,0.222,0.249,0.675,0.334,0.902
		c-0.39,0.041-61.389,12.559-66.304,16.901c-0.145,0.16-7.497,5.724-12.631,11.142c-2.397,2.756-12.359,16.038-23.93,26.317
		c-27.557,27.352-72.231,26.844-79.817,12.201c-5.349,2.862-11.422,5.207-17.588,4.244c0.111,3.288,1.381,6.373,3.196,9.074
		c-0.253-0.295-6.52-8.716-6.941-9.442c-6.173-10.3,0.93-21.974,7.505-27.234c4.139-3.505,21.058-12.034,30.222-13.367
		c-3.079-0.269-20.117,1.892-27.886,2.709c-10.172,4.065-30.401,22.039-30.514,40.068c-0.638,15.075,11.601,23.192,22.721,30.265
		c20.227,13.537,78.604,6.508,131.153-38.276c0,0,28.918-24.95,28.918-24.951c2.893-5.794,5.905-11.557,9.377-17.035
		c-19.861,6.901-43.898,30.955-65.034,50.001c38.807-37.854,55.397-62.102,96.599-58.465c2.678,0.249,5.199,1.243,7.382,2.801
		c0.107,0.219,0.326,0.652,0.434,0.871c0,0-1.023,1.733-10.21,11.292c9.948,3.685,11.849,20.379-2.974,30.537
		c-15.466,9.836-34.558,9.99-43.44,7.869c0.26,7.182,7.441,17.609,23.094,21.923c10.038,2.729,34.627-1.339,46.168-8.752
		c-6.694-0.383-10.83-1.179-12.661-3.752c-14.564,4.29-30.027,3.833-44.944,1.964c44.501,4.416,54.593-7.823,71.176-38.168
		c-8.887-28.385,6.709-30.9-33.257-40.528c1.22-1.12,3.012-0.898,4.547-1.09C800.022,575.735,798.617,576.533,797.252,576.844
		 M1126.744,614.391c4.958,3.701,6.089,3.155,8.679,4.612c5.441,2.677-1.571,10.251-2.145,17.055
		c-1.577,12.404,19.218,25.464,31.638,15.792c0,0,10.309-17.422,16.621-22.66c-10.984-14.212-15.218-33.071-14.772-41.583
		C1153.548,596.707,1140.814,606.591,1126.744,614.391 M715.639,595.103C715.835,595.314,715.835,595.314,715.639,595.103
		 M796.891,595.709c-1.976,3.568-4.405,6.956-7.631,9.5c1.339,0.365,2.713,0.61,4.075,0.913c2.551-3.749,4.984-7.616,8.107-10.927
		C799.93,595.441,798.414,595.629,796.891,595.709 M778.401,596.389c-1.682,2.159-0.835,1.514-6.684,11.418
		c2.348-0.652,4.681-1.381,7.087-1.803c4.18-9.241,4.947-10.129,6.235-10.033c-1.623,3.403-3.284,6.799-5.425,9.91
		c1.117-0.211,2.394-0.004,3.403-0.583c2.03-3.304,4.002-6.672,6.576-9.596C785.852,595.606,782.104,595.878,778.401,596.389
		 M791.143,595.905c-1.489,3.361-3.227,6.665-5.686,9.423c0.725-0.008,1.466,0,2.21,0.008c2.31-3.296,4.539-6.665,7.252-9.653
		C793.649,595.625,792.379,595.633,791.143,595.905 M771.085,597.966c0,0-2.497,5.119-6.377,11.579
		c1.945-3.841,4.055-7.597,5.832-11.518c-7.755,2.997-1.596-2.594-12.531,14.185c-0.89,1.55-1.991,2.993-2.659,4.666
		c4.946-3.645,10.19-7.067,16.068-8.993c2.087-3.772,3.607-7.869,6.139-11.384C775.393,596.945,773.176,597.244,771.085,597.966
		 M915.114,597.943c0.142,0.652,0.284,1.305,0.445,1.968c0.364-0.127,0.744-0.249,1.132-0.365
		C916.2,598.967,915.678,598.426,915.114,597.943 M916.15,603.395c0.05,0.506,0.111,1.021,0.188,1.542
		c1.492-0.752,2.996-1.481,4.539-2.133c-0.107-0.046-0.318-0.138-0.426-0.184C919.028,602.946,917.612,603.318,916.15,603.395
		 M999.554,604.258C999.754,604.469,999.754,604.469,999.554,604.258 M636.839,606.207c-11.899,2.893-29.544,17.812-31.888,20.891
		c4.416-1.078,8.955-1.469,13.463-1.957c7.613-9.32,24.638-17.822,47.235-16.107C657.881,602.72,650.466,604.339,636.839,606.207
		 M916.526,606.506c0.99,1.473,2.64,2.233,4.163,3.039c2.153-1.826,4.712-3.115,7.332-4.132c-1.143-0.322-2.237-0.783-3.392-1.001
		C921.951,605.186,919.296,606.107,916.526,606.506 M939.24,606.483c-3.15,2.993-7.048,5.226-11.273,6.289
		c2.202,0.921,4.462,1.715,6.76,2.386c1.504-3.014,6.858-7.789,9.093-8.955C942.29,606.299,940.736,606.188,939.24,606.483
		 M928.144,607.151c-2.456,0.56-4.819,1.423-7.09,2.498c8.322,4.876,7.035,1.69,15.178-3.085
		C929.335,606.054,932.634,606.257,928.144,607.151 M583.269,611.509C583.304,612.764,584.436,610.93,583.269,611.509
		 M1107.33,624.9c7.006-0.465,17.747-3.883,16.771-5.352c-0.357-1.082-0.564-2.202-0.599-3.334
		C1118.173,619.229,1112.567,621.734,1107.33,624.9 M519.767,617.41c9.575,23.716,24.404,42.397,31.7,57.456
		c5.81-8.14,15.841-38.617-24.344-53.742C524.539,620.146,522.207,618.665,519.767,617.41 M1106.121,625.986
		c0,0-38.949,21.533-53.75,28.093c4.543,6.798,1.383,17.63-8.426,16.859c-4.712-0.261-9.519-2.106-12.742-5.64
		c-0.595-0.491-1.082-1.681-1.988-1.082c-12.854,5.016-17.943,6.18-43.628,15.455c2.11,0.802,4.075-0.821,6.204-0.629
		c5.185-0.291,31.548,11.803,33.135,29.509c1.977,20.099-31.965,20.658-45.32,0.338c-7.855-12.937-7.875-21.781-8.56-24.187
		c-174.854,60.627-321.834,56.827-345.745,61.742c4.917,9.462-18.573,59.508-45.692,35.045
		c2.733,72.47,25.051,147.291,34.735,187.972c9.615-16.337,14.477-28.546-11.514-143.849c11.169,43.453,21.116,59.809,25.311,78.724
		c3.031-4.815,7.244-8.717,10.708-13.203c-7.555,0.208-13.829-5.051-18.106-11.756c-6.522-10.307,5.187-20.464,11.123-22.361
		c2.11-0.702,4.309-0.015,6.369,0.537c-16.188-20.161-23.835-52.369,6.546-43.651c5.184,1.512,9.561,4.965,13.16,8.898
		c-1.962-6.551-9.103-38.408,9.277-35.299c14.137,2.74,31.291,7.405,36.342,19.921c0.353-0.065,1.059-0.2,1.412-0.265
		c-1.942-3.357-5.89-8.098-6.546-17.254c-3.259-45.145,35.222-27.442,43.997-2.344c1.179-13.02,14.692-39.492,30.307-32.287
		c7.206,2.815,9.433,11.789,11.898,15.324c4.933,7.404,6.808,16.227,7.712,20.036c7.895-12.3,19.592-26.132,31.799-17.918
		c9.931,7.504,9.888,13.127,10.482,34.896c2.809-2.409,5.272-5.26,8.452-7.209c9.064-5.756,34.491-9.323,22.568,28.055
		c12.641-5.927,39.635,2.68,19.199,26.255c23.832,9.522,16.49,25.382,2.548,28.599c11.239,12.231,10.515,25.73,6.856,29.29
		c-5.612,5.235-15.788,5.929-21.486,6.3c13.351,29.633,9.32,44.297-20.466,30.326c4.518,11.568,9.515,34.892-2.475,36.753
		c-4.512,0.917-20.898-6.906-28.304-15.29c1.9,8.769,0.707,18.243-1.938,26.447c-1.535,4.876-6.116,5.809-11.184,5.341
		c-8.828-0.718-17.609-13.088-22.633-20.32c-0.134,6.388-2.44,12.581-5.797,17.956c-5.215,7.498-6.183,7.211-12.236,9.005
		c-11.634,3.436-18.005-16.711-21.406-25.86c-4.866,11.607-33.446,46.669-34.401-8.134c-3.552,1.791-8.994,7.315-17.093,9.22
		c-11.124,2.558-20.761,7.66-20.792-18.739c0.157-3.99,0.879-7.954,2.053-11.767c-14.107,11.535-34.322,9.424-36.012,2.559
		c-1.896-6.666,6.769-20.129,10.597-25.749c-6.824,2.341-12.239,0.036-18.835-5.874c2.164,14.471,4.083,18.817,0.794,26.953
		c-11.202,28.389-6.869,11.5-15.796,33.89c3.998-1.649,16.583-1.625,16.966-1.604c13.029-0.637,37.816,10.038,50.93,39.22
		c12.508,25.885-15.5,43.587-22.081,28.27c-7.393-17.164-3.399-45.248-27.445-56.255c-10.651-5.18-21.396,2.241-22.522,2.509
		c-2.053,4.184-9.108,30.144-10.298,62.613c4.374,4.799,3.77,23.104,44.319,47.753c7.413,4.589,14.864,9.228,22.929,12.592
		c0.361-0.882,0.364-1.849,0.437-2.766c1.347,0.764,1.711,2.502,2.475,3.783c2.287,0.833,4.593,1.642,6.968,2.206
		c0.384-1.945,0.506-4.029,1.481-5.786c0.203,2.271,0.929,4.435,1.546,6.619c1.918,0.537,3.864,1.001,5.824,1.393
		c0.349-0.284,0.706-0.552,1.07-0.81c0.694,0.249,1.308,0.679,1.646,1.374c1.784,0.61,3.649,1.025,5.525,1.278
		c0.073-0.226,0.219-0.683,0.292-0.909c1.31,2.836,8.692,1.405,10.636,2.233c12.04-4.799,9.832-3.449,16.686-5.859
		c0.749-0.6,3.791-5.281,8.594-2.11c46.069-9.06,86.982,26.278,85.645,28.972c-6.907-0.641-17.943-8.7-38.882-16.218
		c8.447,8.796,10.637,14.201,15.654,39.423c-1.451-5.976-13.652-32.38-29.302-42.746c-2.309-0.657-22.17-2.184-28.488-1.957
		c7.998,14.736,12.696,46.11,13.36,63.242c25.344-36.559,46.382,8.407,49.291,12.401c18.837-30.279,34.136-6.552,44.219,5.253
		c2.341-8.139,17.806-33.614,36.503-6.887c4.253-7.643,11.938-21.2,20.408-20.511c8.698,0.593,18.704,13.543,19.545,14.898
		c9.901-12.041,13.444-14.81,23.827-11.345c6.976,2.747,13.608,7.512,20.849,18.11c1.358-1.976,3.127-3.668,5.375-4.577
		c14.781-6.186,24.447-7.792,30.74,9.446c7.679-17.79,30.375-24.143,41.902-4.704c4.094-12.513,20.232-18.141,21.616-18.413
		c11.54-2.545,26.646,8.818,32.571,12.888c1.903-21.947,5.873-39.662,12.47-59.187c-2.962-0.403-26.383-3.258-28.02-1.853
		c-11.094,8.51-23.874,30.646-27.295,42.842c0.173-1.021,5.17-19.275,8.736-26.063c3.25-6.684,8.341-12.285,14.039-16.974
		c-14.275,0.264-29.867,3.996-40.954,16.099c-3.006-2.281,5.012-9.715,6.48-11.111c24.813-22.086,73.919-16.276,92.16-7.543
		c16.442,8.147,14.998,6.654,22.649,6.012c29.966-4.14,33.239-8.916,51.778-24.145c4.74-3.842,36.359-38.033,37.347-52.898
		c2.316-25.01-1.525-33.549-5.529-49.372c-4.878-1.605-1.671-4.48-13.41-6.166c-3.848-0.641-13.188,2.714-16.586,5.176
		c-20.166,13.543-13.655,58.008-34.109,53.98c-29.919-3.415-3.137-62.741,27.495-71.315c20.336-5.65,27.327,4.743,33.269,6.856
		c-17.949-58.107-1.011-57.721,8.702-128.279c2.505-18.622,2.456-31.708,2.141-34.151c0.521,3.128,0.118,28.607,0.852,42.554
		c0.772,53.876-6.922,45.395-8.544,82.503c5.673-13.881,13.691-28.425,30.345-108.942c13.51-57.945,18.676-106.664,8.633-163.536
		c-8.584,6.205-18.837,3.479-26.746-3.422c-3.314,19.282-22.826,51.456-6.987,63.418c11.278,8.119,18.733-6.8,19.207-11.177
		c-0.084-0.48,0.276-1.17-0.223-1.458c-4.213,4.435-7.578,0.94-8.268-1.27c-4.612-14.782,21.697-14.656,17.365,5.755
		c-9.313,43.519-77.488,12.607-22.622-56.773c-1.136-1.232-2.149-2.567-3.112-3.925c-3.61,34.675-39.934,32.006-43.858,8.848
		c-7.222,6.794-20.136,8.92-28.933,3.791c-10.005-5.904-14.208-23.767-13.191-35.763c-1.224,0.441-1.262,1.788-1.496,2.866
		c-0.411,1.86-4.603,20.563-8.007,28.097c-4.589,9.706-6.859,6.948-8.153,16.418c-1.14,40.065,23.656,45.494,37.351,25.12
		c4.386-6.636-1.187-14.899-5.137-9.208c5.036,8.217-10.89,11.12-9.189-0.932c1.15-8.587,13.728-15.535,21.908-5.022
		c12.415,17.135-11.998,38.03-28.131,35.817c-12.679-1.311-26.919-13.721-25.968-41.971c-38.67,28.22-75.773-26.751-39.101-43.179
		c13.704-6.487,31.162,9.514,25.553,22.065c-3.865,8.77-16.535,3.489-12.915-3.399c0.718-1.723,2.563-2.563,4.313-2.809
		c-1.336-5.089-4.35-7.012-9.703-7.892c-8.847-1.366-22.538,20.332-1.585,31.132c18.435,8.329,35.736-7.353,38.986-15.597
		c3.699-7.252,7.654-14.399,12.216-21.148c1.945-2.69,3.787-5.49,4.965-8.614c-18.038,5.716-43.533-14.452-31.001-39.542
		c-1.067-0.622-2.01-1.412-2.897-2.248C1119.351,624.585,1112.679,626.174,1106.121,625.986 M831.898,622.855
		c-0.223,1.036-0.476,2.068-0.756,3.092c0.729,0.004,1.462,0.015,2.21,0.038C832.93,624.911,832.485,623.845,831.898,622.855
		 M604.729,627.701c-1.776,1.723-2.693,4.167-3.86,6.331c4.213-1.753,8.836-1.799,13.321-1.627
		c-0.872,0.919-6.169,2.851-13.905,3.092c-0.564,1.113-1.059,2.264-1.527,3.426c4.677-1.42,9.596-1.711,14.457-1.519
		c0.154-4.524,2.502-8.499,4.984-12.132C613.699,626.013,609.126,626.461,604.729,627.701 M830.958,626.665
		c-0.441,1.42-1.036,2.789-1.439,4.224c1.838-0.483,3.756-0.407,5.621-0.694c0.203-0.982-0.875-1.98-1.155-2.977
		C832.961,627.068,831.951,626.903,830.958,626.665 M829.116,631.76c-0.537,0.679-0.836,1.504-1.216,2.275
		c2.413-0.253,4.85-0.299,7.271-0.077c0.365-0.886,0.714-1.776,0.99-2.69C833.801,631.311,831.464,631.633,829.116,631.76
		 M1180.671,639.998c-7.062,14.187-7.642,9.534-8.575,17.515c0,8.38-1.015,15.839,4.654,26.754
		c4.027,7.682,13.052,7.341,19.176,4.052c5.564-2.711,6.905-8.331,9.189-9.711c9.768-6.105,6.776,14.752,11.614,19.084
		c14.594,11.386,30.944-5.579,19.548-44.415c-14.281,0.277-19.422,0.393-42.343-12.612c-3.714-2.172-6.948-5.084-9.78-8.303
		C1182.919,634.872,1181.99,637.523,1180.671,639.998 M825.218,638.559c2.655-0.073,5.318-0.211,7.98-0.027
		c0.533-1.163,1.047-2.333,1.531-3.515c-2.394,0.054-4.807-0.449-7.175-0.081C826.591,635.988,826.008,637.366,825.218,638.559
		 M608.278,640.458c-3.48,1.009-7.098,1.331-10.662,1.876c-0.276,1.04-0.518,2.095-0.729,3.161
		c5.084-2.924,11.054-3.718,16.832-3.61c-0.18-1.028-0.334-2.053-0.48-3.077C611.589,639.372,609.958,639.998,608.278,640.458
		 M821.212,643.359c2.862,0.042,5.747,0.038,8.552,0.714c0.84-1.305,1.757-2.551,2.525-3.898c-2.621,0.253-5.268-0.008-7.839-0.514
		C823.277,640.803,822.325,642.158,821.212,643.359 M820.034,644.445c-1.539,1.688-3.445,2.97-5.061,4.57
		c3.384,0.679,6.883,0.361,10.248,1.189c1.097-1.343,2.459-2.713,3.023-4.32C825.46,645.749,822.651,645.469,820.034,644.445
		 M1255.5,649.233c-3.315,0.963-6.43,2.505-9.803,3.261c2.191,6.043,3.254,12.427,3.583,18.831
		c0.802,1.404,17.11,25.52,28.657,11.123c-1.127-4.361-5.57-18.058-13.479-35.698C1261.569,647.924,1258.446,648.274,1255.5,649.233
		 M804.188,654.244c3.837,2.762,8.836,2.11,13.218,3.238c2.429-1.7,4.873-3.488,6.695-5.863c-3.265-0.234-6.791-0.526-9.527-2.505
		C811.405,651.381,807.749,652.763,804.188,654.244 M1032.789,662.75c3.856,2.711,13.21,3.78,14.714,0.909
		c1.116-2.283,0.315-4.873-0.341-7.159C1042.346,658.533,1037.558,660.617,1032.789,662.75 M827.685,660.958
		C827.662,662.24,828.828,660.39,827.685,660.958 M554.106,677.74c0.361,0.196,1.174-0.173,0.921-0.648
		C554.643,676.773,553.845,677.268,554.106,677.74 M972.079,684.412c0.391,1.07,1.12,1.961,1.945,2.747
		c6.348,6.211,13.233,23.862,28.116,26.735c6.009,1.18,13.878,1.938,13.705-4.209c-0.477-14.297-25.335-20.015-28.074-25.852
		c-0.668-1.454-1.293-3.177-2.893-3.829C980.57,681.324,976.349,682.962,972.079,684.412 M399.387,703.88
		c-119.173,5.794-181.984,28.281-271.883,84.057c28.476,27.172,43.8,81.282,40.935,118.948c-1.71,48.02-7.185,47.61-8.115,51.778
		c0.633,1.481,1.362,2.989,2.459,4.19c15.207,2.674,27.682-6.65,56.317-3.948c1.11,0.087,37.887,4.775,46.126,9.995
		c7.407,4.421,16.15,15.828,4.543,26.198c15.022-9.937,14.577-10.659,18.52-12.021c-0.252-0.421-12.929-15.336-19.027-33.771
		c-18.542-3.057-64.57-1.221-87.989-0.733c-2.06,1.228-3.925,2.785-5.763,4.328c14.361-0.34,31.503-5.569,75.715,4.903
		c-23.006-4.76-60.883-3.992-63.357-3.173c2.429,0.48,4.919,0.522,7.37,0.84c-3.447,0.021-13.042-1.104-17.043,0.315
		c-16.171,6.469-13.727-9.419,44.507-34.988c-0.829-0.038-1.658-0.073-2.479-0.13l0.038-0.196
		c8.858-0.89,17.215-6.493,66.388-22.633c86.939-28.514,255.118-48.324,249.323-18.923c-1.783,7.78-15.048,10.87-50.216,25.956
		c15.946-7.951,33.38-23.485,36.407-26.505c-1.163-0.211-2.31-0.464-3.476-0.598c-8.479,8.131-23.524,14.873-43.302,24.13
		c3.178-1.938,11.033-5.613,23.362-14.522c-2.679,1.358-30.617,13.185-31.001,13.333c11.385-5.289,36.507-23.85,36.891-24.137
		c-2.08-0.142-4.174-0.307-6.25-0.146c-12.741,8.595-29.178,16.648-30.295,17.008c6.506-2.935,19.004-11.907,26.436-17.055
		c-18.116,0.061-10.351-2.187-29.052,7.129c0.278,14.218-6.911,48.591-9.055,55.768c3.403-0.203,6.841-0.111,10.221-0.637
		c-7.428-2.281-9.313-10.998,6.73-20.297c12.244-7.304,58.934-32.724,71.434-39.719c-0.529-0.138-1.047-0.265-1.562-0.38
		c1.872,0.564,3.499-0.476,5.057-1.37c-5.088-6.925-9.968-14.104-13.141-22.138c-2.521-0.787-5.095-1.393-7.593-2.241
		c2.459,0.518,4.873,1.255,7.371,1.604c-5.949-16.509-1.752-12.25-5.863-14.668c0.652,0.215,1.281,0.407,1.941,0.656
		c-11.282-45.506-7.823-105.197,0.568-115.434C511.424,709.259,430.918,701.86,399.387,703.88 M1417.309,719.228
		c-15.496,1.496-81.693,10.755-94.055,18.877c10.725,19.899,7.63,100.014-4.827,132.561c2.141-0.361,4.274-0.775,6.396-1.27
		c-10.205,3.914-4.277-1.121-11.875,12.945c1.657-2.548,5.034-3.319,6.381-6.112c-0.386,3.667-4.182,3.468-4.593,9.3
		c1.036-0.092,2.087-0.192,3.142-0.269c-1.044,0.284-2.091,0.545-3.108,0.875c1.175,4.076,9.361,12.161,15.447,12.477
		c-0.71,0.077-1.412,0.154-2.091,0.257c0,0,18.715,12.055,18.716,12.055c22.903,14.765,14.42,10.941,22.039,11.104
		c-1.258,0.276-2.644,0.138-3.783,0.783c28.78,15.061,41.945,21.413-9.561,23.52c-1.531,0.096-3.165-0.537-4.604,0.192
		c-19.504,2.347-68.05,6.673-86.792,1.558c-0.365,0.89-0.702,1.788-0.998,2.709c0,0,62.82,12.147,137.768-6.768
		c-4.458-11.434-11.259-37.303-6.688-48.432c-0.387-0.137-26.364-9.239-30.268-9.308c7.693,3.085,14.315,8.268,21.831,11.737
		c-3.816-1.201-29.19-12.324-29.574-12.489c-4.412-0.572-8.875-0.625-13.314-0.779c12.031,3.733,21.483,10.834,39.082,20.937
		c0,0-44.288-20.462-44.288-20.462c-2.041-0.031-4.094,0.645-5.951,1.47c18.497,1.928,38.005,18.424,49.383,25.093
		c-7.635-3.953-42.253-21.998-50.511-24.575c-0.219,0.15-0.656,0.449-0.875,0.599c0.026,2.195,1.329,1.489,5.226,3.135
		c14.351,5.805,33.082,18.622,45.071,28.185c-7.823-5.111-16.188-9.312-24.582-13.387c7.877,5.54,15.29,11.737,23.458,16.859
		c-9.454-4.296-42.155-25.542-42.155-25.542c-1.132-0.982-2.053-2.398-3.618-2.663c-7.892-1.669-5.854-4.932-8.472-6.826
		c0.234,0.069,0.694,0.207,0.925,0.273c-1.792-32.184,224.559,26.312,255.358,36.112c44.01,13.771,123.177,47.373,101.756,55.729
		c-3.834,1.737-5.248-1.369-19.157-3.887c-3-0.664-6.066-0.971-9.116-1.239c0.723-0.019,14.47,0.901,15.758-0.134
		c-12.014-1.228-55.291-7.356-65.625-6.269c3.881-0.665,40.09,0.055,68.571,6.058c-14.26-7.737,5.654-2.122-55.595-9.047
		c-10.747-1.047-21.613-2.018-32.383-0.752c-0.145,1.416-0.846,2.216-5.525,11.775c0.51-0.188,1.044-0.368,1.592-0.537
		c-2.767,3.771-0.72,0.88-2.367,10.574c2.801-2.908,6.845-4.117,10.743-4.654c-0.944-0.533-1.999-0.948-2.667-1.819
		c2.245-0.211,4.274,1.051,6.469,1.305c5.319,0.026,20.499-2.928,53.7,2.77c27.992,4.294,43.761,8.889,49.518-2.87
		c-0.019-1.512-0.836-2.889-1.285-4.301c-0.591-0.334-1.047-0.81-1.412-1.339c0.407,0.384,0.856,0.756,1.347,1.109
		c-8.518-35.136-2.335-99.34,27.897-158.533c0.905-1.462,0.974-3.307,0.71-4.946
		C1703.933,775.129,1553.523,704.423,1417.309,719.228 M578.55,746.365c-0.015,4.736,0.348,20.659,0.706,23.616
		c8.079,6.435,16.508,12.211,24.114,5.583c11.418-11.589,13.624-26.808,14.66-28.945
		C607.337,747.031,578.939,746.388,578.55,746.365 M756.29,768.546c-10.408,13.813-8.055,20.528-8.959,30.253
		c12.796-1.604,25.787-1.07,38.525,0.806c-0.304-22.525-15.624-40.398-18.582-39.112
		C762.809,761.797,759.118,764.939,756.29,768.546 M710.102,769.451c-8.094,5.615-6.241,28.604-4.27,37.455
		c11.783-3.169,23.731-5.79,35.836-7.39c-0.023-1.796,0.307-3.591,0.161-5.372C729.714,770.58,715.645,766.45,710.102,769.451
		 M811.643,777.789c-4.831,3.233-14.508,16.091-17.3,23.635c11.081,2.832,21.851,6.833,32.099,11.906
		C831.747,799.34,825.56,769.125,811.643,777.789 M662.093,795.518c-3.076,8.879,1.621,29.482,1.715,32.417
		c14.603-11.102,30.042-17.969,38.51-20.082c-6.729-8.656-35.054-14.073-37.447-14.327
		C663.528,793.247,662.492,794.356,662.093,795.518 M843.516,804.658c-3.046,1.911-5.851,4.171-8.844,6.154
		c-0.372,2.118-0.357,4.316-1.082,6.377c6.952,3.959,15.128,8.085,24.498,16.675c3.44-10.139,13.649-33.992-4.838-31.968
		C849.862,802.102,846.409,802.801,843.516,804.658 M1314.042,807.363c1.711-0.042,3.499-0.199,5.015,0.802
		c-1.565,7.379-22.325,7.1-25.71,6.438c-0.637,3.967-0.932,7.984-1.608,11.952c7.738-2.169,16.348-7.176,20.811-7.11
		c2.179,4.72-16.042,8.12-21.018,8.66c-0.606,3.315-0.998,6.668-1.627,9.983c14.879-7.037,19.384-5.369,27.541-6.783
		c0.633-3.517,2.262-20.177,2.513-24.644C1317.967,806.764,1316.025,807.263,1314.042,807.363 M1309.061,808
		c-2.366,0.468-11.924,0.404-14.894-0.019c-0.257,1.838-0.499,3.676-0.694,5.529c14.822-2.621,11.039-3.068,20.285-5.89
		C1312.173,807.535,1310.623,807.881,1309.061,808 M537.044,811.702c0.372,1.358,2.11,0.84,3.161,1.074
		C539.165,812.362,538.122,811.971,537.044,811.702 M537.473,813.962c0.334,1.953,0.648,3.914,0.875,5.889
		c5.676,1.049,21.022,0.844,33.772,3.867c-0.219-1.412-0.434-2.828-0.606-4.236c-1.408,0.307-2.874,0.56-4.278,0.111
		C557.505,816.759,547.25,816.579,537.473,813.962 M828.441,814.131C828.637,814.33,828.637,814.33,828.441,814.131
		 M633.497,819.525c-8.144,2.491,8.402,34.581,9.922,38.184c6.657-12.658,6.647-16.426,17.596-27.541
		C656.59,822.341,639.356,818.357,633.497,819.525 M538.555,820.765c0.407,2.202,0.633,4.451,1.305,6.595
		c1.856-0.107-3.061-0.547,33.714,5.993c-0.449-2.463-0.71-4.95-1.159-7.409C553.112,826.586,542.918,821.786,538.555,820.765
		 M540.025,828.849c0.748,4.593,1.995,9.082,2.962,13.632c1.094,0.211,2.348,0.779,3.407,0.261c0.011,0.092,0.034,0.276,0.046,0.368
		c0,0,7.824,1.257,29.025,2.855c-0.618-3.089-0.909-6.227-1.492-9.32C562.178,836.316,549.711,834.597,540.025,828.849
		 M864.2,832.624c-0.691,1.684-1.447,3.369-2.728,4.708c9.611,10.328,11.474,13.359,13.264,16.87
		c5.535-2.208,10.333-7.815,11.499-9.504c1.267-1.776,1.2-8.212-1.266-9.742C877.361,829.699,866.49,831.291,864.2,832.624
		 M1309.936,835.974c-6.546,3.522-13.862,5.149-20.799,7.681c-1.358,7.47-2.962,14.898-4.32,22.369
		c12.14-7.599,22.578-5.391,28.937-6.607c0.798-4.593,1.155-9.247,1.915-13.843c-4.158,0.65-26.596,11.472-27.882,11.311
		c-0.211-0.572-0.384-1.14-0.549-1.703c0.238,0.238,0.905,1.021,1.208,0.388c6.389-10.712,22.573-9.363,27.165-10.214
		c0.679-4.432,1.278-8.875,1.815-13.321C1314.786,833.065,1312.434,834.669,1309.936,835.974 M799.937,840.355
		c-10.206,0.246-20.404,0.71-30.61,0.909c2.051,2.801,21.849,29.265,24.694,32.878c21.654-36.768,19.919-34.164,22.806-34.217
		C811.194,839.891,805.566,840.156,799.937,840.355 M706.73,843.317c8.426,11.062,16.767,22.188,25.196,33.25
		c9.481-11.675,19.08-23.255,28.538-34.949C742.554,842.139,724.64,842.73,706.73,843.317 M818.584,842.166
		c0.072,1.623,1.196-0.756-19.71,34.171c16.034-0.583,32.072-1.22,48.106-1.815C837.446,863.798,828.038,852.959,818.584,842.166
		 M737.06,878.681c17.373-0.618,34.742-1.32,52.111-1.961c-8-10.766-16.084-21.471-24.122-32.206
		C755.695,855.883,746.402,867.305,737.06,878.681 M543.739,844.91c0.944,3.392,1.93,6.776,2.64,10.233
		c20.554,2.547,16.207,0.765,31.101,3.841c-0.553-3.353-0.978-6.73-1.592-10.068c-1.262-0.008-2.521-0.015-3.775-0.023
		c-0.042,0.284-0.127,0.852-0.169,1.136c-0.879-0.625-1.938-0.763-2.981-0.725C560.46,848.574,551.88,847.603,543.739,844.91
		 M699.198,852.599c-7.463,9.469-15.056,18.843-22.434,28.373c16.767-0.591,33.53-1.27,50.297-1.892
		c-8.007-10.72-16.099-21.382-24.214-32.022C702.233,849.253,700.51,850.818,699.198,852.599 M877.264,859.34
		c2.36,5.813,3.292,12.197,2.901,18.447c16.361-0.289,17.444-9.428,9.65-14.745c-2.709-1.846-5.456-3.633-8.272-5.295
		C880.172,858.423,878.799,859.156,877.264,859.34 M547.015,858.519c0.599,3.073,1.32,6.131,1.715,9.247
		c2.549,0.239,17.266,0.393,30.737,4.27c-0.449-3.192-1.009-6.365-1.412-9.561C566.775,862.527,552.21,860.056,547.015,858.519
		 M633.792,861.561c-15.137,12.2-9.458,15.374,6.062,28.461c0.072-19.291-0.105-22.966,2.34-29.482
		c-0.656-0.376-1.301-0.74-1.934-1.124C637.982,859.581,635.576,860.034,633.792,861.561 M1306.391,863.913
		c-4.162,2.235-9.235,4.089-22.299,6.549c-0.457,2.08-0.763,4.194-1.186,6.281c9.473-2.409,18.938-5.36,28.799-5.598
		c0.61-3.603,1.304-7.19,1.93-10.793C1311.091,861.266,1308.758,862.643,1306.391,863.913 M549.348,870.363
		c0.223,1.036,0.468,2.072,0.825,3.085c1.934,0.215,3.879,0.188,5.82,0.207C553.868,872.408,551.478,871.629,549.348,870.363
		 M550.089,873.751c0.844,1.719,1.473,3.833,3.161,4.907c13.24-0.589,12.951-0.929,27.767,1.849c-0.13-0.829-0.272-1.631-0.46-2.425
		C562.402,878.43,560.948,875.461,550.089,873.751 M1299.132,878.516c-5.59,0.967-11.219,1.819-16.897,1.941
		c-0.591,2.62-1.005,5.279-1.596,7.904c19.72-7.141,20.514-2.467,31.14-2.82c0.15-0.856,0.399-1.684,0.694-2.494
		c-0.276,0.437-0.568,0.859-0.81,1.316c-1.713-1.464-0.926-7.262-0.579-9.496C1307.266,876.571,1303.245,877.799,1299.132,878.516
		 M464.966,876.575c0.434,2.126,0.341,4.301,0.568,6.453c4.002-2.325,8.065-4.558,12.174-6.691
		C473.464,876.026,469.213,876.598,464.966,876.575 M550.933,876.897c0.134,0.637,0.307,1.274,0.487,1.922
		c0.284,0.012,0.848,0.031,1.132,0.042C552.076,878.148,551.551,877.476,550.933,876.897 M548.803,877.595
		c-0.311,0.365-0.599,0.767-0.894,1.159c0.648,0.027,1.301,0.061,1.961,0.107C549.509,878.428,549.156,878.013,548.803,877.595
		 M538.206,886.47c27.81,0.913,25.929-1.09,44.718,3.25c-0.223-1.347-0.522-2.674-0.833-3.99
		c-11.379,0.291-18.155,0.701-30.111-4.57c0.104,0.625,0.219,1.278,0.303,1.926c-0.345-0.717-0.545-1.516-1.051-2.122
		c-1.324-0.671-2.755-1.143-4.198-1.439C544.069,881.777,541.195,884.218,538.206,886.47 M797.255,881.743
		c-2.077,0.278-26.411,70.64-26.892,72.032c25.764-24.598,51.44-49.287,77.166-73.927
		C830.77,880.435,814.014,881.106,797.255,881.743 M736.619,884.053c9.132,23.627,18.378,47.212,27.571,70.816
		c2.087-5.636,22.62-63.285,25.971-72.876C772.316,882.714,754.464,883.343,736.619,884.053 M879.355,883.293
		c-1.133,13.347-5.755,20.001-9.17,29.133c0.384-0.033,17.266-0.606,19.886-4.811c2.246-9.551-7.039-22.117-8.84-24.064
		C880.617,883.339,879.969,883.347,879.355,883.293 M679.504,886.274c4.783,4.101,71.154,61.167,78.585,67.7
		c-9.028-23.251-18.083-46.494-27.168-69.718C713.782,884.958,696.631,885.484,679.504,886.274 M535.252,888.549
		c-3.821,2.766-8.038,4.927-11.913,7.601c26.833,4.402,35.686-2.604,62.313,5.448c-0.295-1.7-0.817-3.342-1.105-5.034
		c-26.644,2.366-21.564-2.41-46.375-8.687c1.592-0.111,3.185,0.56,4.758,0.073c-1.704-0.246-3.327-0.84-5.022-1.07
		C536.909,887.229,536.13,887.985,535.252,888.549 M1302.608,890.782c-5.974,2.794-11.435,3.26-23.086,3.104
		c-0.537,2.064-0.913,4.171-1.539,6.212c17.617-5.808,30.831-3.449,39.377-2.294c-2.755-3.043-5.514-6.584-5.782-10.839
		C1308.451,887.897,1305.558,889.428,1302.608,890.782 M636.094,898.844c-1.629,3.772-6.505,12.404-3.591,17.404
		c6.04,10.044,15.632,13.586,19.499,12.293c0.963-1.258,1.742-2.678,2.974-3.718c-9.615-13.199-12.747-21.964-14.933-33.714
		C638.412,893.514,637.445,896.284,636.094,898.844 M523.089,896.242c-39.383,23.422-43.444,26.809-52.065,34.792
		c16.899,6.908,25.248,6.106,32.287,6.377c-13.089,0.253-25.609-0.373-29.474,1.247c0.62,0.008,42.612,3.129,85.864-0.537
		c-11.224,1.019-33.936-3.26-75.151-12.665c4.892,0.441,4.597,1.71,28.791,3.323c0.084,0,49.99,0.572,49.99,0.572
		c-18.873-4.139-23.899-5.887-43.122-8.472c-0.576-0.652-1.554-0.284-2.294-0.426c-1.214-0.65-13.362-1.763-14.469-1.842
		c0,0,16.222,1.676,39.834,1.354c21.925,0.074,46.851,0.441,47.235,0.449c-0.203-0.752-0.391-1.516-0.537-2.264
		c-27.227,2.728-36.234-7.812-67.789-11.096c0.717-0.005,27.436,2.114,38.805,0.441c-9.891-2.528-19.894-4.62-29.973-6.223
		c0,0,10.163,1.42,18.727,1.773C541.065,900.102,532.117,897.861,523.089,896.242 M1296.446,904.388
		c-6.503,0.261-13.014,0.46-19.522,0.391c-0.836,2.045-1.251,4.24-1.799,6.377c33.715-6.882,36.772,0.764,55.829-1.869
		c0,0-11.848-9.396-11.848-9.396C1311.551,901.372,1304.189,903.992,1296.446,904.388 M1318.707,912.257
		c-15.538,4.341-19.048,6.739-44.917,3.741c-0.683,2.429-1.343,4.865-2.026,7.294c53.363-6.457,51.966-1.442,78.904-0.729
		c-4.066-2.886-18.949-12.838-19.341-13.08C1327.102,910.323,1322.851,911.071,1318.707,912.257 M587.179,910.369
		c0.061,0.514,0.322,0.606,0.79,0.28C587.897,910.112,587.632,910.02,587.179,910.369 M267.309,914.686
		c0.51,0.522,1.063,1.082,1.869,0.921c-0.077-0.322-0.234-0.967-0.315-1.285C268.345,914.436,267.823,914.54,267.309,914.686
		 M264.827,915.369C264.823,916.646,265.974,914.808,264.827,915.369 M256.646,917.816c1.209,0.491,2.555,0.284,3.833,0.426
		c-7.006,0.365,0.004-1.545-22.173,5.091c3.403,0.434,6.841,0.495,10.24,0.902c-10.541-0.414-23.934,2.285-34.873,7.524
		c4.135-1.212,17.794-3.266,35.744-1.243c-1.946,0.007-37.711,1.781-43.298,4.102c-3.234,1.255-6.342,2.82-9.396,4.462
		c31.109-6.299,30.804-4.206,62.993-1.27c-12.266-0.27-52.722,0.666-64.439,2.06c-4.593,2.417-9.063,5.115-13.283,8.149
		c8.843,0.396,19.228-9.766,87.126,1.04c-1.564-5.521-13.333-29.677-4.7-33.273C261.753,916.124,259.252,917.195,256.646,917.816
		 M862.953,928.072c-3.488,5.091-8.253,9.082-12.753,13.233c10.004,2.536,34.701,23.902,20.761-22.2
		c-1.094-0.104-2.172-0.315-3.215-0.599C866.452,921.834,864.917,925.083,862.953,928.072 M587.67,924.001
		c1.328,0.177,2.644,0.437,3.963,0.694c-0.184-0.691-0.349-1.393-0.48-2.08C589.984,923.061,588.81,923.491,587.67,924.001
		 M1323.672,929.653c-12.013,2.169-38.926,2.193-53.266-1.17c-0.679,2.16-1.285,4.347-1.868,6.538
		c27.286-3.284,41.329-2.595,103.033,0.073c-39.041,0.712-78.559,16.303-104.231,3.714c-0.599,1.623-1.166,3.261-1.635,4.934
		c16.57,1.621,80.42,1.062,96.649-2.974c-2.297,0.696-11.744,2.437-11.875,2.605c7.618-0.066,24.789-0.455,31.635-3.729
		c-5.676-2.12-26.766-14.058-27.318-14.415C1350.882,922.842,1344.384,926.375,1323.672,929.653 M656.264,926.238
		c-1.096,6.025-11.035,15.643-10.95,28.561c10.985,5.078,29.658-0.253,33.369-5.406c1.23-2.969,1.021,0.609-9.4-9.289
		C664.705,935.715,660.262,931.165,656.264,926.238 M140.871,939.613c-15.735,5.555-33.076,4.147-44.668,5.383
		c-6.757,0.994-13.44,2.578-20.289,2.774c60.787,31.97,47.27,21.469,71.61,33.342c2.371,1.117,4.201,3.146,6.684,4.021
		c1.905,1.936,8.193,4.861,14.219,5.249c0,0-4.456-0.485-14.841-0.196c-3.785,6.081-24.404,24.664-64.965,40.06
		c38.037,2.594,24.313,9.907,88.599-2.126c22.191-4.769,76.103-19.746,87.867-38.218c-17.568,12.743-87.805,30.766-88.223,30.867
		c29.686-8.593,77.673-30.406,89.839-36.764c-0.595-2.977-3.177-4.946-5.118-7.079c-30.814,28.683-96.292,39.185-100.056,39.588
		c26.315-4.72,72.257-25.694,96.15-41.971c-16.55-6.075,0.345,1.162-44.986,15.466c-2.881,0.894-42.248,11.854-42.665,11.948
		c19.554-5.488,74.97-30.637,75.355-30.821c0.299-0.645-0.706-0.441-1.024-0.606c-2.92-0.606-5.897-0.886-8.821-1.469
		c-10.382,6.917-29.447,16.611-62.133,22.906c13.483-3.596,17.095-7.074,55.918-23.942c-16.642-3.032-5.139-2.55-40.708,9.642
		c-4.082,1.354-8.011,3.165-12.143,4.359c10.505-3.886,21.697-9.575,38.034-15.547c-22.609-2.433-52.567,14.563-57.636-3.833
		c-0.798,0.733-1.968,1.316-2.106,2.521c-2.633-6.108-0.35-25.119,0.641-31.469C150.931,936.479,145.855,938.029,140.871,939.613
		 M1594.312,938.151c0.518,2.616-0.264,3.304-2.678,10.82c9.945-0.057,19.886-0.81,29.831-0.349
		C1612.353,945.292,1603.532,941.194,1594.312,938.151 M1365.658,943.657c-3.944,0.752-7.992,1.193-11.84,2.294
		c2.922,0.256,15.313-2.494,18.259-3.242C1369.905,942.744,1367.799,943.381,1365.658,943.657 M832.539,955.479
		c-3.86,2.264-7.378,5.03-11.008,7.628c0.012,0.073,0.042,0.219,0.054,0.292c5.914,2.169,4.316,3.882,13.479,9.722
		c0.384,0.223,11.626,6.744,14.35,5.966c4.098-6.658,2.995-30.248,0.794-30.817c-1.646-0.687-3.411-1.416-4.355-3.023
		C841.728,949.04,837.358,952.593,832.539,955.479 M1696.828,947.275c-0.481,10.383-0.528,27.008,2.862,36.783
		c-0.656-0.215-1.216-0.641-1.692-1.078c-5.404,16.016-22.956,8.824-48.674,5.782c8.561,2.576,51.738,15.575,60.679,17.78
		c-20.108-3.242-55.186-18.424-83.673-20.872c30.004,8.727,39.62,14.826,69.887,24.36c-74.423-17.623-76.951-26.924-92.149-25.1
		c31.129,10.74,77.557,35.388,103.636,40.797c-0.384-0.026-60.083-12.019-110.999-39.991c-2.36-0.568-4.823,0.226-7.186,0.449
		c0.384,0.271,84.226,41.93,115.139,50.32c-1.162-0.275-65.928-17.381-85.108-25.507c89.598,47.819,63.939,29.264,148.883,37.739
		c-28.33-19.891-14.564-10.386-50.696-42.504c-7.4-5.788-4.733-7.758-12.278-15.316c2.997,2.517,6.684,3.891,10.336,5.157
		c8.003-5.222,15.336-11.437,23.308-16.725c0.384-0.255,26.5-15.964,33.683-22.319c4.225-3.482,4.846-5.505,14.327-8.959
		c-22.948,2.935-31.646,10.558-80.757,3.115C1702.955,950.675,1699.291,949.858,1696.828,947.275 M679.397,948.104
		c-1.023,18.522-5.419,36.402,8.134,33.814c19.679-5.095,15.632-6.806,24.609-9.377c0.702-1.147,1.523-2.221,2.828-2.732
		c0.407,0.438,0.683,1.086,1.281,1.339c0.219-0.157,0.66-0.476,0.879-0.633C700.711,964.554,697.706,961.455,679.397,948.104
		 M1591.515,949.374c-0.687,1.857-4.725,12.748-6.028,14.361c0,0,44.821-5.049,73.601,2.202c-5.806-4.568-7.899-4.037-9.316-4.259
		c-37.732-4.374-46.738-4.686-54.429-4.293c8.503-0.706,37.52-0.971,52.181,1.934c-2.673-1.423-16.486-7.523-18.846-7.604
		C1616.278,951.097,1603.927,949.666,1591.515,949.374 M172.552,955.486c0.376,0.345,0.84,0.514,1.32,0.706
		c0.825-0.783,1.803-1.374,2.885-1.704c-0.733-0.246-1.466-0.545-2.237-0.602C173.71,954.162,173.2,954.953,172.552,955.486
		 M811.026,967.676c-24.33,7.033-13.674,3.599-23.592,6.285c3.991,3.681,15.834,27.223,26.259,21.912
		c1.098-1.747,5.467-17.029,5.698-24.544c0.514-2.41-0.353-4.865,0.403-7.229C817.072,965.73,814.057,966.797,811.026,967.676
		 M716.433,972.007c2.186,11.168-0.501,24.209,5.913,27.468c5.152,2.27,20.417-14.792,23.147-18.574
		c-0.449-1.435-0.618-2.931-0.879-4.393c-0.384-0.078-15.649-1.509-27.257-6.07C717.059,970.96,716.755,971.486,716.433,972.007
		 M749.196,977.003c4.728,11.295,14.498,50.585,32.321,6.975c0.955-2.974,2.456-5.958,1.968-9.162
		C772.335,977.72,760.622,978.461,749.196,977.003 M1581.908,989.634c3.599,1.504,6.791,3.81,10.317,5.471
		c-3.039-2.06-5.878-4.416-8.514-6.956C1583.016,988.529,1582.403,989.024,1581.908,989.634 M1579.79,996.214
		c20.397,24.612,85.278,42.663,99.573,44.856c-35.568-10.165-70.082-24.456-98.226-50.446
		C1580.074,992.258,1579.602,994.295,1579.79,996.214 M646.588,992.312c18.424,18.118,13.466,23.456,22.672,54.122
		c0.368,0.898,0.541,2.06,1.443,2.621C691.678,1047.814,676.223,1002.591,646.588,992.312 M1207.459,1002.521
		c-30.353,8.397-45.724,61.296-27.299,57.053c11.328-5.385,1.546-45.874,41.856-58.496
		C1214.046,1000.095,1211.196,1001.501,1207.459,1002.521 M255.411,1004.781c0.625-0.004,1.508-0.445,1.692-1.051
		C256.489,1003.615,255.48,1004.129,255.411,1004.781 M254.318,1005.491c0.526,0.088,0.767-0.123,0.729-0.637
		C254.509,1004.743,254.268,1004.958,254.318,1005.491 M253.677,1005.61C253.892,1005.806,253.892,1005.806,253.677,1005.61
		 M252.514,1006.351C252.737,1006.535,252.737,1006.535,252.514,1006.351 M233.273,1016.207
		c-7.689,3.728-41.034,14.595-51.451,17.611c24.297-4.065,52.615-16.99,57.483-20.304
		C237.24,1014.277,235.291,1015.329,233.273,1016.207 M1764.892,1049.81c1.892,0.246,3.814,0.15,5.724,0.307
		C1768.913,1049,1766.772,1049.841,1764.892,1049.81 M667.487,1128.99c0.89,4.048,2.05,17.055,1.861,21.152
		c-0.63,14.391-2.695-3.496-0.384,32.97c-0.579-5.751-1.439-11.464-2.076-17.2c-0.852,5.318-0.905,10.716-1.044,16.092
		c-0.387-11.101-2.544-16.792-3.515-20.723c4.818,67.096,8.244,105.697,6.4,120.33c14.424-16.561,54.56-19.597,80.45,46.598
		c34.372,94.985,31.857,89.355,31.857,89.355c-1.347-2.858-2.924-5.655-5.065-7.984c1.869,4.029,3.99,7.961,6.607,11.56
		c0.337,0.519,25.589,14.941,55.568,19.963c-20.346-27.184-23.142-22.253-7.823-28.381c0.41-0.162,16.715-6.111,25.473-6.154
		c0.106-6.205,0.849-11-12.496-22.43c-32.215-30.038-50.351,7.909-32.601,14.089c5.27-10.313,19.703-3.444,15.535,5.295
		c-8.564,17.923-43.788-2.825-21.701-31.55c-3.004-0.529-5.84-1.661-8.782-2.39c-1.784-0.621-3.073-2.367-5.061-2.417
		c-9.667-1.083-16.179-10.744-15.758-16.721c1.245-11.318-0.16-11.75-0.579-16.901c2.948,14.112,7.217,9.224,17.876,26.485
		c0.514,0.775,2.596,5.231,8.579,8.387c7.934,4.141,2.114,2.426,8.959,0.334c-2.156-1.4-3.683-3.48-5.203-5.502
		c-6.559,0.853-10.533-4.508-12.907-10.555c-7.043-18.217-1.838-8.093-0.341-37.125c1.209,19.849,3.454,14.31,9.235,29.497
		c3.973,10.662,6.355,8.601,6.856,13.068c0.13,0.925-0.253,2.018,0.434,2.816c5.631,8.704,7.908,5.885,14.929,7.513
		c-3.817-3.975-1.859-4.579-6.937-9.761c-9.989-8.983-1.436-17.879,2.406-33.2c-1.391,8.08,0.034,12.315,1.895,17.48
		c1.869,5.099,0.856,10.616,1.328,15.907c1.097,3.384,3.3,6.45,3.61,10.079c11.247,2.456,12.988,4.975,23.412,15.804
		c4.892,5.843,9.713,11.245,7.781,22.031c0.671,0.019,1.351,0.058,2.041,0.115c-2.087-5.702-2.679-13.018,1.535-30.836
		c1.336-6.151,7.31-3.466,8.809-3.016c7.298,2.045,24.949,8.646,29.378,15.052c0.005-0.006,2.883-8.216,4.274-10.102
		c0.237-0.384,9.82-13.786,13.874-17.258c5.167-4.03,19.367,12.722,20.32,23.431c0.173,1.934-0.786,3.729-0.779,5.663
		c1.397-1.658,2.436-3.599,3.035-5.678c-0.188,1.293-0.472,2.574-0.457,3.906c13.839-10.766,27.319-12.424,37.367-14.192
		c3.943-0.627,2.604,4.437,3.971,22.227c6.244-12.263,20.74-28.947,35.437-25.71c1.036-1.895,2.252-3.737,2.92-5.797
		c-0.856-4.225,2.645-23.334,4.244-26.332c1.001-1.815,1.155-3.986,0.311-5.886c5.121,6.01,6.349,6.479,7.106,9.995
		c0.671,4.374-0.295,17.177-11.844,28.688c4.09,0.844,8.057,2.383,11.679,4.47c3.88-4.154,2.836-6.208,2.966-7.854
		c-0.331-6.834,2.559-8.17,4.834-20.055c1.032-5.713,5.884-9.251,3.338-19.057c3.168,9.982,6.677,12.595,7.436,17.649
		c0.333,2.58,0.284,18.758-13.598,26.152c-1.059,1.443-1.868,3.062-2.97,4.489c1.005,0.752,1.891,1.65,2.889,2.429
		c4.686-0.766,5.97-4.825,8.314-7.478c0.04-0.051,7.443-6.614,12.823-13.291c3.01-3.736,9.914-6.744,11.318-18.823
		c-1.406,21.483,2.536,20.111-7.244,30.944c-12.978,14.841-14.433,6.491-24.425,9.722c6.018,7.242,8.312,17.515,3.798,25.71
		c-11.747,21.415-37.127,11.197-29.858-2.578c2.915-5.971,13.67-4.618,15.182,2.801c7.795-3.975,7.284-16.253,0.468-20.538
		c-3.691-2.591-18.773-8.262-25.173-4.148c-3.67,2.279-19.975,15.545-19.698,19.848c0.012,1.619,0.004,3.242,0,4.873
		c0.173-0.038,0.518-0.115,0.687-0.153c-0.748,0.84-0.775,1.953-0.806,3.031c12.92-3.241,28.196,6.617,38.794,11.134
		c9.593,4.18-9.215,16.262-12.378,18.785c13.649-2.87,29.167-7.661,43.337-14.434c16.344-26.491,35.301-96.237,56.121-121.508
		c22.508-25.12,51.786-20.163,62.839-7.09c1.945,2.179,3.284,4.792,4.919,7.186c5.986-40.456,10.065-125.281,10.148-126.388
		c-1.918,5.448-3.718,10.962-4.761,16.656c0-4.479,1.346-3.697-0.74-22.346c-2.72,7.163-4.351,14.676-5.375,22.253
		c0.579-7.021,0.871-14.154-0.299-21.125c-2.129,7.305-5.18,14.38-6.242,21.97c1.259-16.339-1.346-22.803-0.729-30.683
		c-2.722,10.424-4.776,12.046-6.933,23.757c1.352-18.49,0.069-12.947,0.426-20.73c-2.618,11.316-4.646,12.983-7.743,25.338
		c0,0,2.409-29.547,2.409-29.547c-0.912,8.304-5.63,17.508-7.041,24.183c0.602-4.992,1.17-9.995,1.27-15.025
		c-5.997,23.528-16.737,61.45-35.51,76.721c-0.763,0.806-2.663,0.913-2.39,2.337c0.773,7.648,3.56,30.059,7.482,36.665
		c-6.568-0.793-13.055-20.815-14.925-27.111c-1.308,1.632-18.524,66.492-58.929,34.243c-6.118,24.138-26.118,31.266-41.326,1.351
		c-6.259,16.173-22.489,37.755-35.54,26.466c-9.383-8.219-10.592-11.454-11.844-15.125c-1.141,3.063-7.533,14.655-17.511,17.795
		c-10.101,3.237-18.85-12.407-20.255-14.284c-11.256,13.494-15.984,26.043-36.722-0.322c-15.267,15.735-42.743,1.573-46.045-23.523
		c-5.468,12.151-14.244,19.254-17.872,20.028c-2.889,0.596-9.07-0.766-14.338-6.112c-12.996-13.624-10.917-22.856-14.173-30.088
		c-15.571,30.493-49.901,25.259-49.901-11.917c-4.539,9.681-1.126,5.491-11.645,19.971c0.23,0.361,0.46,0.74,0.698,1.132
		c-1.684-1.696-1.46-1.118,0.315-7.282c3.672-11.403,4.197-23.466,6.607-35.141c-11.066-3.228-22.501-24.766-26.106-36.588
		c-6.912-22.219-6.684-30.122-7.785-36.258c-1.508-9.779-4.586-12.407-3.829-28.339c-0.94-0.215-1.888-0.391-2.82-0.564
		c0.56,2.483,1.339,6.766,3.192,42.535c-1.999-10.535-5.378-15.392-7.378-24.962c0.038,1.523-0.011,3.058-0.134,4.593
		c-0.579,7.724,0.618,17.17,0.618,17.17c-0.921-0.349-0.361-1.477-0.434-2.175c-0.579-4.7-1.481-9.366-2.774-13.92
		c-0.556,3.825-0.591,7.754,0.1,11.568c-1.73-5.612-0.441-4.089-4.673-13.394c-0.13,5.513,0.549,10.992,1.228,16.456
		c-1.366-7.002-3.039-13.951-5.345-20.707c-0.275,6.939-1.567,9.714-0.422,24.901c-1.332-9.555-1.461-9.125-1.945-9.216
		c0.019,0.672,0.038,1.362,0.057,2.064c-4.484-20.573-7.298-26.278-6.906-41.058C668.228,1129.324,667.852,1129.151,667.487,1128.99
		 M709.796,1137.086c-3.972,32.652,7.491,76.379,24.437,99.097c1.61-8.935,14.918-63.001-8.264-105.052
		C720.489,1132.85,714.883,1134.362,709.796,1137.086 M1121.169,1141.671c-10.896,30.823-15.515,64.658-12.159,99.404
		c9.335-12.634,25.738-53.344,31.523-91.688C1139.593,1148.845,1128.263,1143.552,1121.169,1141.671 M675.844,1168.655
		c-0.084-0.856-0.215-1.688-0.403-2.505C675.487,1166.963,674.85,1168.229,675.844,1168.655 M766.262,1185.525
		c-1.738,0.825-3.319,2.026-4.443,3.599c-12.653,15.134-10.753,2.842-12.132,24.433c2.27-3.273,15.424-33.002,30.717-19.997
		c12.527,10.473,14.797,20.796,17.818,42.891c0.146-0.523,3.796-16.867,10.421-28.108c9.891-18.375,28.018-1.146,32.16,20.101
		c0.718,4.884,0.507,9.841,0.491,14.768l0.376,0.027c1.882-10.907,12.245-47.381,26.957-37.827
		c8.488,5.315,9.72,10.858,15.976,31.147c0.15-2.195,0.641-4.339,1.074-6.484c0.254-1.217,7.07-41.548,18.655-36.592
		c12.465,3.677,12.799,27.35,15.462,36.519c5.162-31.53,6.818-30.142,15.877-34.677c19.147-10.285,23.548,38.679,26.693,44.979
		c9.339-41.641,30.755-50.326,38.863-5.272c6.63-24.946,15.592-44.571,28.266-22.077c8.262,14.658,8.389,13.143,12.032,22.706
		c0.568-1.074,0.618-2.31,0.952-3.446c3.211-12.365,5.066-14.459,9.27-22.487c9.199-17.732,18.523-21.536,37.578-0.537
		c2.686,3.162,5.586,6.235,7.417,10.01c-0.261-4.589,0.357-9.174,0.292-13.763c-0.203-0.392-23.779-19.297-34.263-13.145
		c-0.384,0.214-18.56,9.464-18.348,14.637c0.108,1.727-1.938,3.016-3.449,2.191c-2.324-1.475-5.12-9.917-12.75-11.46
		c-10.552-2.14-21.64,8.018-25.216,14.415c1.073,2.918,1.904,2.83-0.783,5.402c-9.099,0.515-0.336-28.214-35.51-11.207
		c0.487,0.829,1.22,1.588,1.351,2.59c0.272,1.466-1.588,2.962-2.912,2.06c-2.418-1.459-10.286-19.402-25.526-22.177
		c-7.474-1.687-10.993,7.159-18.29,10.689c-0.748,0.825-1.416,1.742-2.448,2.256c-6.805-3.954-9.113-12.536-18.823-13.552
		c-7.353,3.423-5.071,3.588-12.918,13.509c-4.782,6.24-2.24,5.61-2.789,8.736c-2.438,7.234-9.869-14.099-19.533-14.921
		c-7.003,0.416-7.987,2.883-12.224,8.491c-2.095,2.989-4.217,5.97-5.955,9.189c0.146,0.783,0.867,1.385,0.932,2.221
		c0.192,1.328-1.063,2.548-2.348,2.594c-1.929-0.361-1.674-1.138-8.756-9.964c-16.054-16.426-16.854-14.331-25.795-8.729
		c-6.411,3.784-9.9,16.728-12.834,9.435C793.278,1196.854,777.902,1180.096,766.262,1185.525 M771.142,1196.821
		c-5.461,1.213-9.644,8.448-12.205,13.237c-5.45,9.771-8.408,12.876-10.597,19.084c15.382,4.201,31.078,7.064,46.671,10.336
		c0.833,0.28,0.779-0.909,0.572-1.374c-5.763-18.552-4.077-29.028-19.487-40.306
		C774.703,1196.756,772.823,1196.219,771.142,1196.821 M898.309,1202.185c-7.716,12.412-10.479,48.22-10.072,50.032
		c6.881,0.455,22.728,0.933,29.977,1.143c0.223-1.412,0.384-2.839,0.307-4.255c-3.642-7.9-6.126-41.729-14.261-51.451
		C901.659,1198.06,899.548,1199.932,898.309,1202.185 M934.981,1201.072c-4.956,2.6-5.575,2.378-11.253,25.426
		c-1.086,4.401-2.225,8.863-2.206,13.429c-0.015,2.582,1.274,5.065,0.752,7.67c-0.33,0.917-1.205,1.477-1.738,2.271
		c-0.18,1.151-0.215,2.34-0.449,3.499c10.467,0.1,20.93-0.027,31.397,0.031c11.585,10.562-1.892-55.286-10.735-54.16
		C938.611,1198.916,936.807,1200.205,934.981,1201.072 M1065.344,1200.251c-6.455,2.635-18.184,25.268-22.042,39.749
		c-0.694,2.106,0.763,4.102,0.725,6.223c24.391-3.588,48.777-10.547,52.745-12.197
		C1092.022,1216.265,1075.456,1197.291,1065.344,1200.251 M815.219,1208.089c-3.592,5.069-9.113,16.881-12.297,33.062
		c5.121,1.182,7.417,1.466,37.393,5.755c-0.387-2.12-3.146-36.782-21.966-41.196
		C817.157,1206.275,815.971,1206.969,815.219,1208.089 M1016.67,1208.865c-10.743,16.626-12.025,29.605-11.948,41.794
		c0,0,13.555-0.979,34.539-3.695c-1.319-4.071-2.678-13.4-7.363-20.692C1026.727,1218.106,1020.276,1201.966,1016.67,1208.865
		 M981.402,1210.687c-5.633,4.541-19.236,28.378-17.86,42.259c4.752,0.325,32.876-1.826,36.442-1.926
		c-0.007-1.535-11.935-38.524-16.026-41.353C982.968,1209.352,982.158,1210.192,981.402,1210.687 M862.27,1211.662
		c-6.221,6.168-11.828,25.932-14.3,36.315c11.25,1.719,22.549,3.307,33.921,3.898c-5.498-21.436-8.594-35.09-17.097-40.386
		C864.031,1210.956,862.915,1210.959,862.27,1211.662 M745.95,1232.526c-0.206,3.827-2.42,1.119,1.631,9.465
		c3.428,7.163,6.847,23.631,15.723,28.795c4.103,2.489,24.311-19.045,27.636-22.572c1.001-1.063,2.195-1.957,2.993-3.192
		C788.92,1243.791,752.945,1233.886,745.95,1232.526 M1079.625,1243.753c-11.764,4.301-23.995,7.121-36.166,9.991
		c0.294,1.261-0.684,24.629,14.722,28.473c5.593,1.137,8.117,1.423,16.832-4.738c15.093-11.762,14.422-23.093,21.713-40.417
		C1091.281,1239.904,1085.376,1241.665,1079.625,1243.753 M798.548,1246.285c0.722,6.43-0.419,11.476,5.594,24.344
		c6.229,15.33,7.676,18.474,9.212,21.033c9.902-10.171,17.655-18.063,23.186-30.668c-0.134-2.037-0.176-4.086,0.407-6.058
		C823.618,1252.705,806.163,1248.449,798.548,1246.285 M739.911,1252.846c-1.442,4.253,0.936,11.666,3.234,14.73
		c3.794,5.234,2.456,11.673,13.958,15.535c2.567,0.771,5.157,2.003,7.911,1.592c2.49-0.338,5.46,0.269,7.42-1.7
		c0.384-0.371,9.393-8.161,11.192-12.984c0.368-1.197,1.255-2.064,2.486-2.31c0.38,0.165,0.771,0.342,1.17,0.53
		c7.509,10.172,3.498,7.957,10.801,19.303c2.533,4.168,13.775,16.034,18.175,13.153c8.668-5.512,15.818-18.461,16.794-19.944
		c0.877-1.435,3.973-1.967,3.887,2.152c1.803,1.811,2.49,4.293,3.626,6.526c0.428,1.114,7.744,11.167,8.03,11.556
		c3.902,5.497,12.108,7.152,13.479,7.547c5.839,1.493,7.195,1.95,14.399-3.564c0.134-0.725-0.031-1.466,0.088-2.164
		c0.43-0.932,1.289-1.888,2.417-1.738c1.174-0.169,1.934,0.852,2.697,1.569c1.374-0.583,2.536-1.523,3.672-2.471
		c-1.255,1.347-2.191,2.985-2.479,4.827c20.552,27.595,22.737,11.74,33.196,4.109c-4.291-6.093-1.328-6.788-0.284-6.553
		c3.496-0.652,8.736,19.187,20.028,19.138c6.875-1.013,15.198-10.383,18.363-16.552c0.14-0.858-1.325-6.143,1.918-5.621
		c3.795-0.425,1.523,6.592,6.335,11.998c9.666,10.655,12.281,14.407,26.39,0.299c7.043-7.794,11.497-15.335,12.473-17.707
		c-0.798-1.209-1.262-2.563-0.94-4.01c0.303-0.315,0.614-0.618,0.936-0.906c6.3-0.076,2.925,5.198,12.378,16.356
		c11.694,12.459,22.758,1.229,28.128-12.684c-1.715-2.967-2.201-4.032,0.177-5.974c1.105-0.084,2.317,0.15,2.943,1.189
		c2.132,3.662,9.003,7.903,12.435,9.884c17.06,9.931,39.428-22.496,44.196-40.766c-0.84-2.667-1.592-5.352-2.245-8.061
		c-2.402,6.081-4.182,12.435-7.171,18.282c-7.426,14.646-34.711,37.427-51.498,6.373c-1.026,6.592-5.848,19.839-6.86,22.311
		c-10.761,26.743-33.5-31.502-32.007-22.039c-0.14,0.39-13.768,34.287-20.45,37.877c-3.461,1.991-7.9,0.388-10.509-2.287
		c-8.853-9.775-9.865-21.68-11.334-27.103c-0.096,0.207-0.28,0.618-0.372,0.825c-1.5,0.065-2.993-0.318-4.478-0.084
		c-1.088,1.506-6.678,28.709-16.46,31.239c-11.19,2.918-19.473-22.113-20.504-34.052c-4.219,10.575-4.102,23.78-14.595,32.64
		c-11.757,9.875-17.985-20.523-21.156-35.529c-0.386,0.367-4.335,26.499-13.828,29.294c-10.256,2.271-16.241-11.429-22.023-22.257
		c-1.166,1.143-2.248,2.413-2.759,4.002c-3.402-4.447-5.645-20.608-5.985-22.629c-0.978,2.195-1.638,4.52-2.674,6.695
		c-4.113,9.769-18.638,26.578-21.31,26.984c-4.765,0-8.146-9.363-10.544-14.998c-4.03-11.027-11.135-22.116-10.206-34.451
		c-19.213,30.427-33.656,41.903-47.216,8.571c-1.427-3.729-2.789-7.52-3.507-11.453
		C741.046,1249.116,740.559,1251.008,739.911,1252.846 M1004.508,1259.253c1.663,14.701,8.321,19.663,13.816,28.208
		c2.344,3.334,4.416,7.094,7.892,9.404c3.644-5.673,9.905-27.425,10.85-41.867
		C1026.278,1256.859,1015.42,1258.375,1004.508,1259.253 M842.414,1255.835c0.48,7.477,15.956,44.749,23.926,44.718
		c2.544-2.352,3.856-5.736,5.418-8.775c2.319-5.433,9.033-11.194,8.51-28.143c0.146,0.476,0.28,0.955,0.445,1.469
		c-0.226-1.727,1.707-2.709,1.389-4.439C868.785,1259.948,855.594,1257.818,842.414,1255.835 M987.158,1260.677
		c-19.878,1.74-25.653,0.31-26.343,2.667c0.587,4.577,0.234,9.212-0.414,13.766c1.375,6.637,12.441,32.107,18.217,29.517
		c2.058-1.475,17.002-27.146,20.086-46.809C994.847,1260.009,991.014,1260.531,987.158,1260.677 M888.905,1261.145
		c0.226,2.591,0.807,14.699,0.81,14.845c-0.2,0.104-0.595,0.307-0.79,0.407c1.124,3.906,8.518,32.024,11.783,31.435
		c9.832-10.263,12.427-39.82,14.948-45.374C913.643,1262.008,899.259,1261.898,888.905,1261.145 M919.043,1262.25
		c0.284,0.587,0.556,1.182,0.825,1.807c0.031-0.633,0.069-1.262,0.127-1.857C919.757,1262.211,919.281,1262.238,919.043,1262.25
		 M921.169,1262.277c-0.161,4.8,0.414,9.58,0.345,14.38c-0.23,0.084-0.695,0.249-0.925,0.33c0.835,3.017,7.648,20.336,9.197,23.358
		c3.352,6.366,0.169,3.015,7.186,8.03c7.167-6.194,14.228-35.007,17.212-46.203C943.177,1262.169,932.172,1262.633,921.169,1262.277
		 M954.526,1262.173c0.184,2.39,1.013,4.646,1.458,6.995c0.357-2.329,0.084-4.689-0.295-6.991
		C955.397,1262.177,954.817,1262.177,954.526,1262.173 M686.786,1289.526c-10.022,1.627-10.155,4.888-14.833,11.637
		c-2.774,3.778-0.556,6.278-4.339,9.086c-0.96,18.132,6.103,32.392,14.611,51.21c22.813,7.283,36.004-8.379,19.844-25.921
		c-6.382-6.962-2.667-17.137,4.658-17.822c25.789-3.963,23.575,70.116-19.153,55.526c3.218,6.396,3.803,3.521,8.533,8.452
		c14.163,13.378-13.452,6.275,79.698,37.278c-20.668-32.079-29.01-111.462-77.557-128.345
		C694.544,1289.602,690.615,1288.708,686.786,1289.526 M1132.496,1298.496c-27.085,7.833-39.149,70.181-75.021,123.503
		c32.404-6.346,44.804-7.818,73.885-17.162c0,0,0.592-1.25,8.33-14.1c-23.284,1.136-36.159-27.02-23.853-50.953
		c5.978-11.981,19.042-13.514,24.755-9.243c13.475,9.6-16.46,18.397-10.601,35.609c3.86,11.63,9.138,11.854,15.24,16.571
		c3.904-5.638,26.758-42.26,23.585-53.896c-6.26-20.167-10.403-27.756-26.957-31.469
		C1138.704,1296.589,1135.492,1297.568,1132.496,1298.496 M410.161,1305.468c-8.403,1.604-16.89,2.72-25.334,4.059
		c32.614,8.052,106.364,41.647,134.541,57.537c6.049,3.043,19.034,2.373,19.353,5.187c-3.346,0.119-6.699,0.088-10.037,0.345
		c0.652,0.46,1.324,0.948,1.934,1.496c-16.825-4.691-96.963,11.064-108.601,13.413c44.423,2.935,134.809,21.629,172.733,41.702
		c-0.269-1.734-0.269-3.495,0.142-5.195c-2.559-0.99-2.678-4.244-3.737-6.304c-4.036-0.975-7.865-2.605-11.798-3.902
		c3.998,0.948,7.881,2.329,11.894,3.231c-0.188-0.238-0.572-0.71-0.76-0.948c0.177,0.038,0.533,0.115,0.71,0.154
		c0.088-0.867,0.226-1.688,0.418-2.517c-6.676-2.045-13.202-4.558-19.925-6.442c0,0,20.192,5.168,20.193,5.168
		c3.532-6.659,6.126-6.84,12.454-10.939c-18.368-5.339-34.79-11.305-46.874-12.562c17.947,0.745,36.526,6.978,48.547,11.664
		c0.384-0.203,9.371-5.391,9.761-5.744c-34.496-11.566-39.221-14.218-54.103-18.286c0.384,0.077,33.483,7.764,57.057,16.828
		c1.842-1.14,3.818-2.076,5.548-3.384c-37.398-10.045-49.558-17.969-77.906-26.09c0.402,0.071,54.149,13.82,80.204,24.809
		c2.198-1.009,4.232-2.39,6.384-3.507c-28.064-9.268-68.829-26.775-83.128-30.096c1.368,0.21,56.705,15.672,85.879,28.707
		c2.367-1.389,5.03-2.233,7.355-3.66c-34.034-12.756-57.873-25.466-87.13-33.902c0.384,0.064,66.862,17.942,93.956,31.462
		c1.32-0.526,2.659-0.986,4.006-1.439c-1.785-1.148-76.041-31.144-94.485-36.139c0.39,0.07,67.463,16.03,97.044,35.195
		c3.944-1.788,8.284-2.479,12.293-4.029c-0.388-0.17-67.329-28.729-95.529-36.944c0.384,0.089,72.528,19.397,98.211,36.396
		c0.767-0.226,1.523-0.483,2.264-0.787c-7.863-5.961-91.791-39.362-107.396-43.644c0.384,0.071,86.202,23.645,106.479,41.503
		c0.848,0.591,1.316,1.991,2.525,1.83c-1.915-2.924-3.465-6.081-5.391-8.974c-15.55-8.787-79.484-35.118-96.703-38.199
		c6.195,0.787,35.698,11.124,56.854,12.416C534.333,1306.266,431.334,1301.702,410.161,1305.468 M1124.834,1344.047
		c1.723-1.968,3.522-3.868,5.51-5.571C1127.884,1339.527,1125.881,1341.591,1124.834,1344.047 M649.55,1348.209
		c6.542,2.855,12.957,6.074,19.019,9.853c-0.928-1.995-1.845-3.99-2.716-6.005C662.061,1353.281,659.103,1350.493,649.55,1348.209
		 M915.962,1365.686c-11.012,13.623-11.61,24.768-13.958,27.713c0.407,3.311,1.14,6.607,1.627,9.926
		c3.135-0.752,6.319-1.358,9.546-1.504c-0.269-11.248,4.319-9.498,5.713-22.963c0.34,14.061,3.843,16.897,0.656,23.32
		c6.553,0.552,10.509,2.061,13.202,2.041c-0.027-2.885,0.318-5.759,0.71-8.602c-0.184-0.015-0.556-0.042-0.74-0.057
		c0.407-1.136,0.967-2.199,1.619-3.2c1.164-1.775-1.209-8.702-3.837-12.09C921.74,1369.563,920.144,1369.816,915.962,1365.686
		 M660.285,1383.784c-15.84,5.923-16.73,5.926-31.585,14.53c0.223,0.391,0.391,0.821,0.499,1.289
		c-0.606,0.276-1.044,0.107-1.235-0.499c-1.516,0.385-24.631,13.236-26.907,15.761c0.813,0.188,1.631,0.388,2.452,0.606
		c4.935-8.553,16.184-4.974,21.778-8.326c16.663-8.597,30.386-14.255,62.302-19.867c-2.34-3.254-4.604-6.557-6.956-9.799
		C674.021,1380.097,666.927,1381.244,660.285,1383.784 M960.342,1381.379c-6.171,1.471-18.598,6.847-21.778,9.112
		c-0.249,1.02-0.444,9.159-3.91,13.997c8.271,1.062,12.984,2.709,12.984,2.709c6.916-3.584,6.713-2.961,10.367-7.244
		c-3.021,5.211-5.194,10.518-5.195,10.521c3.614,2.782,7.689,4.88,11.338,7.616c3.246-3.388,6.822-6.496,10.712-9.116
		c1.471-8.275-0.974-14.65-0.721-30.165C969.531,1379.598,964.877,1380.201,960.342,1381.379 M866.394,1380.945
		c-4.729,14.447-5.799,12.628-2.237,26.957c3.176-0.184,7.635,5.309,9.634,7.85c2.632-2.041,5.414-3.883,8.372-5.418
		c-6.645-6.115-5.626-8.578-12.746-18.762c7.861,10.142,8.018,6.923,14.998,17.599c0,0,6.782-2.883,16.824-5.168
		c-2.632-8.464-4.172-11.183-3.453-14.745C890.881,1384.649,866.927,1380.946,866.394,1380.945 M674.113,1391.097
		c-3.503,1.105-6.837,2.693-10.367,3.718c0,0,21.115-3.735,25.902-4.474c-0.637-1.032-1.308-2.034-2.091-2.943
		C682.999,1388.339,678.506,1389.562,674.113,1391.097 M670.583,1396.001c0.341-0.018,13.002-1.56,21.095-2.747
		c-0.645-0.909-1.258-1.823-1.865-2.736C683.245,1391.734,676.837,1393.672,670.583,1396.001 M1149.589,1395.874
		c-5.705,7.43-16.68,16.212-20.074,13.985c-2.69,1.274-5.375,2.559-8.142,3.637c1.328,4.657-0.187,28.316-0.625,31.02
		c31.937,4.914,20.744,5.598,33.576,2.759c3.38-0.844,6.864-1.374,10.156-2.532c-29.216-8.3-33.953-11.488-41.491-12.853
		c18.121,0.607,39.434,13.458,45.439,11.952c2.34-0.652,4.696-1.27,7.044-1.922c0.056-0.384-43.163-16.68-50.162-18.493
		c22.067,3.678,43.724,12.886,53.734,17.504c3.488-1.059,6.987-2.083,10.436-3.269c-0.302-0.173-53.123-18.967-63.764-21.517
		c79.264,15.572,53.401,26.186,78.313,16.092c-0.384-0.231-49.705-17.39-62.582-20.312c0.384,0.031,45.566,8.091,66.346,18.773
		c2.413-0.913,4.815-1.865,7.198-2.874c-23.107-6.076-43.337-17.352-64.362-23.593c2.736,0.455,6.89,2.093,20.661,5.851
		c53.926,13.766,41.174,20.17,54.007,13.337c-18.391-6.033-40.683-16.22-64.669-23.021c68.597,14.961,62.851,28.311,76.74,15.489
		c-6.709-0.982-7.516-2.107-10.39-3.208c-0.245,0.326-0.483,0.664-0.706,1.017c0.173-0.403,0.365-0.786,0.572-1.155
		c-31.174-10.34-73.21-22.135-73.21-22.135C1152.098,1392.087,1151.039,1394.128,1149.589,1395.874 M666.82,1403.801
		c-20.278,9.604-49.852,15.466-49.852,15.466c3.53,1.485,7.194,2.609,10.739,4.059c3.298-5.459,25.443-15.187,40.962-18.302
		c9.258-1.88,18.616-3.25,28.009-4.255c-0.213-1.339-4.536-6.755-4.873-7.14C683.134,1396.116,675.065,1400.221,666.82,1403.801
		 M688.927,1404.722c-4.332,1.516-8.644,3.081-12.922,4.735c8.571-2.156,17.289-3.776,26.075-4.762
		c-1.673-0.706-3.089-1.895-4.635-2.755C694.544,1402.65,691.755,1403.766,688.927,1404.722 M702.847,1406.713
		c-12.344,4.786-27.569,11.839-59.302,22.488c3.503,1.293,7.064,2.432,10.651,3.48c0.18-0.403,0.376-0.783,0.579-1.147
		c0.1,0.046,0.299,0.134,0.399,0.18c4.276-4.594,18.717-10.765,24.644-12.926c7.513-2.733,13.884-3.969,38.403-7.198
		c-4.792,1.097-9.492,2.594-13.977,4.612c-19.051,8.315-14.177,6.483-47.431,17.273c39.695,10.732,12.889,5.503,48.72-4.719
		c2.835-0.894,5.955-1.312,8.74-0.004c0.495-4.645,2.022-13.861,5.54-17.208C702.021,1405.254,706.357,1405.491,702.847,1406.713
		 M844.325,1414.678c-4.221,2.38-13.787,5.18-14.177,5.253c5.454,5.985,14.042,18.873,19.046,22.952
		c0.587,0.042,1.182,0.104,1.792,0.188c1.331-2.624,3.369-4.769,5.118-7.102c-7.383-1.492-8.654-4.746-13.993-9.112
		c-2.874-2.701-6.296-4.727-9.285-7.255c12.134,7.132,14.627,3.33,28.534,9.65c2.974-4.044,5.905-8.238,9.849-11.411
		c-7.317-5.538-10.147-7.781-11.779-7.597C854.147,1410.55,848.964,1412.157,844.325,1414.678 M979.538,1411.114
		c-0.728,4.238-1.609,3.795-5.709,8.767c0.959-1.826,0.74-3.921,0.645-5.893c-2.667,1.949-5.372,3.844-8.061,5.763
		c4.389,3.453,8.832,6.925,12.404,11.261c2.563-1.585,5.51-2.41,8.011-4.094c-2.294,1.915-4.194,4.351-6.937,5.674
		c2.034,2.928,3.495,6.473,6.511,8.56c3.474-3.315,24.039-17.209,24.44-17.469C990.317,1412.976,1006.355,1418.381,979.538,1411.114
		 M899.74,1416.42c-11.352,3.86-19.034,5.997-36.012,28.147c5.621,0.552,11.246,1.12,16.874,1.627
		c0.795-4.705,16.916-17.885,24.471-19.829c4.345-1.219,14.166-1.893,26.462,1.059c13.858,3.504,17.27,9.305,20.811,12.669
		c2.21,2.31,4.807,4.228,6.899,6.668c4.143-0.488,15.926-1.845,16.46-2.321C954.852,1413.562,928.413,1406.836,899.74,1416.42
		 M725.319,1413.615c0.748,3.438-1.492,3.021-4.508,12.796c-1.462,4.988-2.448,10.095-3.756,15.125
		c2.014-0.951,4.144-1.611,6.196-2.463c-0.092-0.418-0.138-0.737-0.2-1.105c2.863,4.311-5.688,7.021-6.853,7.509
		c-0.491,1.159-0.61,2.459-1.07,3.653c113.629,30.561,265.885,35.156,396.959,7.025c2.03-7.125,1.354-38.912,1.343-39.297
		c-21.19,8.373-59.326,15.347-78.781,27.103c0.411-0.541,0.84-1.059,1.289-1.554c-59.688,20.357-143.315,21.453-204.517,8.786
		C806.185,1446.523,824.006,1448.983,725.319,1413.615 M633.785,1425.594c0.952,0.449,1.949,0.821,2.951,1.182
		c4.604-2.824,9.392-5.352,14.296-7.608C645.226,1421.147,639.578,1423.572,633.785,1425.594 M707.835,1431.284
		c-18.886,5.951-26.432,8.656-26.432,8.656c24.562,7.566,20.705,6.561,31.389,3.277c0.388-4.666,0.852-9.32,1.289-13.974
		C711.929,1429.699,709.938,1430.666,707.835,1431.284 M915.851,1432.654c-9.878,1.321-13.229,4.756-23.055,14.541
		c16.739,1.651,39.801,1.323,54.743,0.342c-5.569-6.699-9.618-11.192-19.065-13.367
		C924.349,1433.183,920.117,1432.178,915.851,1432.654 M1120.751,1444.82c-0.15,1.281-0.441,2.548-0.422,3.86
		c18.108,2.631,14.068,3.164,22.737,0.867C1135.569,1448.277,1128.222,1446.24,1120.751,1444.82 M707.444,1447.164
		c1.681,0.522,3.396,0.944,5.118,1.335c0.012-0.786,0.046-1.542,0.081-2.294C710.924,1446.62,709.159,1446.761,707.444,1447.164
		 M1120.176,1448.829c-0.365,2.018-0.833,4.025-1.512,5.974c4.378-1.044,8.821-1.799,13.183-2.904
		C1127.899,1451.097,1124.131,1449.597,1120.176,1448.829z"/>
	<path d="M1168.573,375.669c5.42,11.002,3.401,26.234-8.172,26.094c-13.721,10.651-66.135,39.485-66.519,39.665
		c33.636-20.426,27.395-19.853,65.164-42.876c-0.115-0.848-0.207-1.704-0.261-2.548c-13.853,11.919-18.301,10.066-61.431,37.014
		c39.591-27.154,38.366-32.761,63.042-45.251c0.088-1.819-0.295-3.614-0.879-5.322c-11.359,13.832-15.397,11.608-51.816,34.454
		c31.108-22.177,24.967-24.935,49.537-38.794c-0.506-0.859-0.99-1.723-1.446-2.598c-16.179,14.105-22.684,14.484-53.055,34.086
		C1132.678,387.971,1156.797,352.147,1168.573,375.669z"/>
	<path d="M1107.71,469.095c-14.539,7.716-17.846,8.694-23.811,11.848C1089.558,477.701,1102.466,468.931,1107.71,469.095z"/>
	<path d="M1184.358,517.094c5.758-2.645,11.282,4.946,14.085,10.605c0.572-0.414,1.235-0.625,1.957-0.579
		c0.303,1.347-0.395,2.498-0.859,3.695c2.17,8.391,1.436,20.002-6.008,24.199c-0.157-0.157-0.468-0.476-0.622-0.633
		c-17.299,16.648-63.299,39.643-63.683,39.803c10.715-5.801,9.373-5.346,65.279-43.912c0.453-1.608,0.395-3.3,0.579-4.946
		c-12.317,11.888-29.68,24.552-71.307,48.079c23.578-14.96,21.63-17.298,71.292-52.111c-0.169-1.519-0.219-3.058-0.549-4.55
		c-0.157,0.042-0.464,0.119-0.618,0.157c-13.338,13.018-69.725,45.526-70.11,45.735c27.298-16.572,48.67-37.812,69.147-51.451
		c-0.51-1.132-0.894-2.371-1.738-3.292c-10.555,10.719-18.229,16.095-59.674,41.706c24.881-16.473,35.151-28.757,58.454-43.69
		c-1.162-1.443-2.337-2.87-3.576-4.24c-13.333,16.686-61.639,46.789-62.931,47.503c24.224-15.428,51.458-43.661,61.377-50.143
		C1184.668,518.383,1184.504,517.738,1184.358,517.094z"/>
	<path d="M608.842,535.606c-8.515,1.58-109.458,21.812-112.292,12.585c0.487-0.506,1.278-0.246,1.907-0.334
		c-0.457,0.111-0.905,0.226-1.351,0.345C503.305,554.878,608.458,535.65,608.842,535.606z"/>
	<path d="M982.208,542.021c1.254,0.903,28.74,12.052,29.129,12.209C1010.953,554.12,984.522,544.985,982.208,542.021z"/>
	<path d="M994.992,541.96c0,0,28.998,9.181,28.998,9.181c0,0-14.74-4.555-26.102-7.512
		C996.819,543.276,995.43,543.18,994.992,541.96z"/>
	<path d="M868.892,578.931c5.747,0.892,8.515,0.253,16.609,6.097c1.516,1.197,3.15,2.367,4.163,4.063
		C881.387,586.369,869.085,578.993,868.892,578.931z"/>
	<path d="M869.418,585.496c2.244,0.894,4.754,0.955,6.902,2.141c4.788,2.456,9.178,5.713,14.284,7.532
		c-0.226-2.083-1.147-4.232-0.434-6.304c2.425,0.115,4.466,1.7,6.031,3.442c13.518,15.172-2.691,44.33-18.42,39.68
		c-12.669-0.794-11.134-4.083-16.414-7.347c0.203,0.096,11.971,2.448,12.976,2.763c-7.755-2.941-12.788-6.558-25.676-12.846
		c0.104,0.033,24.345,10.026,26.915,11.322c1.757-1.312,3.741-2.275,5.567-3.484c0-0.073,0-0.219,0-0.292
		c-11.723-5.375,0.358,0.64-29.731-14.35c12.656,5.339,12.941,3.115,32.026,12.938c0.944-0.906,1.865-1.834,2.736-2.812
		c-0.384-0.182-23.42-11.15-25.96-12.082c9.105,3.169,18.654,5.429,26.938,10.559c0.836-1.293,1.523-2.678,2.026-4.132
		c-13.226-5.713-23.98-11.453-23.98-11.453c20.495,7.371,20.778,9.187,24.291,10.705c0.579-2.26,1.097-4.558,1.14-6.895
		c-18.009-5.29-20.252-10.221-26.244-12.972c24.095,7.373,16.162,7.145,26.336,12.623c0.292-2.989,0.318-6.008-0.138-8.978
		C876.232,591.395,871.388,586.588,869.418,585.496z"/>
	<path d="M962.506,604.565c-0.307,1.911-0.61,3.898-1.646,5.575c-0.748,1.305-2.064,2.344-2.106,3.967
		C958.155,612.056,960.329,611.688,962.506,604.565z"/>
	<path d="M794.527,660.168c1.799,1.036,3.729,1.857,5.464,3.023C798.003,662.55,795.889,661.844,794.527,660.168z"/>
	<path d="M927.737,719.822c7.104-2.751,22.09-0.058,19.782,19.921c15.026-6.657,27.737,10.574,14.307,24.356
		c19.906-1.981,14.984,17.227,6.373,21.904c5.04,15.29-8.468,27.827-21.57,25.357c-3.648,22.11-29.459,21.324-28.68-1.212
		c-10.121,10.448-35.399-9.451-20.185-22.119c-21.32-7.331-22.187-31.461,1.435-28.999c-3.056-15.827,7.565-31.379,17.81-21.613
		C917.5,730.551,922.26,722.133,927.737,719.822 M928.681,726.759c-7.801,8.515-4.824,18.598-3.1,29.375
		c6.794-1.752,10.992-0.11,11.963,1.036c0.188,0,0.564-0.004,0.752-0.008c0.249,0.303,0.503,0.622,0.756,0.955
		c0.015-0.591,0.054-1.17,0.115-1.738c-0.303-0.153-0.691-0.054-1.001-0.115c1.621-3.009-0.685-7.183,4.689-12.608
		c2.844-3.785,0.54-14.842-5.897-17.553C934.367,724.964,930.807,724.488,928.681,726.759 M904.954,745.728
		c-1.592,4.781-1.7,10.091-0.211,14.914c3.227,1.884,5.237,5.306,6.028,8.89c1.822-5.126,6.181-8.821,10.697-11.564
		c-0.211-0.031-0.407-0.054-0.591-0.061c-0.999-2.803-2.953-2.433-3.967-13.678C914.185,736.942,907.602,737.71,904.954,745.728
		 M947.094,745.184c-0.384,0.245-9.667,11.156-6.085,14.518c1.063,0.936,1.235,2.582,2.521,3.288
		c2.544,1.681,4.765,3.898,6.25,6.584c12.524-6.817,14.78-21.308,8.694-24.659C955.074,742.801,950.313,742.636,947.094,745.184
		 M920.428,764.206c-13.122,10.457-0.161,30.557,8.084,30.767c3.983,0.107,8.46,0.572,11.787-2.11
		c-0.322-1.163-0.763-2.279-1.155-3.407c-1.943,0.812-7.115,6.328-16.364-0.035c-6.042-4.38-5.635-14.678-4.155-17.438
		c1.863-3.521,9.156-7.128,13.034-4.808c4.722,1.806,12.711,3.469,12.047,12.738c-0.265,3.484-2.221,6.58-4.489,9.135
		c0.79,0.852,1.569,1.715,2.344,2.594c10.945-11.467,7.85-21.493-5.498-30.138C934.217,759.314,927.934,758.143,920.428,764.206
		 M889.12,765.054c-0.558,0.358-7.254,2.663-0.856,11.687c5.319,6.859,13.914,6.729,22.326,4.669
		c-1.106-9.467,0.26-9.333-0.925-11.073c-3.109-1.337-7.183-2.203-9.3-7.317C894.347,761.647,892.969,763.026,889.12,765.054
		 M950.935,771.757c1.37,2.881,1.703,6.162,1.201,9.297c2.333-0.395,4.7-0.18,7.029,0.165c-0.345-1.059-0.886-2.01-1.542-2.889
		c2.695,1.602,2.746-0.005,7.252,2.832C970.143,778.082,976.289,762.857,950.935,771.757 M925.696,774.416
		c-0.923,0.971-0.74,6.981,1.55,8.66c9.833,6.403,14.4-5.861,9.124-9.178c-1.784-1.212-3.63-2.34-5.544-3.319
		C928.942,771.608,927.143,772.824,925.696,774.416 M950.965,784.142c-2.083,3.526-4.24,7.094-7.113,10.045
		c1.746,2.463,3.066,5.295,3.277,8.345c0.54,7.826,20.691-1.065,15.121-15.247C958.34,787.008,954.238,786.479,950.965,784.142
		 M903.147,789.341c-1.327-0.212-3.816,4.1-4.259,7.064c-0.769,5.201,6.706,10.398,11.936,10.954
		c2.709-0.011,5.053-1.615,7.631-2.26c0.449-2.682,1.224-5.322,2.571-7.697c-3.369-3.495-7.651-6.523-9.132-11.388
		C909.179,787.546,906.401,789.437,903.147,789.341 M923.874,799.006c-6.113,34.787,20.978,25.151,17.388,5.513
		c-0.495-2.429-0.852-4.896-0.867-7.371C935.169,799.921,927.258,800.224,923.874,799.006z"/>
	<path d="M1082.602,766.014c18.889-13.108,30.863,8.244,37.294,30.322c9.361-16.398,29.444-32.398,38.468-14.894
		c5.195,9.419,7.021,20.427,6.277,31.09c6.306-7.123,14.652-8.863,18.348-10.609c8.683-4.021,12.619-4.779,19.499,2.494
		c9.04,9.206,0.983,28.198,0.345,30.433c6.031-3.914,9.092-8.887,23.439-4.781c6.846,2.221,8.334,5.792,8.429,11.227
		c0.251,7.55,0.013,17.651-12.328,27.936c2.448,0.431,15.859,4.818,16.613,16.939c0.803,7.449-4.119,9.05-7.877,14.1
		c-3.311,4.102-6.695,8.706-11.898,10.455c3.584,3.594,11.974,18.435,11.015,26.85c-2.839,9.379-17.408,6.771-25.116,6.841
		c9.063,25.833,1.947,51.621-25.104,29.302c1.586,5.689,4.618,50.658-40.567,10.003c0.123,2.899-5.558,63.283-36.461,11.081
		c-0.767,2.889-1.581,5.794-2.87,8.506c-4.58,9.718-34.452,30.021-34.209-15.896c-1.382,1.312-3.565,7.386-11.51,12.013
		c-35.135,19.844-25.734-13.013-25.212-19.015c-10.972,6.702-51.17,10.144-28.032-26.04c-16.791,6.853-26.663-6.559-27.176-10.682
		c-0.325-8.157-0.646-6.651,9.469-21.026c-10.034,1.397-10.859-1.9-16.306-6.488c-13.997-12.567-3.907-23.126,1.446-28.995
		c-9.232-8.357-17.301-15.098-13.548-24.233c3.656-7.818,11.572-10.614,20.519-11.242c-6.03-7.543-13.243-15.454-6.02-23.834
		c1.066-1.235,1.507-6.259,5.763-7.087c6.92-1.06,17.811,3.759,21.022,5.744c-5.422-10.217-2.05-14.781,1.623-19.445
		c5.783-18.93,21.249-5.524,29.612,1.182c0.211-4.397-0.721-8.832,0.238-13.176c3.485-16.596,16.421-28.276,29.363-16.072
		c5.053,4.508,8.249,10.59,11.89,16.199C1069.987,788.443,1076.511,770.225,1082.602,766.014 M1085.675,772.118
		c-2.893,3.233-12.248,18.598-13.64,28.438c0.322,0.929,0.871,1.765,1.374,2.624c15.69-3.127,27.398-2.969,40.923-0.361
		C1112.336,792.48,1101.31,758.703,1085.675,772.118 M1135.089,787.024c-5.172,5.084-9.772,10.908-12.454,17.715
		c11.595,2.839,23.186,5.889,34.316,10.252C1154.805,795.319,1155.783,766.61,1135.089,787.024 M1044.303,783.245
		c-16.679,6.449-7.924,28.227-7.347,31.044c10.087-4.006,20.343-7.762,31.013-9.88c-4.62-9.143-3.388-7.559-17.124-19.456
		C1049.038,783.563,1046.582,782.335,1044.303,783.245 M1005.586,807.915c-2.166,1.487-2.294,0.299-4.512,15.159
		c-0.043,1.117,5.709,9.323,5.982,9.707c6.277-5.268,12.972-10.106,20.258-13.882
		C1026.87,818.541,1011.051,804.078,1005.586,807.915 M1177.191,809.174c-3.45,1.081-11.901,6.663-13.448,8.399
		c3.763,2.151,19.266,7.69,32.379,19.587c0.578-5.676,6.992-29.375-5.997-29.344C1185.793,807.846,1181.315,807.65,1177.191,809.174
		 M974.588,831.308c-0.274,12.218,1.954,14.646,14.492,20.17c3.311-5.065,7.727-9.239,11.967-13.505
		C996.534,835.142,989.072,828.579,974.588,831.308 M1204.29,836.611c-3.409,1.844-1.695-0.266-3.825,5.049
		c3.525,4.334,12.516,12.039,15.942,26.186c4.898-5.108,4.616-1.381,11.721-14.273c2.164-3.93,2.716-15.309,0.257-17.181
		c-3.422-2.709-8.023-2.889-12.167-3.495C1211.833,832.118,1208.119,835.026,1204.29,836.611 M1099.3,849.709
		c1.715,2.349,21.856,29.314,24.709,32.862c21.014-35.942,20.009-34.163,22.468-34.236
		C1130.746,848.608,1115.027,849.364,1099.3,849.709 M1036.706,851.762c8.38,11.065,16.782,22.119,25.116,33.227
		c2.75-3.26,25.832-31.408,28.546-34.945C1072.48,850.611,1054.589,851.148,1036.706,851.762 M1148.541,850.611
		c0.068,1.684,1.239-0.876-19.698,34.167c15.984-0.591,31.968-1.193,47.948-1.826
		C1167.468,872.093,1157.93,861.416,1148.541,850.611 M1067.032,887.126c17.369-0.625,34.738-1.324,52.108-1.964
		c-8.011-10.758-16.08-21.475-24.13-32.202C1085.66,864.328,1076.359,875.742,1067.032,887.126 M1032.762,855.645
		c-0.901,2.884-7.05,9.213-26.029,33.771c16.763-0.599,33.53-1.27,50.293-1.895C1056.739,887.135,1033.293,855.809,1032.762,855.645
		 M965.66,860.694c-3.792,1.799-4.609,1.141-3.967,6.707c0.433,3.396,2.026,6.507,3.806,9.381c2.481,2.642,9.442,2.693,11.975,3.591
		c1.109-12.264,2.645-14.454,5.935-21.359C980.967,858.002,971.457,858.227,965.66,860.694 M1217.235,872.654
		c1.523,10.06-0.556,20.178-2.728,29.977c4.163-0.81,6.918-4.32,10.678-5.985c15.581-6.902,8.12-17.105,0.802-21.333
		c-2.156-1.224-3.91-3.127-6.285-3.948C1218.889,871.821,1218.064,872.247,1217.235,872.654 M969.904,884.241
		c0.192,0.334,0.407,0.668,0.645,1.009c0.564,0.111,0.917-0.518,1.362-0.783C971.227,884.371,970.56,884.298,969.904,884.241
		 M974.45,888.081c0.948-0.33,1.88-0.74,2.724-1.301c0.18,0.169,0.368,0.353,0.568,0.552c-0.89,0.886-1.374,2.068-2.129,3.054
		c-3.005,4.062-12.775,9.491-7.912,16.038c5.929,8.6,5.903,8.351,6.43,8.568c6.505,2.821,10.62-1.053,14.25,0.633
		c-0.18-0.384-8.233-13.95-10.643-29.835C976.649,886.566,975.471,887.214,974.45,888.081 M1141.036,889.635
		c-5.011,0.315-10.041,0.253-15.04,0.668c-1.226,2.777-23.851,66.687-25.668,71.89c3.133-2.879,76.713-73.477,77.154-73.901
		C1165.331,888.68,1153.188,889.236,1141.036,889.635 M1066.591,892.49c9.105,23.631,18.382,47.2,27.552,70.812
		c3.227-8.557,18.217-51.205,26.044-72.776C1102.319,891.028,1084.455,891.849,1066.591,892.49 M1009.438,894.669
		c3.031,2.608,72.279,62.169,78.62,67.758c-9.028-23.255-18.087-46.498-27.172-69.73
		C1043.735,893.365,1026.585,893.99,1009.438,894.669 M1212.846,911.206c-1.984,8.814-4.679,19.438-9.657,27.038
		c18.742-0.907,32.089,9.457,17.484-20.753c-1.013-2.187-2.371-4.205-4.036-5.939
		C1215.351,911.704,1214.07,911.578,1212.846,911.206 M989.763,918.004c-0.196,0.629-0.361,1.285-0.529,1.934
		c0.303-0.161,0.614-0.322,0.932-0.483C990.208,918.922,989.913,918.473,989.763,918.004 M980.697,920.686
		c1.143,0.292,2.306,0.541,3.495,0.694c0.449-0.625,0.879-1.262,1.289-1.911C983.904,919.954,982.327,920.441,980.697,920.686
		 M990.745,920.295c-2.063,13.47-22.152,16.496-4.692,26.9c11.912,6.141,13.785,4.31,20.4-0.495
		C992.86,930.79,997.437,933.448,990.745,920.295 M1199.897,942.43c-3.236,3.731-17.996,16.635-24.598,20.884
		c6.936,1.426,24.125,22.663,27.345,8.084c1.195-6.719,0.375-22.739,0.18-27.28C1201.727,943.765,1200.76,943.155,1199.897,942.43
		 M1010.236,951.047c-7.856,16.643-14.031,27.96-0.79,28.458c12.559,0.285,15.805-2.112,20.323-3.971
		c0.276-2.241,0.806-4.454,1.857-6.461C1030.38,968.041,1023.119,965.088,1010.236,951.047 M1162.008,970.074
		c-6.749,3.211-14.047,4.995-20.941,7.846c4.798,3.889,15.836,16.631,28.373,17.235c5.828-0.026,8.624-16.961,7.77-22.986
		c-0.032-1.744-4.327-3.522-3.112-8.165C1170.254,966.383,1166.11,968.201,1162.008,970.074 M1034.573,973.611
		c0.556-0.426,1.143-0.821,1.734-1.209c-2.793,4.468-1.595,0.492-2.77,8.936c-0.64,6.52-3.148,15.025-0.403,18.114
		c7.253,5.873,26.825-6.62,32.904-13.644c0.261-0.779,0.349-1.588,0.495-2.383c-17.039-5.09-21.169-7.988-31.193-12.546
		C1034.715,971.509,1034.995,972.786,1034.573,973.611 M1103.06,986.595c10.792,13.854,14.538,27.523,22.53,25.346
		c6.198-4.667,12.246-25.782,12.757-29.332c-1.009-0.775-1.907-1.669-2.667-2.674
		C1125.133,983.514,1114.133,985.574,1103.06,986.595 M1069.944,984.527c1.892,12.762-0.91,19.354,7.156,25.841
		c7.272,5.589,22.673-8.768,25.05-17.089c-0.629-2.141-0.779-4.412-0.161-6.572C1088.287,987.835,1082.771,987.908,1069.944,984.527
		z"/>
	<path d="M929.103,904.353c2.011-2.076,3.465-4.623,5.088-7.002c-1.297,2.432-2.847,4.738-3.871,7.313
		c2.554,3.059,1.854,3.127,12.635,26.129c12.902,25.97,101.375,122.493,45.681,169.402c-17.031,15.423-52.265,14.242-64.98-10.198
		c-0.384,0.227-7.288,12.523-20.661,15.04c-19.589,2.516-35.826-3.813-47.906-18.808c-19.314-25.321-3.626-52.379-1.531-57.79
		c14.329-37.138,71.963-121.097,71.963-121.097C925.984,905.677,927.476,904.675,929.103,904.353 M853.434,1052.749
		c-2.056,21.843,11.185,41.894,40.9,44.964c14.52,0.017,8.129,0.945,19.955-5.809c2.963-1.616,9.337-5.708,11.499-10.164
		c0.53,1.788-0.28,3.587-0.994,5.207c3.689,2.094,13.441,15.991,25.53,17.323c41.828,4.256,58.191-36.927,41.76-78.697
		c-2.632-6.982-26.891-50.798-42.612-70.198c-9.484-11.441-20.375-35.995-21.904-40.877
		C923.457,929.622,855.645,1021.468,853.434,1052.749z"/>
	<path d="M256.267,944.344c-0.384-0.004-63.993-2.248-67.037,0.898c0.721,0.154,1.458,0.299,2.195,0.426
		c-1.005,0.276-3.208-0.027-2.363-1.516C199.7,936.452,248.09,943.361,256.267,944.344z"/>
	<path d="M925.404,950.299c2.67-2.464,4.994-1.324,6.288,1.316c21.721,41.46,78.307,114.698,30.622,129.208
		c-14.208,3.981-29.854-7.275-36.864-20.178c-37.478,43.444-69.497,13.643-44.472-33.246c0.216-0.387,39.465-73.491,41.752-76.379
		C923.352,950.165,924.476,950.341,925.404,950.299 M926.21,1059.678c2.917,5.772,14.37,11.678,20.235,14.415
		C939.4,1070.268,930.589,1062.199,926.21,1059.678z"/>
	<path d="M828.487,1032.901c0.967-0.618,1.228-1.807,1.589-2.816c-0.215,1.462,0.111,2.927,0.986,4.132
		c3.899,5.821-1.411,61.703-25.338,61.017c-9.171,0.356-12.723-5.96-10.252-12.769c3.771-10.779,18.111-24.82,25.634-38.963
		C824.156,1037.954,823.036,1036.712,828.487,1032.901 M803.782,1086.409c14.423,2.618,18.852-19.698,22.134-33.656
		C817.485,1066.335,804.844,1079.209,803.782,1086.409z"/>
	<path d="M790.714,1030.898c0.365,0.38,0.986,0.932,0.257,1.351c3.083,2.744,2.171,3.392-0.272,7.766
		c-4.387,7.999-3.125,13.813-8.606,24.341c-17.494,34.177-58.091,47.372-65.329,31.968c-3.981-7.711,4.527-19.585,11.967-23.93
		c20.698-12.206,42.423-17.94,57.26-36.745C789.952,1030.838,788.205,1034.291,790.714,1030.898 M727.997,1082.016
		c-14.51,17.121,7.869,14.64,15.838,10.854c15.697-7.299,30.32-19.865,39.976-44.771
		C767.334,1064.526,735.315,1073.372,727.997,1082.016z"/>
	<path d="M609.271,1042.731c-2.154-8.698,10.544-12.462,11.077-6.166c0,1.201,1.22,1.623,1.972,2.329
		c3.948,3.515,3.984,6.853,1.661,10.325c6.319,10.129-13.815,12.919-13.126-2.582
		C610.296,1045.344,609.528,1044.128,609.271,1042.731 M614.413,1042.44c-0.042-0.556,0.169-0.917,0.637-1.09
		c1.297-0.61,1.984-2.041,3.415-2.452C614.447,1035.732,612.61,1041.991,614.413,1042.44z"/>
	<path d="M1024.628,1035.322c3.79-1.263,4.527,6.706,13.279,18.071c15.265,18.124,21.619,20.436,24.011,27.893
		c3.21,12.377-18.247,30.576-33.165,2.751c-9.307-17.156-7.601-27.117-6.891-43.64
		C1022.142,1038.511,1022.671,1036.128,1024.628,1035.322 M1026.447,1045.624c-1.835,29.492,12.69,52.42,26.412,47.008
		c-2.128-4.719,0.205-6.556,0.284-8.809C1050.809,1077.21,1037.443,1066.054,1026.447,1045.624z"/>
	<path d="M1059.416,1038.092c1.807,1.703,3.568,3.518,5.782,4.715c-0.058-0.802-0.161-1.573-0.395-2.321
		c0.779,1.654,2.762,1.918,4.021,3.069c0.852,0.721,1.439,1.811,2.594,2.129c9.61,3.324,13.595,8.578,37.505,20.312
		c26.257,12.683,35.045,28.071,27.936,32.03c-1.646,0.874-4.726,7.603-10.785,9.166c-39.672,10.558-61.082-62.262-61.876-63.192
		C1062.7,1041.952,1061.043,1040.03,1059.416,1038.092 M1075.408,1057.346c7.313,18.808,24.182,46.067,44.154,44.61
		c7.15-0.145,7.349-1.531,12.113-2.916c-0.035-1.692,1.04-3.035,1.719-4.485c-0.004-1.512-1.097-2.755-1.838-3.99
		C1120.975,1073.979,1103.177,1074.227,1075.408,1057.346z"/>
	<path d="M1234.117,1055.37c1.482,20.556-18.434,14.118-13.199,4.662c0.913-2.037,2.966-3.135,4.957-3.879
		C1229.109,1047.573,1233.937,1052.389,1234.117,1055.37z"/>
	<path d="M632.02,1060.127c6.359-4.508,18.827,3.212,15.021,11.909c-3.307,6.853-14.029,9.878-17.511,4.5
		c-1.222-1.821-3.613-12.302-3.695-12.692c0.453,1.224,0.894,2.475,1.669,3.557C628.198,1064.589,629.76,1061.95,632.02,1060.127
		 M637.721,1063.496c2.099,1.604,2.778,4.412,2.812,6.937C642.611,1068.41,641.906,1064.386,637.721,1063.496z"/>
	<path d="M1208.572,1073.264c0.971,0.119,1.953,0.391,2.954,0.315c17.148,13.691-8.617,30.291-12.42,9.458
		C1198.064,1077.226,1203.561,1072.54,1208.572,1073.264z"/>
	<path d="M682.228,1098.023c-12.588,11.566-31.476-7.777-18.474-19.997C679.466,1065.398,695.081,1086.25,682.228,1098.023z"/>
	<path d="M1187.419,1106.376c-1.677,1.819-3.966,8.697-10.705,8.449c-7.343,0.282-16.47-8.688-13.636-16.322
		c0.645-2.313,2.655-3.933,3.227-6.262C1171.001,1075.3,1196.444,1094.726,1187.419,1106.376z"/>
	<path d="M833.375,1090.342c16.408,24.768,22.39,27.59,39.872,32.555c21.563,6.43,41.914-9.239,47.753-11.595
		c8.089-2.139,45.618,34.732,78.497-2.962c3.112-3.396,6.561-6.465,9.703-9.834c2.202-2.367,4.079-5.018,6.354-7.317
		c-11.802,13.312-12.757,30.441-34.523,37.34c-23.314,7.127-53.965-5.564-57.84-15.616c-9.661,12.395-32.725,20.753-49.986,16.069
		C840.57,1120.285,845.537,1114.575,833.375,1090.342z"/>
	<path d="M680.31,1185.825c5.603,21.666,9.563,25.973,11.403,37.635c2.614,15.234-4.407,37.499-15.14,37.393
		C676.144,1257.07,691.275,1244.646,680.31,1185.825z"/>
	<path d="M1165.895,1211.976c-14.784,42.823,5.13,68.99,5.13,68.99c-0.904,1.217-13.161,3.896-17.883-18.014
		C1149.131,1243.264,1158.267,1231.726,1165.895,1211.976z"/>
	<path d="M741.867,1375.282c4.47-1.358,9.527,2.659,9.078,7.321c-0.107,1.431-1.489,2.402-1.45,3.867
		c-0.161,8.001-13.082,8.462-13.855-0.764C735.176,1381.417,737.624,1376.652,741.867,1375.282z"/>
	<path d="M1097.577,1391.231c4.984,6.623-2.848,15.387-8.341,13.617c-3.386-0.851-6.921-5.387-4.205-11.491
		C1087.55,1387.331,1094.742,1387.247,1097.577,1391.231z"/>
	<path d="M708.967,1422.716c-4.547,0.522-8.629,2.682-12.842,4.305c-7.271,2.881-14.948,4.508-22.407,6.818
		c-5.477,1.325-6.778,2.405-7.328-0.196c0.173,0.207,0.518,0.625,0.691,0.833C678.157,1427.297,694.6,1421.851,708.967,1422.716z"/>
</g>
</svg>
